<svg width="15" height="20" viewBox="0 0 15 20" fill="none" xmlns="http://www.w3.org/2000/svg">
<path d="M14.2386 19.6803C13.818 19.6803 13.4772 19.3395 13.4772 18.9189C13.4772 15.938 11.052 13.5128 8.07107 13.5128H6.92893C3.94801 13.5128 1.52284 15.938 1.52284 18.9189C1.52284 19.3395 1.18195 19.6803 0.761421 19.6803C0.340888 19.6803 0 19.3395 0 18.9189C0 15.0983 3.10831 11.99 6.92893 11.99H8.07107C11.8917 11.99 15 15.0983 15 18.9189C15 19.3395 14.6591 19.6803 14.2386 19.6803Z" fill="#03255A"/>
<path d="M7.42426 10.4672C4.59029 10.4672 2.28467 8.16155 2.28467 5.32758C2.28467 2.49361 4.59029 0.187988 7.42426 0.187988C10.2582 0.187988 12.5639 2.49361 12.5639 5.32758C12.5639 8.16155 10.2582 10.4672 7.42426 10.4672ZM7.42426 1.71083C5.42999 1.71083 3.80751 3.33331 3.80751 5.32758C3.80751 7.32186 5.42999 8.94433 7.42426 8.94433C9.41854 8.94433 11.041 7.32186 11.041 5.32758C11.041 3.33331 9.41854 1.71083 7.42426 1.71083Z" fill="#03255A"/>
</svg>
