<svg class="svg-icon" style="width: 1em; height: 1em;vertical-align: middle;fill:#03255A;overflow: hidden;" viewBox="0 0 1024 1024" version="1.1" xmlns="http://www.w3.org/2000/svg"><path d="M188 316.4h687.7c22.9 0 41.4 18.5 41.4 41.4H146.7c0-22.9 18.5-41.4 41.3-41.4zM371.4 68.9c17.7 0 32.1 14.4 32.1 32.1v117.7c0 17.7-14.4 32.1-32.1 32.1-17.7 0-32.1-14.4-32.1-32.1V101c0-17.8 14.4-32.1 32.1-32.1zM692.4 68.9c17.7 0 32.1 14.4 32.1 32.1v117.7c0 17.7-14.4 32.1-32.1 32.1-17.7 0-32.1-14.4-32.1-32.1V101c0-17.8 14.4-32.1 578h1.1c8.1-8.3 17.4-14.3 27.9-18 9.3-3.9 20-5.8 32.3-5.8 24.7 0 44.7 8.1 60.1 24.2 15.6 16.4 23.5 38.5 23.5 66.4 0 26.9-10 49-30 66.3-18.6 15.4-41 23.1-67.1 23.1-23.2 0-43.4-6.4-60.5-19.4-18.6-13.9-28.8-33.1-30.8-57.6h39.2c1.5 14.9 7.2 26 17.2 33.4 8.8 6.6 20.5 9.9 35.2 9.9 15.9 0 29.5-5 40.7-15 11-10.2 16.5-23.7 16.5-40.3 0-18.3-4.8-32.6-14.3-42.9-9.5-10.3-23-15.4-40.3-15.4-12 0-22.1 2.1-30.4 6.2-9.3 4.2-16.5 11.1-21.6 20.9h-37.4l14.2-146.7z"  /><path d="M807.2 933.2H256.7c-60.7 0-110-49.3-110-110V272.7c0-60.7 49.3-110 110-110h550.5c60.7 0 110 49.3 110 110v550.5c0 60.7-49.4 110-110 110zM256.7 199.4c-40.4 0-73.3 32.9-73.3 73.3v550.5c0 40.4 32.9 73.3 73.3 73.3h550.5c40.4 0 73.3-32.9 73.3-73.3V272.7c0-40.4-32.9-73.3-73.3-73.3H256.7z"  /></svg>