<svg width="15" height="15" viewBox="0 0 15 15" fill="none" xmlns="http://www.w3.org/2000/svg">
<path d="M3.61476 11.0287L3.6297 10.9156H3.51562H1.78711C1.35689 10.9156 1.0082 10.5668 1.0082 10.1367C1.0082 9.70649 1.35688 9.35781 1.78711 9.35781H3.75H3.83755L3.84912 9.27103L4.31787 5.7554L4.33297 5.64219H4.21875H2.66602C2.23579 5.64219 1.88711 5.29341 1.88711 4.86328C1.88711 4.43305 2.23579 4.08437 2.66602 4.08437H4.45312H4.54079L4.55226 3.99747L4.96242 0.892L4.96328 0.892114V0.878906C4.96328 0.448676 5.31196 0.1 5.74219 0.1C6.17029 0.1 6.51764 0.445233 6.52107 0.872523L6.1118 3.97128L6.09686 4.08437H6.21094H9.72656H9.81422L9.8257 3.99747L10.2359 0.892L10.2367 0.892114V0.878906C10.2367 0.448676 10.5854 0.1 11.0156 0.1C11.4437 0.1 11.7911 0.445235 11.7945 0.872526L11.3852 3.97128L11.3703 4.08437H11.4844H13.2129C13.6431 4.08437 13.9918 4.43305 13.9918 4.86328C13.9918 5.29341 13.6431 5.64219 13.2129 5.64219H11.25H11.1624L11.1509 5.72897L10.6821 9.2446L10.667 9.35781H10.7812H12.334C12.7642 9.35781 13.1129 9.70649 13.1129 10.1367C13.1129 10.5668 12.7642 10.9156 12.334 10.9156H10.5469H10.4592L10.4477 11.0025L10.0376 14.108L10.0367 14.1079V14.1211C10.0367 14.5512 9.68803 14.9 9.25781 14.9C8.82972 14.9 8.48236 14.5547 8.47893 14.1275L8.8882 11.0287L8.90314 10.9156H8.78906H5.27344H5.18578L5.1743 11.0025L4.76414 14.108L4.76328 14.1079V14.1211C4.76328 14.5512 4.4146 14.9 3.98438 14.9C3.55628 14.9 3.20892 14.5547 3.20549 14.1275L3.61476 11.0287ZM5.97656 5.64219H5.88901L5.87744 5.72897L5.40869 9.2446L5.39359 9.35781H5.50781H9.02344H9.11099L9.12256 9.27103L9.59131 5.7554L9.60641 5.64219H9.49219H5.97656Z" fill="#03255A" stroke="#B9DEEF" stroke-width="0.2"/>
</svg>
