<svg width="21" height="21" viewBox="0 0 21 21" fill="none" xmlns="http://www.w3.org/2000/svg">
<path d="M14.2412 12.3544L11.3132 10.1585V5.68523C11.3132 5.23545 10.9496 4.87189 10.4999 4.87189C10.0501 4.87189 9.68652 5.23545 9.68652 5.68523V10.5652C9.68652 10.8214 9.8069 11.0629 10.0119 11.2159L13.2651 13.6558C13.4115 13.7656 13.5824 13.8185 13.7523 13.8185C14.0004 13.8185 14.2444 13.7071 14.4038 13.4923C14.6739 13.1336 14.6007 12.6237 14.2412 12.3544Z" fill="#03255A"/>
<path d="M10.5 0C4.70995 0 0 4.70995 0 10.5C0 16.2901 4.70995 21 10.5 21C16.2901 21 21 16.2901 21 10.5C21 4.70995 16.2901 0 10.5 0ZM10.5 19.3734C5.60786 19.3734 1.62664 15.3921 1.62664 10.5C1.62664 5.60786 5.60786 1.62664 10.5 1.62664C15.393 1.62664 19.3734 5.60786 19.3734 10.5C19.3734 15.3921 15.3921 19.3734 10.5 19.3734Z" fill="#03255A"/>
</svg>
