<svg width="15" height="15" viewBox="0 0 15 15" fill="none" xmlns="http://www.w3.org/2000/svg">
<rect x="0.5" y="0.5" width="14" height="14" rx="1.5" stroke="#03255A"/>
<path d="M4 3.5C3.72386 3.5 3.5 3.72386 3.5 4L3.5 8.5C3.5 8.77614 3.72386 9 4 9C4.27614 9 4.5 8.77614 4.5 8.5L4.5 4.5L8.5 4.5C8.77614 4.5 9 4.27614 9 4C9 3.72386 8.77614 3.5 8.5 3.5L4 3.5ZM11 11.5C11.2761 11.5 11.5 11.2761 11.5 11L11.5 6.5C11.5 6.22386 11.2761 6 11 6C10.7239 6 10.5 6.22386 10.5 6.5L10.5 10.5L6.5 10.5C6.22386 10.5 6 10.7239 6 11C6 11.2761 6.22386 11.5 6.5 11.5L11 11.5ZM3.64645 4.35355L10.6464 11.3536L11.3536 10.6464L4.35355 3.64645L3.64645 4.35355Z" fill="#03255A"/>
</svg>
