<svg width="16" height="21" viewBox="0 0 16 21" fill="none" xmlns="http://www.w3.org/2000/svg">
<path d="M15.1878 20.7919C14.7392 20.7919 14.3756 20.4283 14.3756 19.9797C14.3756 16.8001 11.7888 14.2132 8.60914 14.2132H7.39086C4.21121 14.2132 1.62437 16.8001 1.62437 19.9797C1.62437 20.4283 1.26075 20.7919 0.812183 20.7919C0.363614 20.7919 0 20.4283 0 19.9797C0 15.9044 3.31553 12.5889 7.39086 12.5889H8.60914C12.6845 12.5889 16 15.9044 16 19.9797C16 20.4283 15.6364 20.7919 15.1878 20.7919Z" fill="#03255A"/>
<path d="M7.91876 10.9645C4.89585 10.9645 2.43652 8.50514 2.43652 5.48223C2.43652 2.45933 4.89585 0 7.91876 0C10.9417 0 13.401 2.45933 13.401 5.48223C13.401 8.50514 10.9417 10.9645 7.91876 10.9645ZM7.91876 1.62437C5.79153 1.62437 4.06089 3.35501 4.06089 5.48223C4.06089 7.60946 5.79153 9.3401 7.91876 9.3401C10.046 9.3401 11.7766 7.60946 11.7766 5.48223C11.7766 3.35501 10.046 1.62437 7.91876 1.62437Z" fill="#03255A"/>
</svg>
