<svg width="255" height="168" viewBox="0 0 255 168" fill="none" xmlns="http://www.w3.org/2000/svg">
<path d="M255 168V137.577C255 137.194 254.956 136.811 254.868 136.438L249.632 114.062C249.544 113.689 249.5 113.306 249.5 112.923V87V66.5656C249.5 66.1897 249.542 65.8151 249.626 65.4487L254.874 42.5513C254.958 42.1849 255 41.8103 255 41.4344V0H5C2.23857 0 0 2.23858 0 5V40.9541C0 41.6439 0.142731 42.3262 0.419212 42.9582L6.58079 65.0418C6.85727 65.6738 7 66.3561 7 67.0459V87V112.434C7 113.017 6.89796 113.595 6.69939 114.141C6.6179 114.366 6.53228 114.589 6.467 114.818L0.532996 135.682C0.467722 135.911 0.382097 136.134 0.300612 136.359C0.102045 136.905 0 137.483 0 138.066V163C0 165.761 2.23858 168 5 168H32H225H255Z" fill="#B7DAEC"/>
<mask id="mask0_401_4331" style="mask-type:alpha" maskUnits="userSpaceOnUse" x="3" y="4" width="28" height="161">
<path d="M3 4H19.5H30.5V164.5H3V137.562L10 118V84.75V64.6875L3 44.125V4Z" fill="#F6F6F6"/>
</mask>
<g mask="url(#mask0_401_4331)">
<rect width="2" height="596.11" transform="matrix(0.633701 0.773578 -0.75803 0.652219 292.625 -224.586)" fill="#F6F6F6"/>
<rect width="2" height="596.11" transform="matrix(0.633701 0.773578 -0.75803 0.652219 308.149 -30.3911)" fill="#F6F6F6"/>
<rect width="2" height="596.11" transform="matrix(0.633701 0.773578 -0.75803 0.652219 300.391 -127.488)" fill="#F6F6F6"/>
<rect width="2" height="596.11" transform="matrix(0.633701 0.773578 -0.75803 0.652219 315.913 66.7075)" fill="#F6F6F6"/>
<rect width="2" height="596.11" transform="matrix(0.633701 0.773578 -0.75803 0.652219 296.508 -176.035)" fill="#F6F6F6"/>
<rect width="2" height="596.11" transform="matrix(0.633701 0.773578 -0.75803 0.652219 312.03 18.1572)" fill="#F6F6F6"/>
<rect width="2" height="596.11" transform="matrix(0.633701 0.773578 -0.75803 0.652219 304.27 -78.9385)" fill="#F6F6F6"/>
<rect width="2" height="596.11" transform="matrix(0.633701 0.773578 -0.75803 0.652219 319.792 115.255)" fill="#F6F6F6"/>
<rect width="2" height="596.11" transform="matrix(0.633701 0.773578 -0.75803 0.652219 294.573 -200.311)" fill="#F6F6F6"/>
<rect width="2" height="596.11" transform="matrix(0.633701 0.773578 -0.75803 0.652219 310.088 -6.11719)" fill="#F6F6F6"/>
<rect width="2" height="596.11" transform="matrix(0.633701 0.773578 -0.75803 0.652219 302.331 -103.214)" fill="#F6F6F6"/>
<rect width="2" height="596.11" transform="matrix(0.633701 0.773578 -0.75803 0.652219 317.85 90.9805)" fill="#F6F6F6"/>
<rect width="2" height="596.11" transform="matrix(0.633701 0.773578 -0.75803 0.652219 298.45 -151.762)" fill="#F6F6F6"/>
<rect width="2" height="596.11" transform="matrix(0.633701 0.773578 -0.75803 0.652219 313.971 42.4302)" fill="#F6F6F6"/>
<rect width="2" height="596.11" transform="matrix(0.633701 0.773578 -0.75803 0.652219 306.209 -54.666)" fill="#F6F6F6"/>
<rect width="2" height="596.11" transform="matrix(0.633701 0.773578 -0.75803 0.652219 321.733 139.528)" fill="#F6F6F6"/>
<rect width="2" height="596.11" transform="matrix(0.633701 0.773578 -0.75803 0.652219 293.276 -216.493)" fill="#F6F6F6"/>
<rect width="2" height="596.11" transform="matrix(0.633701 0.773578 -0.75803 0.652219 308.797 -22.3013)" fill="#F6F6F6"/>
<rect width="2" height="596.11" transform="matrix(0.633701 0.773578 -0.75803 0.652219 301.038 -119.398)" fill="#F6F6F6"/>
<rect width="2" height="596.11" transform="matrix(0.633701 0.773578 -0.75803 0.652219 316.559 74.7969)" fill="#F6F6F6"/>
<rect width="2" height="596.11" transform="matrix(0.633701 0.773578 -0.75803 0.652219 297.157 -167.945)" fill="#F6F6F6"/>
<rect width="2" height="596.11" transform="matrix(0.633701 0.773578 -0.75803 0.652219 312.678 26.2485)" fill="#F6F6F6"/>
<rect width="2" height="596.11" transform="matrix(0.633701 0.773578 -0.75803 0.652219 304.918 -70.8472)" fill="#F6F6F6"/>
<rect width="2" height="596.11" transform="matrix(0.633701 0.773578 -0.75803 0.652219 320.44 123.345)" fill="#F6F6F6"/>
<rect width="2" height="596.11" transform="matrix(0.633701 0.773578 -0.75803 0.652219 295.215 -192.221)" fill="#F6F6F6"/>
<rect width="2" height="596.11" transform="matrix(0.633701 0.773578 -0.75803 0.652219 310.737 1.97412)" fill="#F6F6F6"/>
<rect width="2" height="596.11" transform="matrix(0.633701 0.773578 -0.75803 0.652219 302.975 -95.1206)" fill="#F6F6F6"/>
<rect width="2" height="596.11" transform="matrix(0.633701 0.773578 -0.75803 0.652219 318.499 99.0713)" fill="#F6F6F6"/>
<rect width="2" height="596.11" transform="matrix(0.633701 0.773578 -0.75803 0.652219 299.094 -143.671)" fill="#F6F6F6"/>
<rect width="2" height="596.11" transform="matrix(0.633701 0.773578 -0.75803 0.652219 314.62 50.5225)" fill="#F6F6F6"/>
<rect width="2" height="596.11" transform="matrix(0.633701 0.773578 -0.75803 0.652219 306.858 -46.5732)" fill="#F6F6F6"/>
<rect width="2" height="596.11" transform="matrix(0.633701 0.773578 -0.75803 0.652219 322.379 147.621)" fill="#F6F6F6"/>
<rect width="2" height="596.11" transform="matrix(0.633701 0.773578 -0.75803 0.652219 293.918 -208.402)" fill="#F6F6F6"/>
<rect width="2" height="596.11" transform="matrix(0.633701 0.773578 -0.75803 0.652219 292.624 -250.463)" fill="#F6F6F6"/>
<rect width="2" height="596.11" transform="matrix(0.633701 0.773578 -0.75803 0.652219 293.273 -242.37)" fill="#F6F6F6"/>
<rect width="2" height="596.11" transform="matrix(0.633701 0.773578 -0.75803 0.652219 293.916 -234.279)" fill="#F6F6F6"/>
<rect width="2" height="596.11" transform="matrix(0.633701 0.773578 -0.75803 0.652219 309.442 -14.2085)" fill="#F6F6F6"/>
<rect width="2" height="596.11" transform="matrix(0.633701 0.773578 -0.75803 0.652219 301.684 -111.306)" fill="#F6F6F6"/>
<rect width="2" height="596.11" transform="matrix(0.633701 0.773578 -0.75803 0.652219 317.206 82.8887)" fill="#F6F6F6"/>
<rect width="2" height="596.11" transform="matrix(0.633701 0.773578 -0.75803 0.652219 297.803 -159.853)" fill="#F6F6F6"/>
<rect width="2" height="596.11" transform="matrix(0.633701 0.773578 -0.75803 0.652219 313.321 34.3408)" fill="#F6F6F6"/>
<rect width="2" height="596.11" transform="matrix(0.633701 0.773578 -0.75803 0.652219 305.561 -62.7568)" fill="#F6F6F6"/>
<rect width="2" height="596.11" transform="matrix(0.633701 0.773578 -0.75803 0.652219 321.086 131.437)" fill="#F6F6F6"/>
<rect width="2" height="596.11" transform="matrix(0.633701 0.773578 -0.75803 0.652219 295.864 -184.128)" fill="#F6F6F6"/>
<rect width="2" height="596.11" transform="matrix(0.633701 0.773578 -0.75803 0.652219 311.387 10.0669)" fill="#F6F6F6"/>
<rect width="2" height="596.11" transform="matrix(0.633701 0.773578 -0.75803 0.652219 303.62 -87.0312)" fill="#F6F6F6"/>
<rect width="2" height="596.11" transform="matrix(0.633701 0.773578 -0.75803 0.652219 319.143 107.164)" fill="#F6F6F6"/>
<rect width="2" height="596.11" transform="matrix(0.633701 0.773578 -0.75803 0.652219 299.741 -135.58)" fill="#F6F6F6"/>
<rect width="2" height="596.11" transform="matrix(0.633701 0.773578 -0.75803 0.652219 315.264 58.6152)" fill="#F6F6F6"/>
<rect width="2" height="596.11" transform="matrix(0.633701 0.773578 -0.75803 0.652219 307.504 -38.4844)" fill="#F6F6F6"/>
<rect width="2" height="596.11" transform="matrix(0.633701 0.773578 -0.75803 0.652219 323.026 155.712)" fill="#F6F6F6"/>
</g>
<mask id="mask1_401_4331" style="mask-type:alpha" maskUnits="userSpaceOnUse" x="224" y="4" width="28" height="161">
<path d="M251.5 4H235H224V164.5H251.5V137.562L244.5 118V84.75V64.6875L251.5 44.125V4Z" fill="#F6F6F6"/>
</mask>
<g mask="url(#mask1_401_4331)">
<rect width="2" height="596.11" transform="matrix(-0.633701 0.773578 0.75803 0.652219 -38.1255 -224.586)" fill="#F6F6F6"/>
<rect width="2" height="596.11" transform="matrix(-0.633701 0.773578 0.75803 0.652219 -53.6489 -30.3911)" fill="#F6F6F6"/>
<rect width="2" height="596.11" transform="matrix(-0.633701 0.773578 0.75803 0.652219 -45.8911 -127.488)" fill="#F6F6F6"/>
<rect width="2" height="596.11" transform="matrix(-0.633701 0.773578 0.75803 0.652219 -61.4126 66.7075)" fill="#F6F6F6"/>
<rect width="2" height="596.11" transform="matrix(-0.633701 0.773578 0.75803 0.652219 -42.0083 -176.035)" fill="#F6F6F6"/>
<rect width="2" height="596.11" transform="matrix(-0.633701 0.773578 0.75803 0.652219 -57.5298 18.1572)" fill="#F6F6F6"/>
<rect width="2" height="596.11" transform="matrix(-0.633701 0.773578 0.75803 0.652219 -49.77 -78.9385)" fill="#F6F6F6"/>
<rect width="2" height="596.11" transform="matrix(-0.633701 0.773578 0.75803 0.652219 -65.2917 115.255)" fill="#F6F6F6"/>
<rect width="2" height="596.11" transform="matrix(-0.633701 0.773578 0.75803 0.652219 -40.0728 -200.311)" fill="#F6F6F6"/>
<rect width="2" height="596.11" transform="matrix(-0.633701 0.773578 0.75803 0.652219 -55.5884 -6.11719)" fill="#F6F6F6"/>
<rect width="2" height="596.11" transform="matrix(-0.633701 0.773578 0.75803 0.652219 -47.8306 -103.214)" fill="#F6F6F6"/>
<rect width="2" height="596.11" transform="matrix(-0.633701 0.773578 0.75803 0.652219 -63.3501 90.9805)" fill="#F6F6F6"/>
<rect width="2" height="596.11" transform="matrix(-0.633701 0.773578 0.75803 0.652219 -43.9497 -151.762)" fill="#F6F6F6"/>
<rect width="2" height="596.11" transform="matrix(-0.633701 0.773578 0.75803 0.652219 -59.4712 42.4302)" fill="#F6F6F6"/>
<rect width="2" height="596.11" transform="matrix(-0.633701 0.773578 0.75803 0.652219 -51.7095 -54.666)" fill="#F6F6F6"/>
<rect width="2" height="596.11" transform="matrix(-0.633701 0.773578 0.75803 0.652219 -67.2329 139.528)" fill="#F6F6F6"/>
<rect width="2" height="596.11" transform="matrix(-0.633701 0.773578 0.75803 0.652219 -38.7759 -216.493)" fill="#F6F6F6"/>
<rect width="2" height="596.11" transform="matrix(-0.633701 0.773578 0.75803 0.652219 -54.2974 -22.3013)" fill="#F6F6F6"/>
<rect width="2" height="596.11" transform="matrix(-0.633701 0.773578 0.75803 0.652219 -46.5376 -119.398)" fill="#F6F6F6"/>
<rect width="2" height="596.11" transform="matrix(-0.633701 0.773578 0.75803 0.652219 -62.0593 74.7969)" fill="#F6F6F6"/>
<rect width="2" height="596.11" transform="matrix(-0.633701 0.773578 0.75803 0.652219 -42.6567 -167.945)" fill="#F6F6F6"/>
<rect width="2" height="596.11" transform="matrix(-0.633701 0.773578 0.75803 0.652219 -58.1782 26.2485)" fill="#F6F6F6"/>
<rect width="2" height="596.11" transform="matrix(-0.633701 0.773578 0.75803 0.652219 -50.4185 -70.8472)" fill="#F6F6F6"/>
<rect width="2" height="596.11" transform="matrix(-0.633701 0.773578 0.75803 0.652219 -65.9399 123.345)" fill="#F6F6F6"/>
<rect width="2" height="596.11" transform="matrix(-0.633701 0.773578 0.75803 0.652219 -40.7153 -192.221)" fill="#F6F6F6"/>
<rect width="2" height="596.11" transform="matrix(-0.633701 0.773578 0.75803 0.652219 -56.2368 1.97412)" fill="#F6F6F6"/>
<rect width="2" height="596.11" transform="matrix(-0.633701 0.773578 0.75803 0.652219 -48.4751 -95.1206)" fill="#F6F6F6"/>
<rect width="2" height="596.11" transform="matrix(-0.633701 0.773578 0.75803 0.652219 -63.9985 99.0713)" fill="#F6F6F6"/>
<rect width="2" height="596.11" transform="matrix(-0.633701 0.773578 0.75803 0.652219 -44.5942 -143.671)" fill="#F6F6F6"/>
<rect width="2" height="596.11" transform="matrix(-0.633701 0.773578 0.75803 0.652219 -60.1199 50.5225)" fill="#F6F6F6"/>
<rect width="2" height="596.11" transform="matrix(-0.633701 0.773578 0.75803 0.652219 -52.3579 -46.5732)" fill="#F6F6F6"/>
<rect width="2" height="596.11" transform="matrix(-0.633701 0.773578 0.75803 0.652219 -67.8794 147.621)" fill="#F6F6F6"/>
<rect width="2" height="596.11" transform="matrix(-0.633701 0.773578 0.75803 0.652219 -39.4185 -208.402)" fill="#F6F6F6"/>
<rect width="2" height="596.11" transform="matrix(-0.633701 0.773578 0.75803 0.652219 -38.1238 -250.463)" fill="#F6F6F6"/>
<rect width="2" height="596.11" transform="matrix(-0.633701 0.773578 0.75803 0.652219 -38.7732 -242.37)" fill="#F6F6F6"/>
<rect width="2" height="596.11" transform="matrix(-0.633701 0.773578 0.75803 0.652219 -39.4158 -234.279)" fill="#F6F6F6"/>
<rect width="2" height="596.11" transform="matrix(-0.633701 0.773578 0.75803 0.652219 -54.9419 -14.2085)" fill="#F6F6F6"/>
<rect width="2" height="596.11" transform="matrix(-0.633701 0.773578 0.75803 0.652219 -47.1841 -111.306)" fill="#F6F6F6"/>
<rect width="2" height="596.11" transform="matrix(-0.633701 0.773578 0.75803 0.652219 -62.7056 82.8887)" fill="#F6F6F6"/>
<rect width="2" height="596.11" transform="matrix(-0.633701 0.773578 0.75803 0.652219 -43.3032 -159.853)" fill="#F6F6F6"/>
<rect width="2" height="596.11" transform="matrix(-0.633701 0.773578 0.75803 0.652219 -58.8208 34.3408)" fill="#F6F6F6"/>
<rect width="2" height="596.11" transform="matrix(-0.633701 0.773578 0.75803 0.652219 -51.061 -62.7568)" fill="#F6F6F6"/>
<rect width="2" height="596.11" transform="matrix(-0.633701 0.773578 0.75803 0.652219 -66.5864 131.437)" fill="#F6F6F6"/>
<rect width="2" height="596.11" transform="matrix(-0.633701 0.773578 0.75803 0.652219 -41.3638 -184.128)" fill="#F6F6F6"/>
<rect width="2" height="596.11" transform="matrix(-0.633701 0.773578 0.75803 0.652219 -56.8872 10.0669)" fill="#F6F6F6"/>
<rect width="2" height="596.11" transform="matrix(-0.633701 0.773578 0.75803 0.652219 -49.1196 -87.0312)" fill="#F6F6F6"/>
<rect width="2" height="596.11" transform="matrix(-0.633701 0.773578 0.75803 0.652219 -64.6431 107.164)" fill="#F6F6F6"/>
<rect width="2" height="596.11" transform="matrix(-0.633701 0.773578 0.75803 0.652219 -45.2407 -135.58)" fill="#F6F6F6"/>
<rect width="2" height="596.11" transform="matrix(-0.633701 0.773578 0.75803 0.652219 -60.7644 58.6152)" fill="#F6F6F6"/>
<rect width="2" height="596.11" transform="matrix(-0.633701 0.773578 0.75803 0.652219 -53.0044 -38.4844)" fill="#F6F6F6"/>
<rect width="2" height="596.11" transform="matrix(-0.633701 0.773578 0.75803 0.652219 -68.5261 155.712)" fill="#F6F6F6"/>
</g>
</svg>
