<svg width="255" height="169" viewBox="0 0 255 169" fill="none" xmlns="http://www.w3.org/2000/svg">
<path d="M250 0.5H23.3167C22.1431 0.5 21.0069 0.912831 20.107 1.66621L1.79032 17.0011C0.655588 17.9511 0 19.355 0 20.8349V163.5C0 166.261 2.23858 168.5 5 168.5H225H250C252.761 168.5 255 166.261 255 163.5V138.566C255 137.863 254.852 137.168 254.565 136.527L244.935 114.973C244.648 114.332 244.5 113.637 244.5 112.934V87.5V67.5459C244.5 66.8561 244.643 66.1738 244.919 65.5418L254.581 43.4582C254.857 42.8262 255 42.1439 255 41.4541V5.5C255 2.73858 252.761 0.5 250 0.5Z" fill="#B7DAEC"/>
<mask id="mask0_401_4330" style="mask-type:alpha" maskUnits="userSpaceOnUse" x="5" y="4" width="28" height="161">
<path d="M5 18.5L20.0842 5.24418C20.9967 4.44227 22.17 4 23.3848 4H32.5V164.5H5V18.5Z" fill="#F6F6F6"/>
</mask>
<g mask="url(#mask0_401_4330)">
<rect width="2" height="596.11" transform="matrix(0.633701 0.773578 -0.75803 0.652219 294.624 -225.586)" fill="#F6F6F6"/>
<rect width="2" height="596.11" transform="matrix(0.633701 0.773578 -0.75803 0.652219 310.148 -31.3916)" fill="#F6F6F6"/>
<rect width="2" height="596.11" transform="matrix(0.633701 0.773578 -0.75803 0.652219 302.392 -128.489)" fill="#F6F6F6"/>
<rect width="2" height="596.11" transform="matrix(0.633701 0.773578 -0.75803 0.652219 317.913 65.707)" fill="#F6F6F6"/>
<rect width="2" height="596.11" transform="matrix(0.633701 0.773578 -0.75803 0.652219 298.507 -177.035)" fill="#F6F6F6"/>
<rect width="2" height="596.11" transform="matrix(0.633701 0.773578 -0.75803 0.652219 314.029 17.1567)" fill="#F6F6F6"/>
<rect width="2" height="596.11" transform="matrix(0.633701 0.773578 -0.75803 0.652219 306.269 -79.939)" fill="#F6F6F6"/>
<rect width="2" height="596.11" transform="matrix(0.633701 0.773578 -0.75803 0.652219 321.792 114.255)" fill="#F6F6F6"/>
<rect width="2" height="596.11" transform="matrix(0.633701 0.773578 -0.75803 0.652219 296.572 -201.312)" fill="#F6F6F6"/>
<rect width="2" height="596.11" transform="matrix(0.633701 0.773578 -0.75803 0.652219 312.087 -7.11719)" fill="#F6F6F6"/>
<rect width="2" height="596.11" transform="matrix(0.633701 0.773578 -0.75803 0.652219 304.331 -104.214)" fill="#F6F6F6"/>
<rect width="2" height="596.11" transform="matrix(0.633701 0.773578 -0.75803 0.652219 319.849 89.9805)" fill="#F6F6F6"/>
<rect width="2" height="596.11" transform="matrix(0.633701 0.773578 -0.75803 0.652219 300.45 -152.762)" fill="#F6F6F6"/>
<rect width="2" height="596.11" transform="matrix(0.633701 0.773578 -0.75803 0.652219 315.97 41.4302)" fill="#F6F6F6"/>
<rect width="2" height="596.11" transform="matrix(0.633701 0.773578 -0.75803 0.652219 308.21 -55.6665)" fill="#F6F6F6"/>
<rect width="2" height="596.11" transform="matrix(0.633701 0.773578 -0.75803 0.652219 323.734 138.528)" fill="#F6F6F6"/>
<rect width="2" height="596.11" transform="matrix(0.633701 0.773578 -0.75803 0.652219 295.275 -217.493)" fill="#F6F6F6"/>
<rect width="2" height="596.11" transform="matrix(0.633701 0.773578 -0.75803 0.652219 310.798 -23.3018)" fill="#F6F6F6"/>
<rect width="2" height="596.11" transform="matrix(0.633701 0.773578 -0.75803 0.652219 303.036 -120.398)" fill="#F6F6F6"/>
<rect width="2" height="596.11" transform="matrix(0.633701 0.773578 -0.75803 0.652219 318.56 73.7969)" fill="#F6F6F6"/>
<rect width="2" height="596.11" transform="matrix(0.633701 0.773578 -0.75803 0.652219 299.156 -168.945)" fill="#F6F6F6"/>
<rect width="2" height="596.11" transform="matrix(0.633701 0.773578 -0.75803 0.652219 314.679 25.2485)" fill="#F6F6F6"/>
<rect width="2" height="596.11" transform="matrix(0.633701 0.773578 -0.75803 0.652219 306.917 -71.8477)" fill="#F6F6F6"/>
<rect width="2" height="596.11" transform="matrix(0.633701 0.773578 -0.75803 0.652219 322.441 122.345)" fill="#F6F6F6"/>
<rect width="2" height="596.11" transform="matrix(0.633701 0.773578 -0.75803 0.652219 297.216 -193.221)" fill="#F6F6F6"/>
<rect width="2" height="596.11" transform="matrix(0.633701 0.773578 -0.75803 0.652219 312.736 0.974121)" fill="#F6F6F6"/>
<rect width="2" height="596.11" transform="matrix(0.633701 0.773578 -0.75803 0.652219 304.974 -96.1206)" fill="#F6F6F6"/>
<rect width="2" height="596.11" transform="matrix(0.633701 0.773578 -0.75803 0.652219 320.497 98.0708)" fill="#F6F6F6"/>
<rect width="2" height="596.11" transform="matrix(0.633701 0.773578 -0.75803 0.652219 301.093 -144.671)" fill="#F6F6F6"/>
<rect width="2" height="596.11" transform="matrix(0.633701 0.773578 -0.75803 0.652219 316.62 49.5225)" fill="#F6F6F6"/>
<rect width="2" height="596.11" transform="matrix(0.633701 0.773578 -0.75803 0.652219 308.859 -47.5737)" fill="#F6F6F6"/>
<rect width="2" height="596.11" transform="matrix(0.633701 0.773578 -0.75803 0.652219 324.38 146.621)" fill="#F6F6F6"/>
<rect width="2" height="596.11" transform="matrix(0.633701 0.773578 -0.75803 0.652219 295.917 -209.403)" fill="#F6F6F6"/>
<rect width="2" height="596.11" transform="matrix(0.633701 0.773578 -0.75803 0.652219 311.441 -15.209)" fill="#F6F6F6"/>
<rect width="2" height="596.11" transform="matrix(0.633701 0.773578 -0.75803 0.652219 303.685 -112.307)" fill="#F6F6F6"/>
<rect width="2" height="596.11" transform="matrix(0.633701 0.773578 -0.75803 0.652219 319.206 81.8882)" fill="#F6F6F6"/>
<rect width="2" height="596.11" transform="matrix(0.633701 0.773578 -0.75803 0.652219 299.802 -160.853)" fill="#F6F6F6"/>
<rect width="2" height="596.11" transform="matrix(0.633701 0.773578 -0.75803 0.652219 315.32 33.3408)" fill="#F6F6F6"/>
<rect width="2" height="596.11" transform="matrix(0.633701 0.773578 -0.75803 0.652219 307.56 -63.7573)" fill="#F6F6F6"/>
<rect width="2" height="596.11" transform="matrix(0.633701 0.773578 -0.75803 0.652219 323.087 130.437)" fill="#F6F6F6"/>
<rect width="2" height="596.11" transform="matrix(0.633701 0.773578 -0.75803 0.652219 297.865 -185.128)" fill="#F6F6F6"/>
<rect width="2" height="596.11" transform="matrix(0.633701 0.773578 -0.75803 0.652219 313.388 9.06641)" fill="#F6F6F6"/>
<rect width="2" height="596.11" transform="matrix(0.633701 0.773578 -0.75803 0.652219 305.618 -88.0312)" fill="#F6F6F6"/>
<rect width="2" height="596.11" transform="matrix(0.633701 0.773578 -0.75803 0.652219 321.142 106.163)" fill="#F6F6F6"/>
<rect width="2" height="596.11" transform="matrix(0.633701 0.773578 -0.75803 0.652219 301.74 -136.58)" fill="#F6F6F6"/>
<rect width="2" height="596.11" transform="matrix(0.633701 0.773578 -0.75803 0.652219 317.265 57.6147)" fill="#F6F6F6"/>
<rect width="2" height="596.11" transform="matrix(0.633701 0.773578 -0.75803 0.652219 309.505 -39.4844)" fill="#F6F6F6"/>
<rect width="2" height="596.11" transform="matrix(0.633701 0.773578 -0.75803 0.652219 325.027 154.712)" fill="#F6F6F6"/>
</g>
<path d="M241 0L241 50.5L234 66L234 84.5L234 113L241 128L241 169" stroke="#F6F6F6"/>
</svg>
