<svg width="44" height="44" viewBox="0 0 44 44" fill="none" xmlns="http://www.w3.org/2000/svg">
<mask id="path-1-outside-1_13_15833" maskUnits="userSpaceOnUse" x="-0.148438" y="0" width="44" height="44" fill="black">
<rect fill="white" x="-0.148438" width="44" height="44"/>
<path d="M4.13281 1C2.32693 1 0.851562 2.47538 0.851562 4.28125C0.851562 5.91189 2.05762 7.26567 3.62062 7.51448V18.7668C2.05691 19.015 0.851562 20.3688 0.851562 22C0.851562 23.6307 2.05763 24.9844 3.62062 25.2332V36.4855C2.05691 36.7337 0.851562 38.0876 0.851562 39.7188C0.851562 41.5246 2.32694 43 4.13281 43C5.76637 43 7.12079 41.798 7.36604 40.2309H18.6183C18.8636 41.798 20.218 43 21.8516 43C23.4851 43 24.8395 41.798 25.0848 40.2309H36.3371C36.5823 41.798 37.9367 43 39.5703 43C41.3762 43 42.8516 41.5246 42.8516 39.7188C42.8516 38.0876 41.6462 36.7337 40.0825 36.4855V25.2332C41.6455 24.9844 42.8516 23.6307 42.8516 22C42.8516 20.3689 41.6462 19.015 40.0825 18.7668V7.51448C41.6455 7.26567 42.8516 5.91189 42.8516 4.28125C42.8516 2.47538 41.3762 1 39.5703 1C37.942 1 36.5887 2.20935 36.3371 3.76905H25.0848C24.8332 2.20935 23.4799 1 21.8516 1C20.2233 1 18.87 2.20935 18.6183 3.76905H7.36604C7.1144 2.20935 5.76111 1 4.13281 1ZM4.13281 2.02439C5.38507 2.02439 6.38967 3.029 6.38967 4.28125C6.38967 5.53351 5.38507 6.53811 4.13281 6.53811C2.88055 6.53811 1.87595 5.53351 1.87595 4.28125C1.87595 3.029 2.88055 2.02439 4.13281 2.02439ZM21.8516 2.02439C23.1038 2.02439 24.1084 3.029 24.1084 4.28125C24.1084 5.53351 23.1038 6.53811 21.8516 6.53811C20.5993 6.53811 19.5947 5.53351 19.5947 4.28125C19.5947 3.029 20.5993 2.02439 21.8516 2.02439ZM39.5703 2.02439C40.8226 2.02439 41.8272 3.029 41.8272 4.28125C41.8272 5.53351 40.8226 6.53811 39.5703 6.53811C38.3181 6.53811 37.3135 5.53351 37.3135 4.28125C37.3135 3.029 38.3181 2.02439 39.5703 2.02439ZM7.36604 4.79345H18.6183C18.8636 6.36053 20.218 7.5625 21.8516 7.5625C23.4851 7.5625 24.8395 6.36053 25.0848 4.79345H36.3371C36.556 6.19243 37.6603 7.29196 39.0581 7.51448V18.7668C37.4944 19.015 36.2891 20.3688 36.2891 22C36.2891 23.6307 37.4951 24.9844 39.0581 25.2332V36.4855C37.6646 36.7067 36.5617 37.8142 36.3371 39.2066H25.0848C24.8332 37.6468 23.4799 36.4375 21.8516 36.4375C20.2233 36.4375 18.87 37.6468 18.6183 39.2066H7.36604C7.1414 37.8142 6.03847 36.7067 4.64501 36.4855V25.2332C6.20799 24.9844 7.41406 23.6307 7.41406 22C7.41406 20.3689 6.20871 19.015 4.64501 18.7668V7.51448C6.04284 7.29196 7.1471 6.19243 7.36604 4.79345ZM17.3218 17.0541C17.2314 17.0731 17.1478 17.1162 17.0799 17.1788C17.012 17.2415 16.9622 17.3213 16.936 17.4099C16.9097 17.4985 16.908 17.5925 16.9308 17.6821C16.9536 17.7716 17.0003 17.8533 17.0657 17.9184L21.1313 22L17.0657 26.0655C17.0098 26.1107 16.9639 26.167 16.9312 26.231C16.8984 26.295 16.8795 26.3652 16.8756 26.437C16.8718 26.5088 16.8831 26.5806 16.9088 26.6477C16.9345 26.7148 16.9741 26.7758 17.0249 26.8266C17.0758 26.8775 17.1367 26.917 17.2039 26.9427C17.271 26.9685 17.3428 26.9798 17.4146 26.9759C17.4864 26.9721 17.5565 26.9532 17.6205 26.9204C17.6845 26.8877 17.7409 26.8418 17.786 26.7858L21.8516 22.7203L25.9171 26.7858C25.9622 26.8418 26.0186 26.8877 26.0826 26.9204C26.1466 26.9532 26.2168 26.9721 26.2885 26.9759C26.3603 26.9798 26.4321 26.9685 26.4993 26.9427C26.5664 26.917 26.6273 26.8775 26.6782 26.8266C26.729 26.7758 26.7686 26.7148 26.7943 26.6477C26.82 26.5806 26.8313 26.5088 26.8275 26.437C26.8236 26.3652 26.8047 26.295 26.772 26.231C26.7392 26.167 26.6934 26.1107 26.6374 26.0655L22.5718 22L26.6374 17.9184C26.7153 17.8406 26.766 17.7398 26.7821 17.6309C26.7982 17.5219 26.7787 17.4107 26.7266 17.3137C26.6745 17.2167 26.5926 17.1391 26.4929 17.0923C26.3932 17.0456 26.2811 17.0322 26.1732 17.0541C26.0756 17.0761 25.9866 17.1262 25.9171 17.1982L21.8516 21.2637L17.786 17.1982C17.7266 17.1376 17.6531 17.0927 17.5721 17.0676C17.4911 17.0424 17.4051 17.0378 17.3218 17.0541ZM4.13281 19.7431C5.38506 19.7431 6.38967 20.7477 6.38967 22C6.38967 23.2523 5.38508 24.2569 4.13281 24.2569C2.88054 24.2569 1.87595 23.2523 1.87595 22C1.87595 20.7477 2.88055 19.7431 4.13281 19.7431ZM39.5703 19.7431C40.8226 19.7431 41.8272 20.7477 41.8272 22C41.8272 23.2523 40.8226 24.2569 39.5703 24.2569C38.318 24.2569 37.3135 23.2523 37.3135 22C37.3135 20.7477 38.3181 19.7431 39.5703 19.7431ZM4.13281 37.4619C5.38506 37.4619 6.38967 38.4665 6.38967 39.7188C6.38967 40.971 5.38508 41.9756 4.13281 41.9756C2.88054 41.9756 1.87595 40.971 1.87595 39.7188C1.87595 38.4665 2.88055 37.4619 4.13281 37.4619ZM21.8516 37.4619C23.1038 37.4619 24.1084 38.4665 24.1084 39.7188C24.1084 40.971 23.1038 41.9756 21.8516 41.9756C20.5993 41.9756 19.5947 40.971 19.5947 39.7188C19.5947 38.4665 20.5993 37.4619 21.8516 37.4619ZM39.5703 37.4619C40.8226 37.4619 41.8272 38.4665 41.8272 39.7188C41.8272 40.971 40.8226 41.9756 39.5703 41.9756C38.318 41.9756 37.3135 40.971 37.3135 39.7188C37.3135 38.4665 38.3181 37.4619 39.5703 37.4619Z"/>
</mask>
<path d="M4.13281 1C2.32693 1 0.851562 2.47538 0.851562 4.28125C0.851562 5.91189 2.05762 7.26567 3.62062 7.51448V18.7668C2.05691 19.015 0.851562 20.3688 0.851562 22C0.851562 23.6307 2.05763 24.9844 3.62062 25.2332V36.4855C2.05691 36.7337 0.851562 38.0876 0.851562 39.7188C0.851562 41.5246 2.32694 43 4.13281 43C5.76637 43 7.12079 41.798 7.36604 40.2309H18.6183C18.8636 41.798 20.218 43 21.8516 43C23.4851 43 24.8395 41.798 25.0848 40.2309H36.3371C36.5823 41.798 37.9367 43 39.5703 43C41.3762 43 42.8516 41.5246 42.8516 39.7188C42.8516 38.0876 41.6462 36.7337 40.0825 36.4855V25.2332C41.6455 24.9844 42.8516 23.6307 42.8516 22C42.8516 20.3689 41.6462 19.015 40.0825 18.7668V7.51448C41.6455 7.26567 42.8516 5.91189 42.8516 4.28125C42.8516 2.47538 41.3762 1 39.5703 1C37.942 1 36.5887 2.20935 36.3371 3.76905H25.0848C24.8332 2.20935 23.4799 1 21.8516 1C20.2233 1 18.87 2.20935 18.6183 3.76905H7.36604C7.1144 2.20935 5.76111 1 4.13281 1ZM4.13281 2.02439C5.38507 2.02439 6.38967 3.029 6.38967 4.28125C6.38967 5.53351 5.38507 6.53811 4.13281 6.53811C2.88055 6.53811 1.87595 5.53351 1.87595 4.28125C1.87595 3.029 2.88055 2.02439 4.13281 2.02439ZM21.8516 2.02439C23.1038 2.02439 24.1084 3.029 24.1084 4.28125C24.1084 5.53351 23.1038 6.53811 21.8516 6.53811C20.5993 6.53811 19.5947 5.53351 19.5947 4.28125C19.5947 3.029 20.5993 2.02439 21.8516 2.02439ZM39.5703 2.02439C40.8226 2.02439 41.8272 3.029 41.8272 4.28125C41.8272 5.53351 40.8226 6.53811 39.5703 6.53811C38.3181 6.53811 37.3135 5.53351 37.3135 4.28125C37.3135 3.029 38.3181 2.02439 39.5703 2.02439ZM7.36604 4.79345H18.6183C18.8636 6.36053 20.218 7.5625 21.8516 7.5625C23.4851 7.5625 24.8395 6.36053 25.0848 4.79345H36.3371C36.556 6.19243 37.6603 7.29196 39.0581 7.51448V18.7668C37.4944 19.015 36.2891 20.3688 36.2891 22C36.2891 23.6307 37.4951 24.9844 39.0581 25.2332V36.4855C37.6646 36.7067 36.5617 37.8142 36.3371 39.2066H25.0848C24.8332 37.6468 23.4799 36.4375 21.8516 36.4375C20.2233 36.4375 18.87 37.6468 18.6183 39.2066H7.36604C7.1414 37.8142 6.03847 36.7067 4.64501 36.4855V25.2332C6.20799 24.9844 7.41406 23.6307 7.41406 22C7.41406 20.3689 6.20871 19.015 4.64501 18.7668V7.51448C6.04284 7.29196 7.1471 6.19243 7.36604 4.79345ZM17.3218 17.0541C17.2314 17.0731 17.1478 17.1162 17.0799 17.1788C17.012 17.2415 16.9622 17.3213 16.936 17.4099C16.9097 17.4985 16.908 17.5925 16.9308 17.6821C16.9536 17.7716 17.0003 17.8533 17.0657 17.9184L21.1313 22L17.0657 26.0655C17.0098 26.1107 16.9639 26.167 16.9312 26.231C16.8984 26.295 16.8795 26.3652 16.8756 26.437C16.8718 26.5088 16.8831 26.5806 16.9088 26.6477C16.9345 26.7148 16.9741 26.7758 17.0249 26.8266C17.0758 26.8775 17.1367 26.917 17.2039 26.9427C17.271 26.9685 17.3428 26.9798 17.4146 26.9759C17.4864 26.9721 17.5565 26.9532 17.6205 26.9204C17.6845 26.8877 17.7409 26.8418 17.786 26.7858L21.8516 22.7203L25.9171 26.7858C25.9622 26.8418 26.0186 26.8877 26.0826 26.9204C26.1466 26.9532 26.2168 26.9721 26.2885 26.9759C26.3603 26.9798 26.4321 26.9685 26.4993 26.9427C26.5664 26.917 26.6273 26.8775 26.6782 26.8266C26.729 26.7758 26.7686 26.7148 26.7943 26.6477C26.82 26.5806 26.8313 26.5088 26.8275 26.437C26.8236 26.3652 26.8047 26.295 26.772 26.231C26.7392 26.167 26.6934 26.1107 26.6374 26.0655L22.5718 22L26.6374 17.9184C26.7153 17.8406 26.766 17.7398 26.7821 17.6309C26.7982 17.5219 26.7787 17.4107 26.7266 17.3137C26.6745 17.2167 26.5926 17.1391 26.4929 17.0923C26.3932 17.0456 26.2811 17.0322 26.1732 17.0541C26.0756 17.0761 25.9866 17.1262 25.9171 17.1982L21.8516 21.2637L17.786 17.1982C17.7266 17.1376 17.6531 17.0927 17.5721 17.0676C17.4911 17.0424 17.4051 17.0378 17.3218 17.0541ZM4.13281 19.7431C5.38506 19.7431 6.38967 20.7477 6.38967 22C6.38967 23.2523 5.38508 24.2569 4.13281 24.2569C2.88054 24.2569 1.87595 23.2523 1.87595 22C1.87595 20.7477 2.88055 19.7431 4.13281 19.7431ZM39.5703 19.7431C40.8226 19.7431 41.8272 20.7477 41.8272 22C41.8272 23.2523 40.8226 24.2569 39.5703 24.2569C38.318 24.2569 37.3135 23.2523 37.3135 22C37.3135 20.7477 38.3181 19.7431 39.5703 19.7431ZM4.13281 37.4619C5.38506 37.4619 6.38967 38.4665 6.38967 39.7188C6.38967 40.971 5.38508 41.9756 4.13281 41.9756C2.88054 41.9756 1.87595 40.971 1.87595 39.7188C1.87595 38.4665 2.88055 37.4619 4.13281 37.4619ZM21.8516 37.4619C23.1038 37.4619 24.1084 38.4665 24.1084 39.7188C24.1084 40.971 23.1038 41.9756 21.8516 41.9756C20.5993 41.9756 19.5947 40.971 19.5947 39.7188C19.5947 38.4665 20.5993 37.4619 21.8516 37.4619ZM39.5703 37.4619C40.8226 37.4619 41.8272 38.4665 41.8272 39.7188C41.8272 40.971 40.8226 41.9756 39.5703 41.9756C38.318 41.9756 37.3135 40.971 37.3135 39.7188C37.3135 38.4665 38.3181 37.4619 39.5703 37.4619Z" fill="#8EC8E1"/>
<path d="M4.13281 1C2.32693 1 0.851562 2.47538 0.851562 4.28125C0.851562 5.91189 2.05762 7.26567 3.62062 7.51448V18.7668C2.05691 19.015 0.851562 20.3688 0.851562 22C0.851562 23.6307 2.05763 24.9844 3.62062 25.2332V36.4855C2.05691 36.7337 0.851562 38.0876 0.851562 39.7188C0.851562 41.5246 2.32694 43 4.13281 43C5.76637 43 7.12079 41.798 7.36604 40.2309H18.6183C18.8636 41.798 20.218 43 21.8516 43C23.4851 43 24.8395 41.798 25.0848 40.2309H36.3371C36.5823 41.798 37.9367 43 39.5703 43C41.3762 43 42.8516 41.5246 42.8516 39.7188C42.8516 38.0876 41.6462 36.7337 40.0825 36.4855V25.2332C41.6455 24.9844 42.8516 23.6307 42.8516 22C42.8516 20.3689 41.6462 19.015 40.0825 18.7668V7.51448C41.6455 7.26567 42.8516 5.91189 42.8516 4.28125C42.8516 2.47538 41.3762 1 39.5703 1C37.942 1 36.5887 2.20935 36.3371 3.76905H25.0848C24.8332 2.20935 23.4799 1 21.8516 1C20.2233 1 18.87 2.20935 18.6183 3.76905H7.36604C7.1144 2.20935 5.76111 1 4.13281 1ZM4.13281 2.02439C5.38507 2.02439 6.38967 3.029 6.38967 4.28125C6.38967 5.53351 5.38507 6.53811 4.13281 6.53811C2.88055 6.53811 1.87595 5.53351 1.87595 4.28125C1.87595 3.029 2.88055 2.02439 4.13281 2.02439ZM21.8516 2.02439C23.1038 2.02439 24.1084 3.029 24.1084 4.28125C24.1084 5.53351 23.1038 6.53811 21.8516 6.53811C20.5993 6.53811 19.5947 5.53351 19.5947 4.28125C19.5947 3.029 20.5993 2.02439 21.8516 2.02439ZM39.5703 2.02439C40.8226 2.02439 41.8272 3.029 41.8272 4.28125C41.8272 5.53351 40.8226 6.53811 39.5703 6.53811C38.3181 6.53811 37.3135 5.53351 37.3135 4.28125C37.3135 3.029 38.3181 2.02439 39.5703 2.02439ZM7.36604 4.79345H18.6183C18.8636 6.36053 20.218 7.5625 21.8516 7.5625C23.4851 7.5625 24.8395 6.36053 25.0848 4.79345H36.3371C36.556 6.19243 37.6603 7.29196 39.0581 7.51448V18.7668C37.4944 19.015 36.2891 20.3688 36.2891 22C36.2891 23.6307 37.4951 24.9844 39.0581 25.2332V36.4855C37.6646 36.7067 36.5617 37.8142 36.3371 39.2066H25.0848C24.8332 37.6468 23.4799 36.4375 21.8516 36.4375C20.2233 36.4375 18.87 37.6468 18.6183 39.2066H7.36604C7.1414 37.8142 6.03847 36.7067 4.64501 36.4855V25.2332C6.20799 24.9844 7.41406 23.6307 7.41406 22C7.41406 20.3689 6.20871 19.015 4.64501 18.7668V7.51448C6.04284 7.29196 7.1471 6.19243 7.36604 4.79345ZM17.3218 17.0541C17.2314 17.0731 17.1478 17.1162 17.0799 17.1788C17.012 17.2415 16.9622 17.3213 16.936 17.4099C16.9097 17.4985 16.908 17.5925 16.9308 17.6821C16.9536 17.7716 17.0003 17.8533 17.0657 17.9184L21.1313 22L17.0657 26.0655C17.0098 26.1107 16.9639 26.167 16.9312 26.231C16.8984 26.295 16.8795 26.3652 16.8756 26.437C16.8718 26.5088 16.8831 26.5806 16.9088 26.6477C16.9345 26.7148 16.9741 26.7758 17.0249 26.8266C17.0758 26.8775 17.1367 26.917 17.2039 26.9427C17.271 26.9685 17.3428 26.9798 17.4146 26.9759C17.4864 26.9721 17.5565 26.9532 17.6205 26.9204C17.6845 26.8877 17.7409 26.8418 17.786 26.7858L21.8516 22.7203L25.9171 26.7858C25.9622 26.8418 26.0186 26.8877 26.0826 26.9204C26.1466 26.9532 26.2168 26.9721 26.2885 26.9759C26.3603 26.9798 26.4321 26.9685 26.4993 26.9427C26.5664 26.917 26.6273 26.8775 26.6782 26.8266C26.729 26.7758 26.7686 26.7148 26.7943 26.6477C26.82 26.5806 26.8313 26.5088 26.8275 26.437C26.8236 26.3652 26.8047 26.295 26.772 26.231C26.7392 26.167 26.6934 26.1107 26.6374 26.0655L22.5718 22L26.6374 17.9184C26.7153 17.8406 26.766 17.7398 26.7821 17.6309C26.7982 17.5219 26.7787 17.4107 26.7266 17.3137C26.6745 17.2167 26.5926 17.1391 26.4929 17.0923C26.3932 17.0456 26.2811 17.0322 26.1732 17.0541C26.0756 17.0761 25.9866 17.1262 25.9171 17.1982L21.8516 21.2637L17.786 17.1982C17.7266 17.1376 17.6531 17.0927 17.5721 17.0676C17.4911 17.0424 17.4051 17.0378 17.3218 17.0541ZM4.13281 19.7431C5.38506 19.7431 6.38967 20.7477 6.38967 22C6.38967 23.2523 5.38508 24.2569 4.13281 24.2569C2.88054 24.2569 1.87595 23.2523 1.87595 22C1.87595 20.7477 2.88055 19.7431 4.13281 19.7431ZM39.5703 19.7431C40.8226 19.7431 41.8272 20.7477 41.8272 22C41.8272 23.2523 40.8226 24.2569 39.5703 24.2569C38.318 24.2569 37.3135 23.2523 37.3135 22C37.3135 20.7477 38.3181 19.7431 39.5703 19.7431ZM4.13281 37.4619C5.38506 37.4619 6.38967 38.4665 6.38967 39.7188C6.38967 40.971 5.38508 41.9756 4.13281 41.9756C2.88054 41.9756 1.87595 40.971 1.87595 39.7188C1.87595 38.4665 2.88055 37.4619 4.13281 37.4619ZM21.8516 37.4619C23.1038 37.4619 24.1084 38.4665 24.1084 39.7188C24.1084 40.971 23.1038 41.9756 21.8516 41.9756C20.5993 41.9756 19.5947 40.971 19.5947 39.7188C19.5947 38.4665 20.5993 37.4619 21.8516 37.4619ZM39.5703 37.4619C40.8226 37.4619 41.8272 38.4665 41.8272 39.7188C41.8272 40.971 40.8226 41.9756 39.5703 41.9756C38.318 41.9756 37.3135 40.971 37.3135 39.7188C37.3135 38.4665 38.3181 37.4619 39.5703 37.4619Z" stroke="#8EC8E1" mask="url(#path-1-outside-1_13_15833)"/>
</svg>
