<svg width="52" height="53" viewBox="0 0 52 53" fill="none" xmlns="http://www.w3.org/2000/svg">
<path d="M19.8768 35.9462C19.5586 35.6267 19.0427 35.6262 18.7245 35.9467L18.662 36.0096L18.6001 35.9467C18.2819 35.6262 17.7665 35.6262 17.4483 35.9467C17.1301 36.2673 17.1301 36.7864 17.4483 37.1069L17.5113 37.1698L17.4478 37.2338C17.1301 37.5543 17.1301 38.074 17.4483 38.3945C17.6074 38.5543 17.8159 38.6341 18.0245 38.6341C18.233 38.6341 18.4421 38.5543 18.6012 38.394L18.6636 38.3305L18.7256 38.3929C18.8847 38.5532 19.0932 38.633 19.3017 38.633C19.5103 38.633 19.7188 38.5532 19.8779 38.3929C20.1961 38.0724 20.1961 37.5533 19.8779 37.2327L19.816 37.1704L19.8785 37.1069C20.1951 36.7864 20.1951 36.2662 19.8768 35.9462ZM22.7202 40.9726C22.4188 41.2745 22.4118 41.7493 22.6773 42.0726C22.4129 42.3942 22.4188 42.8663 22.717 43.1682C22.8761 43.3296 23.0857 43.41 23.2942 43.41C23.4783 43.41 23.6575 43.3367 23.8074 43.212C23.9573 43.3372 24.1365 43.4111 24.3212 43.4111C24.5286 43.4111 24.7355 43.3318 24.8946 43.1737C25.1966 42.8723 25.2047 42.3959 24.9391 42.072C25.2047 41.7482 25.1966 41.2718 24.8946 40.9704C24.5938 40.6712 24.1267 40.6657 23.8074 40.9321C23.4881 40.6651 23.0184 40.6728 22.7202 40.9726ZM24.117 38.5045L22.3216 36.6956C22.333 36.2366 22.3531 35.3849 21.2795 34.3035C20.6404 33.6602 19.791 33.3069 18.8879 33.3069C18.2221 33.3069 17.5803 33.5005 17.028 33.8665L13.4335 35.7782C12.3034 36.3805 10.8394 37.3432 11.1701 38.7528C11.3487 39.5121 11.9716 40.4168 13.9212 40.4168L14.0819 40.4146C15.2924 40.3632 16.0418 40.332 16.5191 40.2997C16.9167 40.7269 17.4445 40.9567 18.0457 40.9567C18.2504 40.9567 18.4405 40.9293 18.6072 40.8905L19.9529 42.2454C19.7899 42.9571 19.9186 43.7623 20.5383 44.3486C20.5062 44.8322 20.4747 45.592 20.4237 46.8211C20.3797 48.8969 21.2974 49.5523 22.074 49.736C22.1642 49.7579 22.3043 49.7869 22.478 49.7869C23.3822 49.7869 24.1919 49.0463 25.0271 47.4567L26.9245 43.8377C27.8054 42.4921 27.6262 40.698 26.4906 39.5531C25.5647 38.6221 24.8191 38.5023 24.2728 38.5023L24.117 38.5045ZM25.5506 42.9549C25.5338 42.98 25.5175 43.0063 25.5039 43.0336L23.587 46.6898C22.9109 47.9774 22.5139 48.1333 22.4759 48.1454C22.4688 48.1437 22.4487 48.1394 22.4487 48.1394C22.0816 48.0524 22.0431 47.2981 22.0523 46.873C22.0523 46.873 22.1647 44.161 22.1723 43.9986C22.1756 43.9499 22.1739 43.9001 22.168 43.8509C22.1375 43.6003 21.9953 43.3783 21.7808 43.247C21.3887 43.0085 21.5103 42.6119 21.6173 42.3958C21.7748 42.0802 21.7134 41.6984 21.4652 41.4484L19.3984 39.3671C19.1497 39.1166 18.7712 39.0553 18.4578 39.2134C18.3313 39.2774 18.1765 39.3162 18.0457 39.3162C17.8523 39.3162 17.7263 39.2386 17.6128 39.0493C17.4836 38.8332 17.2626 38.6899 17.0144 38.6587C16.965 38.6527 16.9156 38.6511 16.8672 38.6544C16.7092 38.662 14.0358 38.7747 14.0309 38.7747L13.9212 38.7763C13.4324 38.7763 12.8334 38.7063 12.7493 38.3524C12.7498 38.3486 12.8552 37.9438 14.1943 37.23L17.8257 35.2985C17.8523 35.2848 17.8784 35.269 17.9034 35.252C18.5768 34.7909 19.5461 34.8795 20.1288 35.4654C20.7088 36.0495 20.7012 36.3586 20.693 36.6573C20.6865 36.9193 20.6757 37.3591 21.0346 37.7206L23.1009 39.802C23.443 40.1466 23.8617 40.1482 24.0214 40.1482H24.023L24.2739 40.1438C24.4607 40.1438 24.773 40.1438 25.3399 40.7144C25.9335 41.3128 26.0231 42.2558 25.5506 42.9549ZM51.2413 8.93802L17.1002 0.0268324C16.8906 -0.0289616 16.6685 0.00331136 16.4828 0.113805C16.2965 0.2243 16.1613 0.40481 16.1075 0.615405L13.7865 9.64255H1.66614C1.21649 9.64255 0.851562 10.0101 0.851562 10.4631V45.2895C0.851562 45.7424 1.21649 46.11 1.66614 46.11H8.87786C10.6319 50.1594 14.6413 53 19.3006 53C23.96 53 27.9688 50.16 29.7229 46.11H36.9341C37.3837 46.11 37.7486 45.7424 37.7486 45.2895V43.0878L42.1604 44.2387C42.2288 44.2562 42.2978 44.2649 42.3651 44.2649C42.7273 44.2649 43.0581 44.0199 43.1531 43.6501L51.8251 9.93793C51.9386 9.49924 51.6768 9.05179 51.2413 8.93802ZM19.3012 51.3584C13.9299 51.3584 9.55993 46.9567 9.55993 41.5464C9.55993 36.136 13.9299 31.7348 19.3012 31.7348C24.6725 31.7348 29.0419 36.1365 29.0419 41.5469C29.0419 46.9573 24.672 51.3584 19.3012 51.3584ZM5.3855 27.0798L5.38604 14.2106H33.2153V26.4322V34.4397H28.2007C26.1165 31.7966 22.9054 30.0938 19.3012 30.0938C15.697 30.0938 12.4859 31.7966 10.4011 34.4397H5.38604V28.7772C5.32902 28.7772 5.44252 28.7892 5.38604 28.7772L5.3855 27.0798ZM36.12 44.469H30.2811C30.5266 43.5342 30.6705 42.5583 30.6705 41.5469C30.6705 39.569 30.1693 37.7064 29.2895 36.0813H34.0298C34.4795 36.0813 34.8444 35.7137 34.8444 35.2608V13.3901C34.8444 12.9371 34.4795 12.5696 34.0298 12.5696H4.57146C4.12182 12.5696 3.75689 12.9371 3.75689 13.3901V35.2602C3.75689 35.7131 4.12182 36.0807 4.57146 36.0807H9.31176C8.43202 37.7064 7.93078 39.5684 7.93078 41.5464C7.93078 42.5578 8.07469 43.5336 8.32015 44.4684H2.48072V11.2836H36.12V44.469ZM18.4698 9.64255L19.5646 5.38853L35.8626 9.64255H18.4698ZM37.6694 10.1141L37.7492 10.4631C37.7492 10.3378 37.7193 10.2202 37.6694 10.1141ZM37.7492 23.2131V22.1853V20.343V10.4631L37.6694 10.1141L46.5043 12.4202L43.4599 24.2518L41.4658 32.0034L37.7492 31.033V25.0756V23.2131ZM41.7808 42.444L37.7492 41.3916V32.7282L41.846 33.7975C41.9133 33.8151 41.9817 33.8238 42.0502 33.8238C42.1946 33.8238 42.3369 33.7855 42.4634 33.7106C42.6497 33.6001 42.7849 33.4201 42.8387 33.209L48.2855 12.0373C48.3984 11.5986 48.1367 11.1512 47.7011 11.0374L19.1844 3.59382C18.7484 3.48223 18.3041 3.74425 18.1917 4.18239L16.7869 9.64201H15.4694L17.4803 1.82045L50.0444 10.3203L41.7808 42.444Z" fill="#8EC8E1"/>
</svg>
