<svg width="230" height="76" viewBox="0 0 230 76" fill="none" xmlns="http://www.w3.org/2000/svg">
<path d="M196.015 68.5677L185.877 72.6862C185.12 72.9935 184.3 73.1109 183.488 73.0282L40.4522 58.4645C39.1156 58.3284 37.89 57.6601 37.0516 56.6103L34.1552 52.9832M196.015 68.5677L213.036 70.2066C214.991 70.3948 216.875 69.4211 217.852 67.7176L228.045 49.9493C228.934 48.443 228.971 46.5819 228.143 45.0415L216.556 23.4831C215.76 22.0024 214.274 21.0208 212.599 20.8703L195.037 19.2917L33.082 4.73438L18.3053 3.40618C16.4223 3.23693 14.6049 4.14419 13.6085 5.75086L2.12599 24.2657C1.18842 25.7774 1.12468 27.6735 1.95859 29.2448L12.3106 48.6362C13.0992 50.1135 14.5752 51.0979 16.2422 51.2585L34.1552 52.9832M196.015 68.5677L34.1552 52.9832" stroke="white"/>
<path d="M61.4185 30.563C61.4773 30.6329 61.5542 30.7147 61.6283 30.8021C62.6177 31.9908 62.9219 33.3404 62.4492 34.8185C62.0751 35.9891 60.8752 36.8463 59.6453 36.9079C58.9123 36.933 58.1785 36.8932 57.4525 36.789C56.7148 36.6932 55.9736 36.6303 55.2338 36.5498C54.6101 36.4799 53.9808 36.445 53.4046 36.152C53.0421 35.98 52.7529 35.6842 52.5893 35.3178C52.2753 34.5983 52.2096 33.8298 52.2711 33.06C52.3145 32.5244 52.5508 32.3474 53.0403 32.3607C53.5298 32.374 53.8717 32.6572 53.9185 33.1299C53.9381 33.3264 53.9227 33.5264 53.9339 33.7242C53.9864 34.657 54.0773 34.7144 54.973 34.815C55.7352 34.8983 56.4973 34.9864 57.2588 35.0724C57.6979 35.122 58.1356 35.1849 58.5761 35.2185C59.1386 35.2713 59.7017 35.1245 60.1669 34.8039C61.0808 34.1745 61.2297 32.8824 60.5039 32.037C59.99 31.4377 59.3278 31.1364 58.565 31.0357C57.9426 30.9532 57.3168 30.8958 56.6945 30.8203C56.5329 30.8028 56.3747 30.7614 56.2253 30.6973C55.7652 30.4875 55.5722 29.884 55.8156 29.4449C55.8675 29.3456 55.9478 29.264 56.0464 29.2106C56.1449 29.1571 56.2571 29.1343 56.3687 29.145C56.8791 29.1729 57.3888 29.2149 57.8986 29.2568C58.4643 29.3058 59.0244 29.4149 59.5984 29.2932C60.3795 29.1275 60.8473 28.7079 60.9549 27.9863C61.0179 27.5668 60.8955 27.1738 60.6752 26.8221C60.2103 26.0809 59.4998 25.7033 58.6601 25.5831C57.8203 25.4628 56.9476 25.3859 56.0918 25.2887C55.6184 25.2348 55.145 25.181 54.673 25.1181C54.2388 25.0593 54.0339 25.188 53.9738 25.6236C53.9311 25.9215 53.9465 26.2271 53.9262 26.5284C53.8997 26.9375 53.6997 27.1787 53.3193 27.2193C52.8753 27.2633 52.4082 27.0319 52.3159 26.5466C52.181 25.7983 52.2484 25.0275 52.511 24.3139C52.718 23.7196 53.1962 23.4308 53.8025 23.4175C54.3472 23.407 54.8933 23.4637 55.4373 23.5105C55.9813 23.5574 56.5239 23.6273 57.0658 23.6902C57.8958 23.7909 58.737 23.8084 59.5488 24.0398C60.6676 24.3559 61.5731 24.9642 62.1758 25.9809C62.8583 27.1319 62.8583 28.9604 61.9506 29.991C61.7835 30.1784 61.6073 30.3602 61.4185 30.563Z" fill="white"/>
<path d="M72.7873 37.3056C72.221 37.8216 71.549 38.0657 70.7882 38.0992C69.7261 38.1468 68.6765 38.0237 67.6249 37.9028C67.1312 37.8454 66.6592 37.7538 66.2348 37.4895C65.516 37.0413 65.1202 36.3742 64.9923 35.5547C64.8851 34.9467 64.8939 34.324 65.0181 33.7192C65.2132 32.8389 65.753 32.2767 66.5928 32.0138C66.9696 31.8962 67.3595 31.8258 67.7535 31.804C68.9507 31.7482 70.1505 31.8119 71.335 31.9942C71.7252 32.0516 72.1224 32.0641 72.516 32.0991C72.7034 32.1173 72.8069 32.0586 72.7957 31.8523C72.7762 31.5726 72.7734 31.2964 72.7412 31.0202C72.7139 30.7866 72.5615 30.6468 72.3286 30.6083C72.0427 30.5608 71.756 30.5105 71.4679 30.4783C70.6288 30.3825 69.7834 30.2846 68.9395 30.207C68.4185 30.1594 67.8955 30.142 67.3725 30.1224C67.2449 30.1233 67.1181 30.143 66.9963 30.1811C66.8982 30.2007 66.8095 30.2527 66.7445 30.3288C66.6796 30.4049 66.6422 30.5007 66.6383 30.6007C66.6245 30.7628 66.5983 30.9236 66.56 31.0817C66.4712 31.4474 66.2103 31.618 65.8335 31.5712C65.1056 31.4831 64.8741 30.9768 64.9279 30.2098C65.0105 29.033 65.7761 28.6994 66.5879 28.5316C66.8362 28.4792 67.0956 28.4771 67.3494 28.4519H67.4892H67.9787H68.1185C68.7318 28.5057 69.345 28.5547 69.9575 28.6148C70.5232 28.6708 71.0896 28.7295 71.6532 28.8036C72.0797 28.8502 72.503 28.9224 72.9209 29.0197C73.8502 29.2588 74.2921 29.9287 74.4019 30.8377C74.4542 31.3111 74.4789 31.7871 74.476 32.2634C74.4844 34.0814 74.4802 35.896 74.476 37.7119C74.4801 37.8627 74.4672 38.0135 74.4375 38.1615C74.3501 38.5314 74.104 38.7167 73.7383 38.7132C73.3726 38.7097 73.0999 38.5174 73.0223 38.1678C72.9742 37.8939 72.9399 37.6178 72.9195 37.3406C72.9125 37.3021 72.9048 37.2637 72.8978 37.2252L72.7873 37.3056ZM72.7957 33.7822C72.5216 33.7472 72.2937 33.7122 72.0643 33.6892C71.5105 33.6269 70.9567 33.5598 70.4015 33.5074C69.5233 33.4242 68.6465 33.3018 67.7598 33.4046C67.1837 33.4745 66.7984 33.7388 66.6879 34.2437C66.5762 34.7112 66.6027 35.2012 66.7641 35.654C66.904 36.04 67.0301 36.2105 67.527 36.3347C68.3965 36.4589 68.5207 36.4589 68.5207 36.4589C69.6387 36.5831 69.9409 36.527 70.6617 36.4749C71.3847 36.4127 72.0217 36.1624 72.3951 35.4701C72.6769 34.9548 72.7405 34.3954 72.7957 33.7822Z" fill="white"/>
<path d="M123.408 42.7808C123.301 42.8507 123.24 42.885 123.188 42.929C122.601 43.4311 121.906 43.6059 121.152 43.6283C120.159 43.6583 119.178 43.5584 118.197 43.422C118.002 43.3954 117.804 43.3829 117.611 43.3423C116.629 43.1325 115.959 42.5494 115.654 41.5991C115.364 40.7311 115.358 39.7933 115.637 38.9217C115.847 38.2631 116.305 37.8463 116.933 37.5988C117.391 37.427 117.873 37.3297 118.362 37.3107C119.55 37.2408 120.727 37.3806 121.903 37.5205C122.349 37.575 122.798 37.6093 123.277 37.6554C123.277 37.2743 123.293 36.9163 123.27 36.5604C123.264 36.4593 123.223 36.3634 123.155 36.2884C123.087 36.2133 122.996 36.1636 122.896 36.1472C122.624 36.0856 122.35 36.0389 122.073 36.0073C121.068 35.9006 120.062 35.7999 119.056 35.7053C118.686 35.6703 118.314 35.6556 117.943 35.6416C117.827 35.6388 117.711 35.6522 117.598 35.6815C117.267 35.7654 117.179 35.8724 117.135 36.2073C117.112 36.3795 117.079 36.5502 117.036 36.7184C116.979 36.9317 116.826 37.038 116.61 37.0814C116.186 37.1688 115.708 36.9303 115.556 36.5318C115.347 35.9843 115.389 35.0123 115.988 34.5375C116.176 34.3813 116.392 34.2626 116.624 34.1879C117.003 34.0788 117.392 34.0086 117.785 33.9781C118.362 33.9782 120.703 34.1655 120.703 34.1655C120.703 34.1655 122.091 34.3089 122.782 34.3935C123.306 34.4578 123.809 34.5865 124.228 34.9417C124.751 35.3836 124.893 35.9905 124.958 36.6241C124.978 36.8912 124.984 37.1591 124.976 37.4268C124.976 39.3487 124.976 41.2705 124.976 43.192C124.976 43.3199 124.976 43.4486 124.969 43.5758C124.943 43.9443 124.75 44.1625 124.401 44.2247C124.234 44.2606 124.06 44.2364 123.909 44.1565C123.758 44.0766 123.64 43.946 123.576 43.7877C123.519 43.6351 123.478 43.4773 123.452 43.3164C123.427 43.1591 123.427 42.9962 123.408 42.7808ZM123.289 39.2944C122.826 39.2399 122.412 39.1902 121.998 39.1441C121.433 39.0805 120.869 38.9994 120.302 38.9616C119.597 38.9154 118.892 38.8099 118.182 38.9343C117.61 39.035 117.313 39.2951 117.183 39.8552C117.084 40.3013 117.122 40.7668 117.293 41.1908C117.436 41.5683 117.718 41.7844 118.141 41.8047C118.443 41.82 118.744 41.8508 119.042 41.897C119.743 42.0119 120.454 42.0476 121.162 42.0033C121.691 41.9634 122.192 41.8222 122.584 41.4243C123.158 40.8418 123.268 40.1104 123.287 39.2944H123.289Z" fill="white"/>
<path d="M166.152 44.9476C165.65 44.919 165.3 45.1357 165.115 45.6042C164.991 45.9175 164.885 46.2377 164.759 46.5503C164.448 47.3194 163.925 47.8865 163.162 48.2229C162.688 48.4319 162.152 48.4534 161.663 48.283C161.181 48.1264 160.956 47.7005 161.058 47.2076C161.082 47.0685 161.152 46.9416 161.257 46.8479C161.363 46.7543 161.497 46.6996 161.638 46.6929C161.719 46.6832 161.801 46.6817 161.883 46.6887C162.422 46.7587 162.849 46.5321 163.154 45.8154C163.25 45.5909 163.314 45.3525 163.418 45.1322C163.546 44.8609 163.697 44.6015 163.862 44.2981C163.748 44.2281 163.626 44.1449 163.499 44.0722C162.682 43.6009 162.281 42.8765 162.241 41.9514C162.225 41.5802 162.243 41.2082 162.295 40.8403C162.453 39.7579 163.102 39.3719 163.995 39.2251C164.872 39.0853 165.757 39.1118 166.639 39.1992C167.414 39.2752 168.188 39.3521 168.963 39.43C169.437 39.4782 169.911 39.5188 170.383 39.5831C170.897 39.653 171.187 39.9838 171.242 40.532C171.249 40.6251 171.25 40.7184 171.247 40.8117V48.3928C171.242 48.9067 171 49.2318 170.591 49.2738C170.364 49.3034 170.133 49.247 169.945 49.1157C169.757 48.9845 169.624 48.7878 169.574 48.5641C169.539 48.4053 169.521 48.2434 169.521 48.0809C169.516 47.2544 169.521 46.4272 169.521 45.6C169.521 45.2609 169.503 45.2581 169.172 45.2245C168.409 45.1455 167.648 45.0546 166.886 44.9721C166.735 44.956 166.584 44.9553 166.433 44.9476H166.152ZM169.517 43.5555C169.517 42.8206 169.517 42.1472 169.517 41.4745C169.517 41.1949 169.51 41.1949 169.226 41.1648C168.51 41.0879 167.795 41.0005 167.079 40.9305C166.396 40.8606 165.714 40.804 165.03 40.7599C164.844 40.7562 164.659 40.7797 164.48 40.8299C164.377 40.8533 164.281 40.9 164.199 40.9664C164.117 41.0328 164.051 41.1172 164.006 41.213C163.721 41.7962 164.014 42.6073 164.609 42.8702C164.777 42.9509 164.956 43.0074 165.141 43.038C166.28 43.1891 167.421 43.3289 168.563 43.4674C168.858 43.5086 169.159 43.5268 169.517 43.5555Z" fill="white"/>
<path d="M98.6746 34.2032C98.5347 34.3095 98.4697 34.3528 98.4123 34.4059C97.3626 35.3779 96.3125 36.351 95.2623 37.3253C94.1589 38.344 93.0499 39.353 91.9479 40.376C91.8276 40.4872 91.7116 40.5508 91.5445 40.5291C91.1648 40.4788 90.7837 40.4334 90.4019 40.3963C90.2551 40.3823 90.1921 40.3159 90.2012 40.1732C90.2012 40.1033 90.2012 40.0334 90.2012 39.9635C90.2012 37.2369 90.2012 34.5099 90.2012 31.7824C90.1973 31.6425 90.2015 31.5024 90.2138 31.3629C90.2204 31.2723 90.2459 31.1841 90.2886 31.104C90.3313 31.0238 90.3903 30.9535 90.4619 30.8975C90.5334 30.8415 90.6158 30.8011 90.7039 30.7789C90.7919 30.7567 90.8837 30.7532 90.9732 30.7685C91.5326 30.8385 91.8249 31.1517 91.8822 31.7475C91.8913 31.8516 91.8864 31.9572 91.8864 32.0621V38.1797C92.1276 37.9741 92.322 37.8196 92.5038 37.6518C93.6058 36.6309 94.7059 35.6086 95.8042 34.585C96.7433 33.7144 97.6872 32.8488 98.6221 31.974C98.762 31.8426 98.9018 31.7782 99.0885 31.802C99.5003 31.8537 99.9136 31.8985 100.361 31.9502V40.5417C100.361 40.6117 100.361 40.6816 100.361 40.7515C100.35 41.1829 100.158 41.4654 99.8416 41.5165C99.3591 41.5948 98.9081 41.3808 98.7808 40.9802C98.7162 40.7695 98.6837 40.5502 98.6843 40.3299C98.6773 38.4419 98.6801 36.554 98.6801 34.6661L98.6746 34.2032Z" fill="white"/>
<path d="M102.845 37.0484C102.874 36.4072 102.876 35.7898 102.941 35.1765C102.98 34.7957 103.074 34.4226 103.221 34.069C103.559 33.2725 104.251 32.9236 105.058 32.7936C106.006 32.6404 106.96 32.6733 107.912 32.7705C108.864 32.8677 109.808 32.9635 110.756 33.0691C111.409 33.1425 112.042 33.2683 112.549 33.7466C113.029 34.199 113.221 34.7738 113.27 35.4024C113.281 35.6922 113.266 35.9825 113.224 36.2694C113.216 36.4237 113.152 36.5698 113.046 36.6814C112.939 36.793 112.795 36.8626 112.642 36.8778C112.3 36.9288 111.979 36.8232 111.791 36.517C111.687 36.3464 111.651 36.1303 111.605 35.9296C111.568 35.7604 111.579 35.58 111.547 35.4115C111.477 35.0234 111.313 34.8633 110.93 34.8094C110.515 34.7514 110.099 34.7095 109.683 34.6647C108.862 34.5766 108.044 34.4689 107.221 34.413C106.688 34.3713 106.152 34.3798 105.62 34.4382C104.969 34.5179 104.711 34.7738 104.641 35.4276C104.512 36.6317 104.479 37.8406 104.67 39.0454C104.76 39.6097 105.075 39.995 105.616 40.1404C106.231 40.3106 106.855 40.4432 107.485 40.5376C108.612 40.6956 109.746 40.8019 110.877 40.9368C111.305 40.9879 111.52 40.8208 111.549 40.3956C111.562 40.2103 111.58 40.025 111.607 39.8411C111.658 39.4985 111.835 39.2468 112.187 39.1839C112.52 39.1244 112.822 39.2349 113.007 39.5223C113.138 39.7132 113.225 39.9304 113.263 40.1586C113.323 40.6461 113.267 41.141 113.101 41.6032C112.88 42.2185 112.367 42.629 111.709 42.6311C111.129 42.6311 110.547 42.5856 109.969 42.5325C109.241 42.4626 108.513 42.3773 107.788 42.2857C106.7 42.1458 105.625 41.9654 104.631 41.4606C103.582 40.927 103.05 40.0495 102.94 38.9056C102.881 38.2811 102.875 37.6518 102.845 37.0484Z" fill="white"/>
<path d="M149.139 41.9963C149.169 41.3851 149.175 40.7558 149.234 40.1314C149.349 38.9329 150.017 38.1113 151.22 37.8848C152.033 37.732 152.864 37.7025 153.686 37.7974C154.517 37.8911 155.353 37.9477 156.185 38.0351C156.681 38.0869 157.178 38.1442 157.669 38.2351C158.711 38.4281 159.333 39.0742 159.504 40.1188C159.554 40.4265 159.548 40.7425 159.572 41.055C159.572 41.4277 159.27 41.9208 158.865 41.9368C158.635 41.9516 158.409 41.8783 158.231 41.7317C158.054 41.5851 157.939 41.3764 157.91 41.1481C157.879 40.9383 157.864 40.7286 157.845 40.523C157.813 40.1335 157.701 39.9825 157.316 39.8937C157.066 39.8406 156.813 39.8032 156.559 39.7818C155.473 39.6643 154.391 39.5371 153.299 39.4448C152.859 39.3975 152.414 39.4073 151.976 39.4741C151.25 39.6049 150.987 39.7594 150.927 40.6391C150.866 41.6954 150.864 42.7542 150.92 43.8108C150.957 44.6639 151.357 45.1086 152.189 45.3002C152.856 45.4533 153.535 45.5596 154.217 45.6498C155.161 45.777 156.11 45.8721 157.057 45.9791C157.161 45.9923 157.265 45.9967 157.37 45.9924C157.673 45.9763 157.808 45.8463 157.845 45.5421C157.866 45.3687 157.891 45.1925 157.899 45.0212C157.917 44.589 158.204 44.2646 158.513 44.2443C158.966 44.2149 159.389 44.466 159.492 44.91C159.564 45.2032 159.588 45.5063 159.562 45.8071C159.528 46.1646 159.444 46.5155 159.312 46.8497C159.103 47.3692 158.661 47.6111 158.113 47.6818C157.446 47.7664 156.791 47.6405 156.134 47.5825C155.382 47.5167 154.632 47.4181 153.884 47.3209C152.935 47.1979 151.996 47.021 151.12 46.6217C149.913 46.0686 149.302 45.11 149.225 43.7961C149.188 43.1997 149.167 42.6074 149.139 41.9963Z" fill="white"/>
<path d="M137.838 45.5405V45.1286C137.838 42.4613 137.838 39.7937 137.838 37.1259C137.838 36.9644 137.865 36.8028 137.877 36.6406C137.921 36.0113 138.39 35.9043 138.926 36.0365C139.249 36.1169 139.439 36.3532 139.501 36.6749C139.541 36.8802 139.562 37.0887 139.564 37.2979C139.571 38.0783 139.564 38.8586 139.564 39.6396C139.564 39.9781 139.581 40.0046 139.899 40.0389C140.638 40.12 141.38 40.1788 142.118 40.2704C143.085 40.392 144.068 40.4067 145.012 40.6843C145.851 40.9311 146.584 41.3584 147.047 42.1219C147.596 43.0309 147.654 44.0064 147.225 44.9671C146.87 45.7621 146.153 46.0817 145.325 46.2083C144.389 46.3481 143.471 46.1824 142.548 46.0845C141.843 46.0097 141.139 45.9293 140.435 45.8551C139.695 45.7768 138.955 45.7048 138.216 45.6251C138.089 45.6032 137.963 45.575 137.838 45.5405V45.5405ZM139.568 41.7038C139.568 42.4848 139.568 43.1918 139.568 43.8994C139.568 44.0518 139.678 44.0861 139.804 44.0994C140.265 44.146 140.727 44.1945 141.189 44.2448C141.973 44.3301 142.755 44.4455 143.542 44.4944C144.097 44.5243 144.654 44.5093 145.207 44.4497C145.577 44.4133 145.767 44.1427 145.792 43.7763C145.846 43.0512 145.533 42.5464 144.829 42.3625C144.294 42.2226 143.736 42.1562 143.185 42.0828C142.415 41.9828 141.64 41.9066 140.867 41.8241C140.455 41.7828 140.042 41.7478 139.568 41.7038Z" fill="white"/>
<path d="M77.199 29.4758C77.199 29.4108 77.2935 29.4291 77.34 29.4332C77.6654 29.462 77.9565 29.4851 78.2471 29.5163C79.0433 29.6017 79.8393 29.6898 80.635 29.7807C81.3622 29.8618 82.0894 29.9457 82.8166 30.0275C83.3243 30.0841 83.8326 30.138 84.341 30.1946C85.1264 30.2813 85.9114 30.368 86.696 30.4547C86.8463 30.4708 86.998 30.4743 87.1484 30.4883C87.1778 30.4872 87.2071 30.4925 87.2342 30.504C87.2613 30.5154 87.2856 30.5327 87.3053 30.5546C87.325 30.5765 87.3396 30.6025 87.3481 30.6306C87.3567 30.6588 87.3589 30.6885 87.3547 30.7176C87.3547 30.7876 87.3547 30.8575 87.3547 30.9274V39.1392C87.3547 39.2091 87.3547 39.2791 87.3547 39.349C87.3428 39.7685 87.175 40.0202 86.8596 40.0993C86.4778 40.1958 85.9793 40.016 85.8387 39.6832C85.7389 39.4495 85.685 39.1989 85.68 38.9448C85.6681 36.8471 85.673 34.7494 85.673 32.6517V32.407C85.673 32.2911 85.6781 32.2123 85.673 32.1574C85.673 32.0714 85.673 32.0472 85.3003 31.9993C84.3788 31.881 83.4543 31.7854 82.5313 31.6812C81.8272 31.6015 81.1217 31.5287 80.4176 31.4525C80.0246 31.4106 79.756 31.3651 79.363 31.3267C79.2616 31.3162 78.8813 31.2332 78.8813 31.3662V31.7462C78.8813 33.8663 78.8813 35.9873 78.8813 38.1092C78.8862 38.2373 78.8829 38.3655 78.8715 38.4931C78.8191 38.8924 78.652 39.0938 78.324 39.1735C77.9779 39.2574 77.5416 39.1084 77.3703 38.8155C77.2922 38.6612 77.2373 38.4963 77.2074 38.326C77.193 38.222 77.1902 38.1167 77.199 38.012V29.4758Z" fill="white"/>
<path d="M132.339 37.1813C132.322 37.2162 132.323 37.805 132.322 38.091C132.318 40.0372 132.318 41.9832 132.322 43.9289C132.322 44.045 132.322 44.1618 132.322 44.2785C132.305 44.7226 132.042 44.9855 131.598 45.0106C130.868 45.0505 130.44 44.6491 130.435 43.8975C130.428 42.9304 130.435 41.9634 130.435 40.9963C130.435 39.7727 130.435 38.549 130.435 37.3254C130.435 37.1592 130.438 37.0321 130.435 36.9715C130.435 36.9007 130.375 36.9139 130.054 36.8869C129.22 36.817 128.39 36.71 127.559 36.6142C127.443 36.6011 127.329 36.5777 127.218 36.5443C126.579 36.3492 126.489 35.8451 126.621 35.3207C126.691 35.0284 127.06 34.8592 127.421 34.8976C128.716 35.0375 130.01 35.175 131.304 35.3102C132.586 35.45 133.868 35.5899 135.15 35.7297C135.312 35.7481 135.471 35.7855 135.624 35.8409C136.085 36.0087 136.266 36.3534 136.211 36.8667C136.17 37.247 135.926 37.4596 135.511 37.4533C135.097 37.447 134.7 37.396 134.296 37.3547C133.776 37.3016 133.256 37.2366 132.737 37.1813C132.628 37.1729 132.339 37.1267 132.339 37.1813Z" fill="white"/>
</svg>
