<svg width="229" height="77" viewBox="0 0 229 77" fill="none" xmlns="http://www.w3.org/2000/svg">
<path d="M195.766 69.1068L185.628 73.2253C184.872 73.5325 184.052 73.6499 183.24 73.5672L40.2041 59.0036C38.8674 58.8675 37.6418 58.1992 36.8034 57.1493L33.907 53.5223M195.766 69.1068L212.788 70.7456C214.743 70.9339 216.627 69.9602 217.604 68.2566L227.797 50.4883C228.686 48.9821 228.723 47.121 227.895 45.5805L216.308 24.0222C215.512 22.5415 214.025 21.5598 212.351 21.4093L194.789 19.8307L32.8338 5.27344L18.0571 3.94524C16.1741 3.776 14.3567 4.68326 13.3603 6.28992L1.87782 24.8047C0.940254 26.3165 0.876509 28.2126 1.71042 29.7839L12.0624 49.1752C12.8511 50.6526 14.327 51.637 15.994 51.7975L33.907 53.5223M195.766 69.1068L33.907 53.5223" stroke="#2DA0D2"/>
<path d="M61.1704 31.1021C61.2291 31.172 61.306 31.2538 61.3801 31.3412C62.3695 32.5299 62.6737 33.8794 62.201 35.3576C61.8269 36.5281 60.6271 37.3854 59.3971 37.4469C58.6641 37.472 57.9303 37.4322 57.2043 37.328C56.4666 37.2323 55.7254 37.1693 54.9856 37.0889C54.3619 37.019 53.7326 36.984 53.1564 36.691C52.7939 36.5191 52.5048 36.2232 52.3411 35.8569C52.0272 35.1373 51.9614 34.3689 52.023 33.599C52.0663 33.0634 52.3027 32.8865 52.7921 32.8998C53.2816 32.9131 53.6235 33.1963 53.6704 33.669C53.69 33.8654 53.6746 34.0654 53.6858 34.2633C53.7382 35.1961 53.8291 35.2534 54.7248 35.3541C55.487 35.4373 56.2491 35.5254 57.0106 35.6114C57.4497 35.6611 57.8875 35.724 58.328 35.7576C58.8905 35.8103 59.4536 35.6636 59.9187 35.3429C60.8326 34.7136 60.9816 33.4214 60.2558 32.5761C59.7418 31.9768 59.0796 31.6754 58.3168 31.5747C57.6945 31.4922 57.0687 31.4349 56.4463 31.3594C56.2847 31.3419 56.1266 31.3004 55.9771 31.2363C55.5171 31.0265 55.3241 30.4231 55.5674 29.984C55.6193 29.8847 55.6997 29.8031 55.7982 29.7496C55.8967 29.6962 56.0089 29.6734 56.1205 29.684C56.6309 29.712 57.1407 29.7539 57.6504 29.7959C58.2161 29.8448 58.7762 29.9539 59.3503 29.8323C60.1313 29.6665 60.5991 29.247 60.7068 28.5254C60.7697 28.1058 60.6473 27.7129 60.4271 27.3612C59.9621 26.62 59.2517 26.2424 58.4119 26.1221C57.5721 26.0019 56.6995 25.9249 55.8436 25.8277C55.3702 25.7739 54.8968 25.7201 54.4248 25.6571C53.9906 25.5984 53.7857 25.7271 53.7256 26.1627C53.683 26.4605 53.6983 26.7661 53.6781 27.0675C53.6515 27.4765 53.4515 27.7178 53.0711 27.7583C52.6271 27.8024 52.16 27.5709 52.0677 27.0857C51.9329 26.3373 52.0002 25.5666 52.2628 24.853C52.4698 24.2587 52.9481 23.9699 53.5543 23.9566C54.099 23.9461 54.6451 24.0027 55.1891 24.0496C55.7331 24.0964 56.2757 24.1664 56.8176 24.2293C57.6476 24.33 58.4888 24.3475 59.3006 24.5789C60.4194 24.895 61.3249 25.5033 61.9276 26.52C62.6101 27.6709 62.6101 29.4994 61.7025 30.5301C61.5354 30.7175 61.3592 30.8993 61.1704 31.1021Z" fill="#2DA0D2"/>
<path d="M72.5392 37.8447C71.9728 38.3607 71.3008 38.6047 70.5401 38.6383C69.4779 38.6859 68.4284 38.5628 67.3767 38.4418C66.8831 38.3845 66.4111 38.2929 65.9866 38.0286C65.2678 37.5804 64.8721 36.9133 64.7441 36.0938C64.637 35.4858 64.6458 34.863 64.77 34.2583C64.9651 33.378 65.5049 32.8158 66.3447 32.5529C66.7214 32.4353 67.1113 32.3648 67.5054 32.3431C68.7026 32.2872 69.9023 32.3509 71.0869 32.5333C71.477 32.5906 71.8742 32.6032 72.2679 32.6382C72.4553 32.6564 72.5587 32.5976 72.5476 32.3913C72.528 32.1116 72.5252 31.8355 72.493 31.5593C72.4657 31.3257 72.3133 31.1859 72.0805 31.1474C71.7945 31.0999 71.5078 31.0495 71.2197 31.0173C70.3806 30.9216 69.5353 30.8237 68.6913 30.746C68.1704 30.6985 67.6473 30.681 67.1243 30.6614C66.9967 30.6623 66.8699 30.6821 66.7481 30.7202C66.65 30.7397 66.5613 30.7918 66.4964 30.8679C66.4314 30.944 66.394 31.0397 66.3901 31.1397C66.3763 31.3018 66.3501 31.4627 66.3118 31.6208C66.223 31.9865 65.9622 32.1571 65.5853 32.1103C64.8574 32.0221 64.6259 31.5159 64.6798 30.7488C64.7623 29.572 65.5279 29.2385 66.3398 29.0707C66.588 29.0182 66.8474 29.0161 67.1012 28.991H67.2411H67.7305H67.8704C68.4836 29.0448 69.0968 29.0938 69.7094 29.1539C70.275 29.2098 70.8414 29.2686 71.405 29.3427C71.8315 29.3893 72.2548 29.4615 72.6727 29.5587C73.602 29.7979 74.0439 30.4677 74.1537 31.3768C74.206 31.8502 74.2308 32.3262 74.2278 32.8025C74.2362 34.6205 74.232 36.435 74.2278 38.2509C74.2319 38.4018 74.219 38.5526 74.1894 38.7005C74.102 39.0704 73.8558 39.2557 73.4901 39.2522C73.1244 39.2487 72.8517 39.0564 72.7741 38.7068C72.7261 38.433 72.6918 38.1569 72.6713 37.8796C72.6643 37.8412 72.6566 37.8027 72.6496 37.7643L72.5392 37.8447ZM72.5476 34.3212C72.2735 34.2863 72.0455 34.2513 71.8162 34.2282C71.2624 34.166 70.7086 34.0989 70.1534 34.0464C69.2751 33.9632 68.3983 33.8409 67.5117 33.9436C66.9355 34.0136 66.5502 34.2779 66.4397 34.7827C66.328 35.2503 66.3545 35.7403 66.516 36.1931C66.6558 36.5791 66.782 36.7495 67.2788 36.8737C68.1483 36.998 68.2726 36.998 68.2726 36.998C69.3905 37.1222 69.6928 37.0661 70.4135 37.014C71.1365 36.9517 71.7735 36.7014 72.1469 36.0092C72.4287 35.4938 72.4923 34.9345 72.5476 34.3212Z" fill="#2DA0D2"/>
<path d="M123.16 43.3199C123.053 43.3898 122.991 43.4241 122.94 43.4681C122.353 43.9702 121.658 44.145 120.903 44.1673C119.911 44.1974 118.93 44.0974 117.949 43.9611C117.754 43.9345 117.556 43.9219 117.363 43.8814C116.381 43.6716 115.711 43.0884 115.405 42.1382C115.116 41.2701 115.11 40.3324 115.389 39.4608C115.598 38.8021 116.057 38.3854 116.685 38.1378C117.143 37.966 117.625 37.8688 118.114 37.8498C119.302 37.7798 120.478 37.9197 121.654 38.0595C122.101 38.1141 122.55 38.1483 123.028 38.1945C123.028 37.8134 123.045 37.4554 123.022 37.0995C123.016 36.9984 122.975 36.9025 122.907 36.8274C122.839 36.7524 122.747 36.7026 122.647 36.6862C122.376 36.6246 122.102 36.578 121.825 36.5464C120.82 36.4396 119.814 36.339 118.808 36.2443C118.438 36.2094 118.066 36.1947 117.695 36.1807C117.578 36.1778 117.462 36.1913 117.35 36.2205C117.019 36.3045 116.93 36.4114 116.886 36.7464C116.864 36.9186 116.831 37.0893 116.788 37.2575C116.731 37.4708 116.578 37.5771 116.362 37.6204C115.938 37.7078 115.46 37.4694 115.308 37.0708C115.098 36.5233 115.141 35.5514 115.74 35.0766C115.928 34.9203 116.144 34.8016 116.376 34.727C116.755 34.6179 117.144 34.5476 117.537 34.5172C118.114 34.5173 120.455 34.7046 120.455 34.7046C120.455 34.7046 121.843 34.8479 122.534 34.9326C123.058 34.9969 123.561 35.1255 123.98 35.4808C124.502 35.9227 124.645 36.5296 124.71 37.1631C124.73 37.4302 124.735 37.6981 124.728 37.9658C124.728 39.8878 124.728 41.8095 124.728 43.731C124.728 43.859 124.728 43.9876 124.721 44.1149C124.695 44.4834 124.502 44.7016 124.153 44.7638C123.986 44.7997 123.812 44.7755 123.661 44.6956C123.51 44.6156 123.392 44.485 123.328 44.3268C123.271 44.1742 123.229 44.0163 123.204 43.8555C123.179 43.6982 123.179 43.5352 123.16 43.3199ZM123.041 39.8335C122.577 39.7789 122.163 39.7293 121.75 39.6832C121.185 39.6195 120.621 39.5384 120.054 39.5007C119.349 39.4545 118.644 39.3489 117.934 39.4734C117.362 39.5741 117.065 39.8342 116.935 40.3943C116.836 40.8403 116.874 41.3059 117.044 41.7298C117.188 42.1074 117.47 42.3235 117.893 42.3437C118.195 42.3591 118.495 42.3899 118.794 42.436C119.494 42.551 120.206 42.5867 120.914 42.5423C121.443 42.5025 121.944 42.3612 122.336 41.9634C122.91 41.3809 123.019 40.6495 123.039 39.8335H123.041Z" fill="#2DA0D2"/>
<path d="M165.904 45.4867C165.402 45.458 165.052 45.6748 164.866 46.1433C164.743 46.4565 164.637 46.7768 164.511 47.0893C164.2 47.8585 163.676 48.4256 162.914 48.7619C162.44 48.971 161.904 48.9925 161.414 48.8221C160.933 48.6654 160.708 48.2396 160.81 47.7466C160.834 47.6075 160.904 47.4806 161.009 47.387C161.115 47.2934 161.249 47.2387 161.39 47.232C161.471 47.2222 161.553 47.2208 161.635 47.2278C162.174 47.2977 162.601 47.0712 162.906 46.3545C163.002 46.13 163.066 45.8916 163.169 45.6713C163.297 45.4 163.449 45.1406 163.614 44.8371C163.499 44.7672 163.378 44.684 163.251 44.6113C162.434 44.14 162.033 43.4156 161.993 42.4905C161.977 42.1192 161.995 41.7473 162.047 41.3794C162.205 40.297 162.853 39.911 163.747 39.7642C164.624 39.6243 165.508 39.6509 166.391 39.7383C167.166 39.8143 167.94 39.8912 168.714 39.969C169.188 40.0173 169.663 40.0578 170.135 40.1222C170.649 40.1921 170.939 40.5228 170.994 41.071C171 41.1641 171.002 41.2575 170.999 41.3507V48.9318C170.994 49.4458 170.752 49.7709 170.343 49.8129C170.115 49.8424 169.885 49.7861 169.697 49.6548C169.509 49.5236 169.376 49.3268 169.325 49.1031C169.291 48.9444 169.273 48.7824 169.273 48.62C169.268 47.7935 169.273 46.9663 169.273 46.1391C169.273 45.8 169.255 45.7972 168.923 45.7636C168.161 45.6846 167.4 45.5937 166.638 45.5112C166.487 45.4951 166.336 45.4944 166.185 45.4867H165.904ZM169.269 44.0945C169.269 43.3596 169.269 42.6863 169.269 42.0136C169.269 41.7339 169.262 41.7339 168.978 41.7038C168.262 41.6269 167.547 41.5395 166.831 41.4696C166.148 41.3997 165.466 41.343 164.782 41.299C164.596 41.2952 164.411 41.3188 164.232 41.3689C164.129 41.3923 164.033 41.439 163.951 41.5054C163.869 41.5719 163.803 41.6562 163.758 41.7521C163.473 42.3353 163.766 43.1464 164.361 43.4093C164.529 43.49 164.708 43.5465 164.892 43.5771C166.031 43.7281 167.173 43.868 168.314 44.0064C168.61 44.0477 168.911 44.0659 169.269 44.0945Z" fill="#2DA0D2"/>
<path d="M98.4264 34.7422C98.2865 34.8485 98.2215 34.8919 98.1642 34.945C97.1144 35.9169 96.0644 36.89 95.0141 37.8643C93.9107 38.8831 92.8017 39.8921 91.6997 40.9151C91.5795 41.0263 91.4634 41.0899 91.2963 41.0682C90.9166 41.0179 90.5355 40.9724 90.1537 40.9354C90.0069 40.9214 89.944 40.8549 89.9531 40.7123C89.9531 40.6424 89.9531 40.5725 89.9531 40.5025C89.9531 37.776 89.9531 35.049 89.9531 32.3215C89.9492 32.1815 89.9534 32.0414 89.9656 31.9019C89.9722 31.8114 89.9977 31.7232 90.0404 31.643C90.0831 31.5629 90.1422 31.4925 90.2137 31.4366C90.2852 31.3806 90.3676 31.3402 90.4557 31.318C90.5438 31.2958 90.6355 31.2922 90.725 31.3076C91.2844 31.3775 91.5767 31.6908 91.634 32.2865C91.6431 32.3907 91.6382 32.4963 91.6382 32.6012V38.7188C91.8794 38.5132 92.0738 38.3587 92.2556 38.1909C93.3576 37.17 94.4578 36.1477 95.556 35.124C96.4951 34.2535 97.4391 33.3878 98.3739 32.5131C98.5138 32.3816 98.6536 32.3173 98.8403 32.3411C99.2522 32.3928 99.6654 32.4376 100.113 32.4893V41.0808C100.113 41.1507 100.113 41.2206 100.113 41.2906C100.102 41.722 99.9095 42.0045 99.5934 42.0555C99.1109 42.1338 98.6599 41.9199 98.5327 41.5192C98.4681 41.3085 98.4355 41.0893 98.4362 40.8689C98.4292 38.981 98.432 37.0931 98.432 35.2051L98.4264 34.7422Z" fill="#2DA0D2"/>
<path d="M102.597 37.5875C102.626 36.9463 102.628 36.3288 102.693 35.7156C102.732 35.3348 102.826 34.9616 102.973 34.608C103.311 33.8116 104.003 33.4627 104.81 33.3326C105.758 33.1795 106.712 33.2123 107.664 33.3095C108.616 33.4067 109.56 33.5025 110.508 33.6081C111.161 33.6815 111.794 33.8074 112.301 34.2857C112.781 34.7381 112.972 35.3128 113.021 35.9415C113.033 36.2313 113.018 36.5215 112.976 36.8085C112.968 36.9628 112.904 37.1089 112.797 37.2205C112.691 37.3321 112.547 37.4017 112.394 37.4168C112.052 37.4679 111.731 37.3623 111.543 37.056C111.438 36.8854 111.403 36.6694 111.357 36.4687C111.32 36.2995 111.331 36.1191 111.299 35.9506C111.229 35.5625 111.065 35.4024 110.682 35.3485C110.267 35.2905 109.851 35.2485 109.435 35.2038C108.614 35.1157 107.795 35.008 106.973 34.952C106.44 34.9104 105.904 34.9188 105.372 34.9772C104.721 35.0569 104.463 35.3128 104.393 35.9666C104.264 37.1707 104.231 38.3797 104.422 39.5845C104.512 40.1488 104.827 40.534 105.368 40.6795C105.982 40.8496 106.606 40.9823 107.237 41.0766C108.364 41.2347 109.498 41.3409 110.629 41.4759C111.057 41.5269 111.272 41.3598 111.301 40.9347C111.314 40.7494 111.332 40.5641 111.359 40.3802C111.41 40.0376 111.587 39.7859 111.939 39.7229C112.272 39.6635 112.574 39.774 112.759 40.0614C112.89 40.2523 112.977 40.4695 113.014 40.6977C113.075 41.1852 113.019 41.68 112.853 42.1423C112.632 42.7576 112.119 43.168 111.461 43.1701C110.88 43.1701 110.299 43.1247 109.721 43.0716C108.992 43.0016 108.265 42.9163 107.539 42.8247C106.451 42.6849 105.377 42.5045 104.382 41.9996C103.334 41.4661 102.801 40.5886 102.692 39.4446C102.633 38.8202 102.627 38.1909 102.597 37.5875Z" fill="#2DA0D2"/>
<path d="M148.89 42.5353C148.92 41.9242 148.927 41.2949 148.986 40.6705C149.101 39.472 149.769 38.6504 150.972 38.4238C151.785 38.2711 152.616 38.2416 153.437 38.3364C154.269 38.4301 155.104 38.4868 155.937 38.5742C156.433 38.6259 156.93 38.6833 157.421 38.7742C158.463 38.9671 159.085 39.6132 159.256 40.6579C159.305 40.9656 159.3 41.2815 159.324 41.5941C159.324 41.9667 159.022 42.4598 158.617 42.4759C158.387 42.4907 158.16 42.4173 157.983 42.2708C157.806 42.1242 157.691 41.9155 157.662 41.6872C157.631 41.4774 157.615 41.2676 157.597 41.0621C157.564 40.6726 157.453 40.5215 157.068 40.4327C156.818 40.3796 156.565 40.3423 156.311 40.3209C155.225 40.2034 154.143 40.0761 153.051 39.9838C152.61 39.9365 152.166 39.9464 151.728 40.0132C151.002 40.144 150.739 40.2985 150.679 41.1781C150.618 42.2344 150.616 43.2933 150.672 44.3499C150.709 45.2029 151.108 45.6476 151.941 45.8392C152.608 45.9924 153.287 46.0986 153.969 46.1888C154.913 46.3161 155.862 46.4112 156.809 46.5182C156.912 46.5313 157.017 46.5358 157.122 46.5315C157.425 46.5154 157.56 46.3853 157.597 46.0812C157.618 45.9077 157.643 45.7315 157.65 45.5602C157.669 45.1281 157.956 44.8037 158.265 44.7834C158.718 44.754 159.141 45.005 159.244 45.449C159.316 45.7422 159.34 46.0453 159.314 46.3462C159.28 46.7037 159.196 47.0546 159.064 47.3887C158.854 47.9083 158.413 48.1502 157.864 48.2208C157.198 48.3054 156.543 48.1796 155.886 48.1215C155.134 48.0558 154.384 47.9572 153.635 47.86C152.687 47.7369 151.747 47.56 150.872 47.1608C149.665 46.6077 149.054 45.649 148.977 44.3352C148.94 43.7387 148.918 43.1465 148.89 42.5353Z" fill="#2DA0D2"/>
<path d="M137.59 46.0795V45.6677C137.59 43.0003 137.59 40.3328 137.59 37.665C137.59 37.5034 137.617 37.3419 137.629 37.1797C137.673 36.5504 138.142 36.4434 138.677 36.5756C139.001 36.656 139.191 36.8923 139.253 37.214C139.293 37.4192 139.314 37.6278 139.316 37.837C139.323 38.6173 139.316 39.3977 139.316 40.1787C139.316 40.5171 139.333 40.5437 139.651 40.578C140.39 40.6591 141.132 40.7178 141.869 40.8094C142.836 40.9311 143.82 40.9458 144.764 41.2234C145.603 41.4702 146.336 41.8974 146.799 42.661C147.348 43.57 147.406 44.5454 146.977 45.5062C146.622 46.3012 145.905 46.6208 145.077 46.7473C144.141 46.8872 143.222 46.7214 142.3 46.6235C141.595 46.5487 140.891 46.4683 140.186 46.3942C139.447 46.3159 138.707 46.2439 137.968 46.1642C137.84 46.1423 137.714 46.1141 137.59 46.0795ZM139.32 42.2428C139.32 43.0239 139.32 43.7308 139.32 44.4384C139.32 44.5909 139.43 44.6251 139.556 44.6384C140.017 44.685 140.479 44.7335 140.941 44.7839C141.725 44.8692 142.507 44.9845 143.294 45.0335C143.849 45.0633 144.406 45.0484 144.959 44.9887C145.329 44.9524 145.519 44.6818 145.544 44.3154C145.598 43.5903 145.285 43.0854 144.581 42.9015C144.045 42.7617 143.488 42.6953 142.936 42.6218C142.167 42.5218 141.392 42.4456 140.619 42.3631C140.207 42.3219 139.794 42.2869 139.32 42.2428Z" fill="#2DA0D2"/>
<path d="M76.9508 30.0148C76.9508 29.9499 77.0453 29.9682 77.0919 29.9723C77.4172 30.001 77.7084 30.0242 77.999 30.0554C78.7952 30.1407 79.5911 30.2288 80.3868 30.3197C81.1141 30.4008 81.8413 30.4847 82.5685 30.5665C83.0761 30.6232 83.5844 30.677 84.0928 30.7337C84.8783 30.8204 85.6633 30.9071 86.4478 30.9938C86.5981 31.0099 86.7499 31.0134 86.9002 31.0273C86.9296 31.0262 86.9589 31.0316 86.986 31.043C87.0132 31.0545 87.0374 31.0718 87.0571 31.0937C87.0768 31.1156 87.0914 31.1415 87.0999 31.1697C87.1085 31.1979 87.1107 31.2276 87.1065 31.2567C87.1065 31.3266 87.1065 31.3965 87.1065 31.4665V39.6783C87.1065 39.7482 87.1065 39.8181 87.1065 39.888C87.0946 40.3076 86.9268 40.5593 86.6114 40.6383C86.2296 40.7348 85.7311 40.5551 85.5906 40.2223C85.4907 39.9886 85.4369 39.7379 85.4318 39.4839C85.4199 37.3862 85.4248 35.2885 85.4248 33.1908V32.946C85.4248 32.8302 85.4299 32.7514 85.4248 32.6965C85.4248 32.6105 85.4248 32.5862 85.0521 32.5384C84.1306 32.4201 83.2062 32.3244 82.2832 32.2202C81.579 32.1405 80.8735 32.0678 80.1694 31.9916C79.7764 31.9496 79.5078 31.9042 79.1148 31.8657C79.0134 31.8552 78.6332 31.7723 78.6332 31.9052V32.2853C78.6332 34.4053 78.6332 36.5264 78.6332 38.6483C78.638 38.7763 78.6347 38.9046 78.6234 39.0322C78.5709 39.4314 78.4038 39.6328 78.0759 39.7125C77.7298 39.7964 77.2934 39.6475 77.1221 39.3545C77.044 39.2003 76.9891 39.0353 76.9592 38.8651C76.9448 38.761 76.942 38.6557 76.9508 38.5511V30.0148Z" fill="#2DA0D2"/>
<path d="M132.091 37.7204C132.074 37.7553 132.075 38.3441 132.074 38.6301C132.07 40.5763 132.07 42.5223 132.074 44.468C132.074 44.5841 132.074 44.7008 132.074 44.8176C132.056 45.2616 131.794 45.5245 131.35 45.5497C130.62 45.5896 130.192 45.1882 130.187 44.4365C130.18 43.4695 130.187 42.5024 130.187 41.5354C130.187 40.3117 130.187 39.0881 130.187 37.8644C130.187 37.6982 130.19 37.5712 130.187 37.5106C130.187 37.4397 130.127 37.4529 129.806 37.426C128.972 37.3561 128.141 37.2491 127.311 37.1533C127.195 37.1402 127.081 37.1168 126.97 37.0834C126.33 36.8883 126.241 36.3841 126.373 35.8597C126.443 35.5674 126.812 35.3982 127.173 35.4367C128.468 35.5765 129.762 35.714 131.056 35.8492C132.338 35.9891 133.62 36.1289 134.902 36.2688C135.063 36.2872 135.223 36.3245 135.376 36.38C135.837 36.5478 136.018 36.8925 135.962 37.4057C135.922 37.7861 135.678 37.9987 135.263 37.9924C134.849 37.9861 134.452 37.935 134.048 37.8938C133.528 37.8407 133.008 37.7756 132.489 37.7204C132.38 37.712 132.091 37.6657 132.091 37.7204Z" fill="#2DA0D2"/>
</svg>
