<svg width="19" height="19" viewBox="0 0 19 19" fill="none" xmlns="http://www.w3.org/2000/svg">
<path d="M12.885 11.1781L10.2359 9.1913V5.14408C10.2359 4.73714 9.90698 4.4082 9.50004 4.4082C9.0931 4.4082 8.76416 4.73714 8.76416 5.14408V9.55928C8.76416 9.79107 8.87308 10.0096 9.05851 10.148L12.002 12.3556C12.1344 12.4549 12.289 12.5028 12.4427 12.5028C12.6672 12.5028 12.8879 12.4019 13.0322 12.2077C13.2765 11.8831 13.2103 11.4217 12.885 11.1781Z" fill="#03255A"/>
<path d="M9.5 0C4.26138 0 0 4.26138 0 9.5C0 14.7386 4.26138 19 9.5 19C14.7386 19 19 14.7386 19 9.5C19 4.26138 14.7386 0 9.5 0ZM9.5 17.5283C5.07378 17.5283 1.47172 13.9262 1.47172 9.5C1.47172 5.07378 5.07378 1.47172 9.5 1.47172C13.927 1.47172 17.5283 5.07378 17.5283 9.5C17.5283 13.9262 13.9262 17.5283 9.5 17.5283Z" fill="#03255A"/>
</svg>
