<svg width="21" height="19" viewBox="0 0 21 19" fill="none" xmlns="http://www.w3.org/2000/svg">
<path d="M10.2622 1.15881C10.3371 0.928487 10.6629 0.928484 10.7378 1.15881L12.3686 6.17807C12.6029 6.89911 13.2748 7.38729 14.033 7.38729H19.3105C19.5527 7.38729 19.6534 7.69719 19.4575 7.83954L15.1878 10.9416C14.5745 11.3872 14.3178 12.1771 14.5521 12.8982L16.183 17.9174C16.2578 18.1478 15.9942 18.3393 15.7983 18.1969L11.5286 15.0949C10.9153 14.6492 10.0847 14.6492 9.47138 15.0949L5.20174 18.1969C5.00582 18.3393 4.74219 18.1478 4.81703 17.9174L6.44789 12.8982C6.68217 12.1771 6.42552 11.3872 5.81216 10.9416L1.54253 7.83954C1.3466 7.69719 1.44729 7.38729 1.68948 7.38729H6.96703C7.72518 7.38729 8.3971 6.89911 8.63138 6.17807L10.2622 1.15881Z" stroke="#f6f6f6" stroke-width="1.5"/>
</svg>
