<svg width="15" height="9" viewBox="0 0 15 9" fill="none" xmlns="http://www.w3.org/2000/svg">
<path d="M7.64207 6.57046L13.2396 0.97294L13.2396 0.972928C13.5369 0.675691 14.0188 0.675691 14.3161 0.972928L14.3162 0.972981C14.6133 1.27028 14.6134 1.75218 14.3162 2.04946L14.3161 2.04949L8.18035 8.18528L8.18032 8.18531C7.88304 8.4825 7.4011 8.4825 7.10383 8.18531L7.1038 8.18528L0.968001 2.04949L0.967975 2.04951L0.964952 2.04638C0.672858 1.74394 0.681245 1.26199 0.983688 0.969891L0.983699 0.969881C1.27872 0.684981 1.74644 0.684963 2.04145 0.969894L2.04148 0.969867L2.04455 0.97294L7.64207 6.57046Z" fill="#0095D9" stroke="#0095D9" stroke-width="0.5"/>
</svg>
