<svg width="94" height="21" viewBox="0 0 94 21" fill="none" xmlns="http://www.w3.org/2000/svg">
<path d="M3.45996 15.0729C3.97698 15.7733 4.44753 16.511 4.86821 17.2808C5.22739 18.0047 5.37711 18.4956 5.63964 19.3679C5.8006 19.8498 5.9461 19.9937 6.25889 19.9937C6.59979 19.9937 6.75443 19.749 6.87392 19.3705C7.12204 18.5468 7.31674 17.9181 7.62391 17.3241C8.22664 16.1772 8.97557 15.1581 9.7115 14.1786C9.91077 13.9014 11.1988 12.2864 11.7787 11.0122C11.7787 11.0122 12.4914 9.6124 12.4914 7.65748C12.4914 5.82883 11.7886 4.56055 11.7886 4.56055L9.76492 5.1366L8.53591 8.57722L8.23191 9.05166L8.17111 9.13758L8.09028 9.24517L7.94829 9.41702L7.74551 9.63257L6.6511 10.5803L3.91508 12.2595L3.45996 15.0729Z" fill="#34A853"/>
<path d="M0.635742 10.7763C1.30349 12.3976 2.59119 13.8228 3.46243 15.0735L8.08994 9.24685C8.08994 9.24685 7.438 10.1531 6.25538 10.1531C4.93816 10.1531 3.87398 9.03504 3.87398 7.62517C3.87398 6.65836 4.42118 5.99414 4.42118 5.99414L1.27994 6.88885L0.635742 10.7763Z" fill="#FBBC04"/>
<path d="M8.14249 1.2959C9.67937 1.82264 10.9948 2.92842 11.7905 4.55907L8.09224 9.2437C8.09224 9.2437 8.63944 8.56753 8.63944 7.60669C8.63944 6.16395 7.49653 5.08619 6.2619 5.08619C5.09439 5.08619 4.42383 5.99098 4.42383 5.99098V3.03974L8.14249 1.2959Z" fill="#4285F4"/>
<path d="M1.48438 3.36568C2.40235 2.19826 4.01761 0.996094 6.24437 0.996094C7.32472 0.996094 8.13867 1.29757 8.13867 1.29757L4.42036 5.9934H1.78592L1.48438 3.36568Z" fill="#1A73E8"/>
<path d="M0.636791 10.7758C0.636791 10.7758 0.0224609 9.49709 0.0224609 7.64453C0.0224609 5.89359 0.662798 4.36305 1.48448 3.36523L4.42258 5.99333L0.636791 10.7758Z" fill="#EA4335"/>
<path d="M63.8546 16.4045V6.41993H65.0615L68.3282 12.4999H68.3809L71.6476 6.41993H72.8544V16.4045H71.6476V10.4777L71.7003 8.80408H71.6476L68.7095 14.2844H68.0013L65.0632 8.80408H65.0105L65.0632 10.4777V16.4041L63.8546 16.4045ZM76.383 16.6137C75.7012 16.6137 75.1301 16.4045 74.6714 15.9861C74.2128 15.5677 73.9826 15.0148 73.9826 14.3266C73.9826 13.5795 74.2532 12.9997 74.7958 12.5764C75.3385 12.1532 76.0069 11.9421 76.7991 11.9421C77.5076 11.9421 78.0889 12.0815 78.544 12.3605V12.1651C78.544 11.663 78.3824 11.2611 78.059 10.9592C77.7357 10.6574 77.3375 10.5061 76.8648 10.5061C76.5151 10.5061 76.1985 10.5943 75.9141 10.7676C75.6298 10.9409 75.4355 11.186 75.3307 11.4923L74.2286 10.9906C74.3773 10.5816 74.6704 10.2061 75.1072 9.8542C75.5441 9.50229 76.1215 9.3312 76.8388 9.3312C77.6612 9.3312 78.343 9.5871 78.8853 10.0981C79.4276 10.6092 79.6985 11.3302 79.6985 12.26V16.3914H78.5444V15.4425H78.4917C78.0102 16.227 77.3062 16.6137 76.383 16.6137ZM76.5798 15.4425C77.0781 15.4425 77.5304 15.2445 77.9374 14.85C78.3444 14.4555 78.5475 13.9908 78.5475 13.4491C78.2066 13.1514 77.6949 13.0027 77.0128 13.0027C76.4266 13.0027 75.9848 13.1372 75.6878 13.4073C75.3908 13.6774 75.2415 13.993 75.2415 14.3554C75.2415 14.6901 75.3771 14.955 75.6481 15.1504C75.9191 15.3457 76.2297 15.4432 76.5794 15.4432L76.5798 15.4425ZM84.221 16.6137C83.7314 16.6137 83.2917 16.5016 82.903 16.2789C82.5143 16.0563 82.223 15.7769 82.0314 15.4421H81.9787L82.0314 16.3903V19.4024H80.8246V9.55796H81.9794V10.5061H82.0321C82.2244 10.1714 82.515 9.89268 82.9037 9.66928C83.2924 9.44588 83.7324 9.33456 84.2217 9.33456C85.0525 9.33456 85.7698 9.6831 86.3732 10.3806C86.9766 11.078 87.2785 11.9421 87.2785 12.9743C87.2785 14.0065 86.9763 14.8709 86.3732 15.568C85.7701 16.2651 85.0525 16.614 84.2217 16.614L84.221 16.6137ZM84.0241 15.4425C84.584 15.4425 85.0644 15.2169 85.4672 14.7701C85.8699 14.3233 86.0706 13.7218 86.0706 12.978C86.0706 12.2342 85.8696 11.6332 85.4672 11.186C85.0648 10.7388 84.5836 10.5136 84.0241 10.5136C83.4558 10.5136 82.9723 10.7366 82.5744 11.183C82.1766 11.6294 81.978 12.229 81.978 12.9818C81.978 13.7345 82.1769 14.3341 82.5744 14.7805C82.9719 15.2269 83.4555 15.45 84.0241 15.45V15.4425ZM90.4855 16.6137C89.7685 16.6137 89.176 16.4276 88.7079 16.0559C88.2397 15.6842 87.8995 15.2191 87.6781 14.6614L88.7536 14.1869C89.0945 15.0461 89.6765 15.4694 90.4989 15.4694C90.8749 15.4694 91.1835 15.3812 91.4239 15.2079C91.6643 15.0346 91.7848 14.7988 91.7848 14.5108C91.7848 14.0648 91.4917 13.7622 90.9055 13.6045L89.6069 13.2702C89.1957 13.1588 88.8066 12.947 88.4394 12.6358C88.0721 12.3246 87.8883 11.9036 87.8883 11.3743C87.8883 10.7702 88.1396 10.2797 88.6425 9.90239C89.1454 9.52508 89.7425 9.33755 90.4331 9.33755C91.0014 9.33755 91.5086 9.47465 91.9549 9.74848C92.3923 10.0122 92.7306 10.4284 92.9126 10.9267L91.8628 11.387C91.6273 10.7829 91.1371 10.4807 90.3938 10.4807C90.0353 10.4807 89.733 10.5599 89.4888 10.7175C89.2445 10.8752 89.1215 11.0896 89.1215 11.3593C89.1215 11.7497 89.4027 12.0146 89.9741 12.1543L91.2464 12.4748C91.8498 12.6235 92.2958 12.8794 92.5843 13.2418C92.8729 13.6041 93.0173 14.0136 93.0173 14.4693C93.0173 15.0828 92.7812 15.5901 92.3088 16.0032C91.8365 16.4164 91.2288 16.6166 90.4813 16.6166L90.4855 16.6137ZM28.0899 10.4515H23.1394V12.0131H26.6539C26.4806 14.2022 24.7666 15.1362 23.1489 15.1362C22.6363 15.1387 22.1284 15.0325 21.6548 14.824C21.1811 14.6155 20.7514 14.3088 20.3905 13.9218C20.0297 13.5348 19.745 13.0753 19.5531 12.57C19.3612 12.0647 19.2659 11.5239 19.2728 10.979C19.2728 8.61543 20.9942 6.795 23.1528 6.795C24.8186 6.795 25.7992 7.92394 25.7992 7.92394L26.8279 6.79201C26.8279 6.79201 25.5075 5.23047 23.1001 5.23047C20.0344 5.23047 17.6621 7.9811 17.6621 10.9521C17.6621 13.863 19.8938 16.7026 23.1784 16.7026C26.0673 16.7026 28.183 14.5986 28.183 11.4875C28.183 10.8315 28.0934 10.4519 28.0934 10.4519L28.0899 10.4515Z" fill="#767676"/>
<path d="M32.1541 9.34059C30.1227 9.34059 28.667 11.0284 28.667 12.9971C28.667 14.995 30.0791 16.7142 32.1815 16.7142C34.0817 16.7142 35.6383 15.1706 35.6383 13.0397C35.6383 10.5977 33.8273 9.33984 32.1576 9.33984L32.1541 9.34059ZM32.1741 10.7889C33.1732 10.7889 34.1197 11.6474 34.1197 13.0304C34.1197 14.3842 33.1768 15.2681 32.1692 15.2681C31.0621 15.2681 30.1888 14.3256 30.1888 13.0203C30.1888 11.7434 31.0516 10.7893 32.1737 10.7893L32.1741 10.7889Z" fill="#767676"/>
<path d="M39.702 9.34059C37.6707 9.34059 36.215 11.0284 36.215 12.9971C36.215 14.995 37.6271 16.7142 39.7294 16.7142C41.6297 16.7142 43.1863 15.1706 43.1863 13.0397C43.1863 10.5977 41.3753 9.33984 39.7055 9.33984L39.702 9.34059ZM39.7221 10.7889C40.7212 10.7889 41.6677 11.6474 41.6677 13.0304C41.6677 14.3842 40.7247 15.2681 39.7171 15.2681C38.6101 15.2681 37.7367 14.3256 37.7367 13.0203C37.7367 11.7434 38.5995 10.7893 39.7217 10.7893L39.7221 10.7889Z" fill="#767676"/>
<path d="M47.1334 9.3408C45.269 9.3408 43.8031 11.0768 43.8031 13.025C43.8031 15.244 45.502 16.7159 47.1007 16.7159C48.0893 16.7159 48.6148 16.2986 49.0035 15.8193V16.5463C49.0035 17.8183 48.2767 18.5804 47.1759 18.5804C46.1163 18.5804 45.5853 17.7429 45.4004 17.2677L44.0674 17.8602C44.5404 18.923 45.4922 20.0318 47.1875 20.0318C49.0414 20.0318 50.4546 18.7907 50.4546 16.1839V9.56046H49.0003V10.1851C48.5533 9.67328 47.9417 9.33893 47.1306 9.33893L47.1334 9.3408ZM47.2684 10.7865C48.1828 10.7865 49.1212 11.6159 49.1212 13.0328C49.1212 14.4733 48.1846 15.2668 47.248 15.2668C46.2541 15.2668 45.3291 14.4091 45.3291 13.0463C45.3291 11.6267 46.2892 10.7862 47.2684 10.7862V10.7865ZM56.9451 9.3408C55.1865 9.3408 53.7093 10.8276 53.7093 13.0231C53.7093 15.3453 55.3552 16.723 57.1138 16.723C58.5814 16.723 59.4826 15.8694 60.0196 15.1047L58.8246 14.2567C58.5136 14.77 57.9931 15.272 57.1254 15.272C56.1501 15.272 55.702 14.7042 55.4244 14.1543L60.0754 12.0996L59.834 11.5019C59.3841 10.3244 58.3361 9.34117 56.9521 9.34117L56.9451 9.3408ZM57.0056 10.7589C57.6396 10.7589 58.095 11.1175 58.2894 11.5464L55.1833 12.9264C55.0498 11.8579 56.0015 10.7589 57.0059 10.7589H57.0056ZM51.4878 16.5033H53.0152V5.63232H51.4878V16.5033Z" fill="#767676"/>
</svg>
