<svg width="57" height="57" viewBox="0 0 57 57" fill="none" xmlns="http://www.w3.org/2000/svg">
<path d="M4.21969 42.4805C2.17801 42.4805 0.517578 44.1409 0.517578 46.1826C0.517578 48.2243 2.17801 49.8847 4.21969 49.8847C6.26148 49.8847 7.9218 48.2243 7.9218 46.1826C7.9218 44.1409 6.26148 42.4805 4.21969 42.4805ZM4.21969 48.0337C3.19885 48.0337 2.36858 47.2035 2.36858 46.1826C2.36858 45.1616 3.19874 44.3315 4.21969 44.3315C5.24053 44.3315 6.0708 45.1616 6.0708 46.1826C6.0708 47.2035 5.24064 48.0337 4.21969 48.0337Z" fill="#8EC8E1"/>
<path d="M26.6561 27.0943L20.5226 22.3139C20.119 22.0019 19.5378 22.0713 19.2231 22.4749C18.9093 22.8785 18.9806 23.4597 19.3842 23.7744L25.5176 28.5548C25.6871 28.6863 25.887 28.7502 26.086 28.7502C26.3618 28.7502 26.6339 28.6281 26.8171 28.3939C27.1309 27.9902 27.0596 27.4089 26.6561 27.0943Z" fill="#8EC8E1"/>
<path d="M22.7297 39.7041C20.6879 39.7041 19.0276 41.3645 19.0276 43.4062C19.0276 45.448 20.688 47.1083 22.7297 47.1083C24.7714 47.1083 26.4318 45.4479 26.4318 43.4062C26.4318 41.3645 24.7715 39.7041 22.7297 39.7041ZM22.7297 45.2573C21.7089 45.2573 20.8786 44.4272 20.8786 43.4062C20.8786 42.3854 21.7088 41.5551 22.7297 41.5551C23.7505 41.5551 24.5808 42.3853 24.5808 43.4062C24.5808 44.4272 23.7505 45.2573 22.7297 45.2573Z" fill="#8EC8E1"/>
<path d="M25.4143 48.959H20.0444C18.4627 48.959 17.1761 50.2113 17.1761 51.7495V54.1892C17.1761 54.5196 17.352 54.825 17.638 54.9907C19.1892 55.8885 20.9495 56.3633 22.7294 56.3633C24.5092 56.3633 26.2695 55.8885 27.8208 54.9907C28.1068 54.826 28.2826 54.5197 28.2826 54.1902V51.7505C28.2826 50.2113 26.9961 48.959 25.4143 48.959ZM26.4315 53.6376C24.1278 54.7852 21.3309 54.7852 19.0271 53.6376V51.7505C19.0271 51.2321 19.4834 50.8101 20.0443 50.8101H25.4142C25.9751 50.8101 26.4314 51.2321 26.4314 51.7505V53.6376H26.4315Z" fill="#8EC8E1"/>
<path d="M10.6985 12.8633C5.0851 12.8633 0.517578 17.4308 0.517578 23.0442C0.517578 28.6576 5.0851 33.2252 10.6985 33.2252C16.3119 33.2252 20.8795 28.6576 20.8795 23.0442C20.8794 17.4308 16.3118 12.8633 10.6985 12.8633ZM10.6985 31.3741C6.10507 31.3741 2.36869 27.6377 2.36869 23.0442C2.36869 18.4508 6.10507 14.7144 10.6985 14.7144C15.292 14.7144 19.0284 18.4508 19.0284 23.0442C19.0284 27.6377 15.292 31.3741 10.6985 31.3741Z" fill="#8EC8E1"/>
<path d="M10.6992 16.5659C8.6574 16.5659 6.99707 18.2264 6.99707 20.268C6.99707 22.3097 8.65751 23.9701 10.6992 23.9701C12.741 23.9701 14.4013 22.3097 14.4013 20.268C14.4013 18.2264 12.7409 16.5659 10.6992 16.5659ZM10.6992 22.1191C9.67834 22.1191 8.84807 21.289 8.84807 20.268C8.84807 19.2471 9.67824 18.4169 10.6992 18.4169C11.72 18.4169 12.5503 19.2471 12.5503 20.268C12.5503 21.289 11.72 22.1191 10.6992 22.1191Z" fill="#8EC8E1"/>
<path d="M13.3827 25.8208H8.01279C6.4311 25.8208 5.14453 27.0731 5.14453 28.6113V31.051C5.14453 31.3814 5.32035 31.6868 5.60636 31.8526C7.15757 32.7503 8.9179 33.2251 10.6978 33.2251C12.4776 33.2251 14.2379 32.7503 15.7891 31.8526C16.0752 31.6878 16.251 31.3814 16.251 31.052V28.6123C16.251 27.0731 14.9644 25.8208 13.3827 25.8208ZM14.3999 30.4994C12.0963 31.647 9.29925 31.647 6.99553 30.4994V28.6123C6.99553 28.0939 7.45183 27.6719 8.01268 27.6719H13.3826C13.9435 27.6719 14.3998 28.0939 14.3998 28.6123V30.4994H14.3999Z" fill="#8EC8E1"/>
<path d="M24.3595 10.4099C24.0273 10.023 23.4432 9.97668 23.0545 10.309L16.6405 15.7975C16.2518 16.1297 16.2064 16.7138 16.5386 17.1025C16.7219 17.3163 16.9811 17.4265 17.242 17.4265C17.4549 17.4265 17.6687 17.3534 17.8437 17.2033L24.2576 11.7149C24.6465 11.3827 24.6918 10.7986 24.3595 10.4099Z" fill="#8EC8E1"/>
<path d="M13.4742 45.2573H6.99533C6.48447 45.2573 6.06982 45.671 6.06982 46.1828C6.06982 46.6947 6.48447 47.1083 6.99533 47.1083H13.474C13.9849 47.1083 14.3995 46.6947 14.3995 46.1828C14.3995 45.671 13.985 45.2573 13.4742 45.2573Z" fill="#8EC8E1"/>
<path d="M10.6982 0.831543C8.65641 0.831543 6.99597 2.49198 6.99597 4.53366C6.99597 6.57544 8.65641 8.23577 10.6981 8.23577C12.7399 8.23577 14.4002 6.57533 14.4002 4.53366C14.4003 2.49198 12.7399 0.831543 10.6982 0.831543ZM10.6982 6.38477C9.67735 6.38477 8.84708 5.5546 8.84708 4.53366C8.84708 3.51282 9.67724 2.68254 10.6982 2.68254C11.719 2.68254 12.5493 3.51271 12.5493 4.53366C12.5492 5.5546 11.719 6.38477 10.6982 6.38477Z" fill="#8EC8E1"/>
<path d="M10.6992 6.38477C10.1883 6.38477 9.77368 6.79844 9.77368 7.31027V13.789C9.77368 14.3008 10.1883 14.7145 10.6992 14.7145C11.21 14.7145 11.6247 14.3008 11.6247 13.789V7.31027C11.6247 6.79844 11.21 6.38477 10.6992 6.38477Z" fill="#8EC8E1"/>
<path d="M52.3473 11.938C50.3055 11.938 48.6451 13.5984 48.6451 15.6401C48.6451 17.6818 50.3056 19.3422 52.3473 19.3422C54.3889 19.3422 56.0494 17.6819 56.0494 15.6401C56.0494 13.5984 54.3889 11.938 52.3473 11.938ZM52.3473 17.4912C51.3264 17.4912 50.4961 16.661 50.4961 15.6401C50.4961 14.6193 51.3263 13.789 52.3473 13.789C53.3682 13.789 54.1984 14.6192 54.1984 15.6401C54.1983 16.661 53.3681 17.4912 52.3473 17.4912Z" fill="#8EC8E1"/>
<path d="M50.5539 13.1075L42.5693 9.25271C42.1083 9.0296 41.5558 9.22397 41.3337 9.68406C41.1116 10.144 41.305 10.6975 41.7651 10.9197L49.7497 14.7745C49.8793 14.8374 50.0163 14.867 50.1513 14.867C50.4955 14.867 50.826 14.6745 50.9851 14.3431C51.2073 13.8831 51.0139 13.3297 50.5539 13.1075Z" fill="#8EC8E1"/>
<path d="M42.1681 48.959C40.1263 48.959 38.4659 50.6194 38.4659 52.6611C38.4659 54.7028 40.1263 56.3633 42.1681 56.3633C44.2098 56.3633 45.8702 54.7029 45.8702 52.6612C45.8702 50.6195 44.2098 48.959 42.1681 48.959ZM42.1681 54.5122C41.1472 54.5122 40.3169 53.682 40.3169 52.6611C40.3169 51.6401 41.1472 50.8101 42.1681 50.8101C43.1889 50.8101 44.0192 51.6403 44.0192 52.6612C44.0192 53.6822 43.1889 54.5122 42.1681 54.5122Z" fill="#8EC8E1"/>
<path d="M40.3726 50.1292L32.388 46.2743C31.9271 46.0512 31.3746 46.2447 31.1524 46.7057C30.9303 47.1657 31.1237 47.7192 31.5838 47.9413L39.5684 51.7961C39.698 51.859 39.835 51.8886 39.97 51.8886C40.3143 51.8886 40.6448 51.6961 40.804 51.3648C41.026 50.9047 40.8326 50.3513 40.3726 50.1292Z" fill="#8EC8E1"/>
<path d="M28.2829 25.8208C26.2411 25.8208 24.5808 27.4812 24.5808 29.5229C24.5808 31.5647 26.2412 33.225 28.2829 33.225C30.3247 33.225 31.985 31.5646 31.985 29.5229C31.985 27.4812 30.3247 25.8208 28.2829 25.8208ZM28.2829 31.374C27.2621 31.374 26.4318 30.5439 26.4318 29.5229C26.4318 28.5021 27.262 27.6718 28.2829 27.6718C29.3038 27.6718 30.134 28.502 30.134 29.5229C30.134 30.5439 29.3038 31.374 28.2829 31.374Z" fill="#8EC8E1"/>
<path d="M44.943 24.8955C39.3296 24.8955 34.7621 29.463 34.7621 35.0765C34.7621 40.6899 39.3296 45.2574 44.943 45.2574C50.5564 45.2574 55.124 40.6899 55.124 35.0765C55.124 29.463 50.5564 24.8955 44.943 24.8955ZM44.943 43.4062C40.3496 43.4062 36.6132 39.6698 36.6132 35.0763C36.6132 30.4829 40.3496 26.7465 44.943 26.7465C49.5365 26.7465 53.2729 30.4829 53.2729 35.0763C53.2729 39.6698 49.5365 43.4062 44.943 43.4062Z" fill="#8EC8E1"/>
<path d="M44.9437 28.5977C42.9019 28.5977 41.2416 30.2581 41.2416 32.2998C41.2416 34.3416 42.902 36.0019 44.9437 36.0019C46.9855 36.0019 48.6458 34.3414 48.6458 32.2998C48.6458 30.2581 46.9855 28.5977 44.9437 28.5977ZM44.9437 34.1509C43.9229 34.1509 43.0926 33.3207 43.0926 32.2998C43.0926 31.2789 43.9227 30.4487 44.9437 30.4487C45.9645 30.4487 46.7948 31.2788 46.7948 32.2998C46.7948 33.3207 45.9645 34.1509 44.9437 34.1509Z" fill="#8EC8E1"/>
<path d="M47.6273 37.853H42.2574C40.6757 37.853 39.3892 39.1053 39.3892 40.6435V43.0832C39.3892 43.4136 39.565 43.7191 39.851 43.8848C41.4022 44.7825 43.1625 45.2574 44.9424 45.2574C46.7222 45.2574 48.4826 44.7825 50.0338 43.8848C50.3198 43.72 50.4956 43.4136 50.4956 43.0842V40.6445C50.4956 39.1053 49.2091 37.853 47.6273 37.853ZM48.6445 42.5316C46.3409 43.6792 43.5439 43.6792 41.2402 42.5316V40.6445C41.2402 40.1262 41.6965 39.7041 42.2573 39.7041H47.6272C48.1881 39.7041 48.6444 40.1262 48.6444 40.6445V42.5316H48.6445Z" fill="#8EC8E1"/>
<path d="M22.7301 36.002C17.1167 36.002 12.5492 40.5695 12.5492 46.1829C12.5492 51.7963 17.1167 56.3637 22.7301 56.3637C28.3436 56.3637 32.9111 51.7962 32.9111 46.1828C32.9111 40.5694 28.3436 36.002 22.7301 36.002ZM22.7301 54.5126C18.1367 54.5126 14.4003 50.7762 14.4003 46.1828C14.4003 41.5893 18.1367 37.853 22.7301 37.853C27.3236 37.853 31.06 41.5893 31.06 46.1828C31.06 50.7762 27.3236 54.5126 22.7301 54.5126Z" fill="#8EC8E1"/>
<path d="M32.9114 0.831543C27.298 0.831543 22.7305 5.39907 22.7305 11.0125C22.7305 16.6259 27.298 21.1934 32.9114 21.1934C38.5248 21.1934 43.0924 16.6259 43.0924 11.0125C43.0922 5.39907 38.5247 0.831543 32.9114 0.831543ZM32.9114 19.3423C28.318 19.3423 24.5816 15.6059 24.5816 11.0125C24.5816 6.41904 28.318 2.68265 32.9114 2.68265C37.5049 2.68265 41.2412 6.41904 41.2412 11.0125C41.2412 15.6059 37.5049 19.3423 32.9114 19.3423Z" fill="#8EC8E1"/>
<path d="M32.911 4.53369C30.8692 4.53369 29.2089 6.19413 29.2089 8.2358C29.2089 10.2775 30.8693 11.9379 32.911 11.9379C34.9527 11.9379 36.6131 10.2776 36.6131 8.23591C36.6131 6.19423 34.9527 4.53369 32.911 4.53369ZM32.911 10.0869C31.8901 10.0869 31.0599 9.25675 31.0599 8.2358C31.0599 7.21497 31.89 6.38469 32.911 6.38469C33.9319 6.38469 34.7621 7.21486 34.7621 8.2358C34.762 9.25675 33.9318 10.0869 32.911 10.0869Z" fill="#8EC8E1"/>
<path d="M35.5966 13.7891H30.2267C28.645 13.7891 27.3584 15.0414 27.3584 16.5796V19.0193C27.3584 19.3497 27.5342 19.6551 27.8202 19.8208C29.3714 20.7186 31.1318 21.1934 32.9116 21.1934C34.6915 21.1934 36.4518 20.7186 38.003 19.8208C38.289 19.6561 38.4648 19.3497 38.4648 19.0203V16.5805C38.4648 15.0412 37.1783 13.7891 35.5966 13.7891ZM36.6137 18.4677C34.3101 19.6153 31.5131 19.6153 29.2094 18.4677V16.5805C29.2094 16.0622 29.6657 15.6402 30.2266 15.6402H35.5965C36.1573 15.6402 36.6136 16.0622 36.6136 16.5805V18.4677H36.6137Z" fill="#8EC8E1"/>
<path d="M44.759 25.2666L39.2058 17.8622C38.8994 17.4523 38.3191 17.3717 37.91 17.6771C37.5009 17.9835 37.4185 18.5638 37.7248 18.9719L43.2781 26.3762C43.4604 26.6188 43.738 26.7464 44.0194 26.7464C44.2119 26.7464 44.4072 26.6862 44.5738 26.5613C44.983 26.255 45.0654 25.6747 44.759 25.2666Z" fill="#8EC8E1"/>
<path d="M37.1624 38.1373C36.856 37.7281 36.2757 37.6458 35.8666 37.9521L30.6966 41.8292C30.2875 42.1356 30.2052 42.7159 30.5114 43.124C30.6938 43.3665 30.9714 43.4942 31.2528 43.4942C31.4462 43.4942 31.6405 43.4331 31.8072 43.309L36.9773 39.432C37.3864 39.1258 37.4688 38.5454 37.1624 38.1373Z" fill="#8EC8E1"/>
</svg>
