<svg width="61" height="28" viewBox="0 0 61 28" fill="none" xmlns="http://www.w3.org/2000/svg">
<path d="M29.6321 5.56861C30.1108 5.56861 30.499 5.14234 30.499 4.61634C30.499 4.09034 30.1108 3.66406 29.6321 3.66406H21.843C21.3643 3.66406 20.9762 4.09034 20.9762 4.61634C20.9762 5.14234 21.3642 5.56861 21.843 5.56861H29.6321Z" fill="#8EC8E1"/>
<path d="M57.2798 7.5361H56.5224C56.4023 5.91473 55.0267 4.63146 53.3519 4.63146H51.2067C50.6601 2.43304 48.632 0.807243 46.2731 0.807243H22.4411C21.9625 0.807243 21.5745 1.18968 21.5745 1.66158C21.5745 2.13348 21.9625 2.51592 22.4411 2.51592H46.2731C48.0097 2.51592 49.4752 3.85296 49.6094 5.55992L50.2404 13.5806C50.2756 14.0285 50.6551 14.3687 51.1034 14.3687C51.1259 14.3687 51.1486 14.3679 51.1714 14.3662C51.6485 14.3297 52.0054 13.9188 51.9683 13.4485L51.4092 6.34025H53.352C54.1499 6.34025 54.799 6.98018 54.799 7.76676V19.4311C54.799 20.2177 54.1499 20.8576 53.352 20.8576H52.5513L52.2365 16.8561C52.1994 16.3857 51.7818 16.0321 51.3055 16.0705C50.8285 16.107 50.4716 16.5179 50.5086 16.9883L50.9038 22.0113C50.9807 22.9896 50.6508 23.9251 49.9746 24.6453C49.2985 25.3656 48.3779 25.7623 47.3825 25.7623H40.7206C37.7889 25.7623 36.2887 24.2069 34.8378 22.7026C33.6395 21.4601 32.4003 20.1755 30.499 20.1755C28.5977 20.1755 27.3585 21.4601 26.1602 22.7026C24.7093 24.2069 23.2092 25.7623 20.2774 25.7623H13.6156C12.6202 25.7623 11.6996 25.3656 11.0236 24.6453C10.3475 23.925 10.0174 22.9895 10.0943 22.0113L11.3885 5.55981C11.5227 3.85284 12.9883 2.5158 14.7248 2.5158H18.9748C19.4534 2.5158 19.8414 2.13337 19.8414 1.66147C19.8414 1.18956 19.4535 0.807129 18.9748 0.807129H14.7248C12.3659 0.807129 10.3378 2.43293 9.79119 4.63135H7.64599C5.97128 4.63135 4.5957 5.91462 4.47542 7.53598H3.71804C2.20754 7.5361 0.978516 8.74763 0.978516 10.237V17.0563C0.978516 18.5457 2.20754 19.7573 3.71815 19.7573H4.48327C4.64932 21.3333 6.00438 22.5661 7.64611 22.5661H8.36083C8.42898 23.7642 8.91699 24.9168 9.75163 25.8058C10.745 26.8639 12.1533 27.4708 13.6156 27.4708H20.2774C23.9526 27.4708 25.873 25.4798 27.4162 23.88C28.6097 22.6426 29.3972 21.8841 30.499 21.8841C31.6008 21.8841 32.3883 22.6424 33.5818 23.88C35.1249 25.4798 37.0453 27.4708 40.7206 27.4708H47.3825C48.8448 27.4708 50.2533 26.8639 51.2465 25.8058C52.081 24.9168 52.5691 23.7642 52.6373 22.5661H53.352C54.9937 22.5661 56.3488 21.3331 56.5148 19.7573H57.28C58.7906 19.7573 60.0196 18.5456 60.0196 17.0563V10.237C60.0195 8.74763 58.7905 7.5361 57.2798 7.5361ZM6.19903 19.4311V15.223C6.19903 14.7511 5.81111 14.3686 5.33244 14.3686C4.85377 14.3686 4.46585 14.7511 4.46585 15.223V18.0487H3.71804C3.16303 18.0487 2.71158 17.6035 2.71158 17.0563V10.237C2.71158 9.68984 3.16303 9.24465 3.71804 9.24465H4.46585V11.8057C4.46585 12.2776 4.85377 12.6601 5.33244 12.6601C5.81111 12.6601 6.19903 12.2776 6.19903 11.8057V7.76653C6.19903 6.97995 6.84813 6.34002 7.64599 6.34002H9.58881L8.44674 20.8576H7.64599C6.84825 20.8576 6.19903 20.2177 6.19903 19.4311ZM58.2864 17.0563C58.2864 17.6035 57.835 18.0487 57.28 18.0487H56.5321V9.24465H57.28C57.835 9.24465 58.2864 9.68984 58.2864 10.237V17.0563Z" fill="#8EC8E1"/>
</svg>
