<svg width="47" height="41" viewBox="0 0 47 41" fill="none" xmlns="http://www.w3.org/2000/svg">
<path d="M7.9397 33.5254C6.80086 33.5254 5.87427 34.452 5.87427 35.5908C5.87427 36.7297 6.80086 37.6562 7.9397 37.6562C9.07853 37.6562 10.0051 36.7297 10.0051 35.5908C10.0051 34.452 9.07853 33.5254 7.9397 33.5254ZM7.9397 36.2793C7.56002 36.2793 7.25122 35.9705 7.25122 35.5908C7.25122 35.2111 7.56002 34.9023 7.9397 34.9023C8.31937 34.9023 8.62817 35.2111 8.62817 35.5908C8.62817 35.9705 8.31937 36.2793 7.9397 36.2793Z" fill="#8EC8E1"/>
<path d="M23.5 0C16.034 0 9.95996 6.07402 9.95996 13.54C9.95996 18.0709 12.2179 22.2832 15.9998 24.8079C16.3159 25.0189 16.7436 24.9338 16.9547 24.6175C17.1657 24.3013 17.0806 23.8737 16.7643 23.6627C13.3659 21.3939 11.3369 17.6099 11.3369 13.54C11.3369 6.83327 16.7932 1.37695 23.5 1.37695C30.2068 1.37695 35.6631 6.83327 35.6631 13.54C35.6631 17.6099 33.6341 21.394 30.2357 23.6626C29.9194 23.8737 29.8343 24.3012 30.0453 24.6174C30.178 24.8163 30.3962 24.9238 30.6186 24.9238C30.7499 24.9238 30.8828 24.8862 31.0002 24.8078C34.7821 22.2832 37.04 18.0709 37.04 13.54C37.04 6.07392 30.966 0 23.5 0Z" fill="#8EC8E1"/>
<path d="M23.5 3.8252C18.1433 3.8252 13.7852 8.18334 13.7852 13.5401C13.7852 16.7912 15.4051 19.8135 18.1186 21.6244C18.4349 21.8354 18.8623 21.7502 19.0734 21.4339C19.2844 21.1177 19.1992 20.6902 18.8829 20.4792C16.553 18.9241 15.1621 16.3301 15.1621 13.5401C15.1621 8.9425 18.9025 5.20215 23.5 5.20215C28.0976 5.20215 31.8379 8.9425 31.8379 13.5401C31.8379 16.3301 30.447 18.9241 28.1171 20.4792C27.8009 20.6903 27.7155 21.1177 27.9266 21.4339C28.0593 21.6328 28.2776 21.7404 28.4999 21.7404C28.6313 21.7404 28.764 21.7028 28.8814 21.6244C31.5949 19.8134 33.2149 16.7912 33.2149 13.5401C33.2149 8.18343 28.8567 3.8252 23.5 3.8252Z" fill="#8EC8E1"/>
<path d="M23.5 7.68066C20.2691 7.68066 17.6406 10.3092 17.6406 13.5401C17.6406 15.5026 18.618 17.3252 20.2552 18.4156C20.5717 18.6264 20.999 18.5408 21.2098 18.2242C21.4205 17.9078 21.3348 17.4803 21.0184 17.2696C19.7656 16.4351 19.0177 15.0409 19.0177 13.5401C19.0177 11.0684 21.0285 9.05762 23.5001 9.05762C25.9717 9.05762 27.9826 11.0684 27.9826 13.5401C27.9826 15.0409 27.2346 16.4351 25.9817 17.2696C25.6652 17.4803 25.5795 17.9078 25.7903 18.2242C25.923 18.4234 26.1413 18.5311 26.3639 18.5311C26.4951 18.5311 26.6276 18.4938 26.7449 18.4156C28.3821 17.3252 29.3594 15.5026 29.3594 13.5401C29.3594 10.3093 26.7309 7.68066 23.5 7.68066Z" fill="#8EC8E1"/>
<path d="M42.191 30.8438H38.2181C37.8378 30.8438 37.5296 31.1519 37.5296 31.5322C37.5296 31.9125 37.8378 32.2207 38.2181 32.2207H42.191C44.0834 32.2207 45.623 33.7602 45.623 35.6527V35.6736C45.623 37.5659 44.0835 39.1056 42.191 39.1056H11.75C11.3697 39.1056 11.0615 39.4137 11.0615 39.794C11.0615 40.1744 11.3697 40.4825 11.75 40.4825H42.191C44.8427 40.4825 47 38.3252 47 35.6736V35.6527C47 33.001 44.8427 30.8438 42.191 30.8438Z" fill="#8EC8E1"/>
<path d="M35.1888 30.8435H24.1885V28.5791C24.1885 28.1988 23.8803 27.8906 23.5 27.8906C23.1197 27.8906 22.8115 28.1988 22.8115 28.5791V30.8435H4.80896C2.15732 30.8435 0 33.0008 0 35.6524V35.6733C0 38.3248 2.15732 40.4822 4.80896 40.4822H8.8125C9.19281 40.4822 9.50098 40.1741 9.50098 39.7937C9.50098 39.4134 9.19281 39.1053 8.8125 39.1053H4.80896C2.91648 39.1053 1.37695 37.5657 1.37695 35.6732V35.6523C1.37695 33.7599 2.91648 32.2203 4.80896 32.2203H35.1888C35.5691 32.2203 35.8772 31.9122 35.8772 31.5318C35.8772 31.1515 35.5691 30.8435 35.1888 30.8435Z" fill="#8EC8E1"/>
<path d="M23.5925 11.0156C22.2006 11.0156 21.0681 12.1481 21.0681 13.54C21.0681 14.6593 21.8007 15.6103 22.8113 15.9402V25.6419C22.8113 26.0222 23.1195 26.3304 23.4998 26.3304C23.8801 26.3304 24.1883 26.0222 24.1883 25.6419V15.9928C25.2935 15.7243 26.1169 14.7267 26.1169 13.54C26.1169 12.148 24.9844 11.0156 23.5925 11.0156ZM23.5925 14.6875C22.9598 14.6875 22.4451 14.1728 22.4451 13.54C22.4451 12.9073 22.9598 12.3926 23.5925 12.3926C24.2253 12.3926 24.74 12.9073 24.74 13.54C24.74 14.1728 24.2253 14.6875 23.5925 14.6875Z" fill="#8EC8E1"/>
</svg>
