<svg width="41" height="38" viewBox="0 0 41 38" fill="none" xmlns="http://www.w3.org/2000/svg">
<path d="M5.46545 38H3.46545V40H5.46545V38ZM8.32745 38V40H10.3274V38H8.32745ZM7.37345 1.589L8.64487 0.0451295L8.63993 0.0410837L7.37345 1.589ZM0.430449 0.899997V-1.1H-1.56955V0.899997H0.430449ZM0.430449 3.444H-1.56955V5.444H0.430449V3.444ZM5.25345 3.974L7.0423 3.07957L7.02287 3.0407L7.00176 3.00271L5.25345 3.974ZM5.46545 40H8.32745V36H5.46545V40ZM10.3274 38V4.451H6.32745V38H10.3274ZM10.3274 4.451C10.3274 3.65867 10.362 1.45925 8.64486 0.0451374L6.10204 3.13286C6.12575 3.15239 6.18994 3.21001 6.24657 3.43951C6.30989 3.69612 6.32745 4.01621 6.32745 4.451H10.3274ZM8.63993 0.0410837C8.03324 -0.455293 7.30947 -0.723178 6.7192 -0.872948C6.10225 -1.02949 5.45913 -1.1 4.88245 -1.1V2.9C5.15377 2.9 5.46465 2.93548 5.73545 3.00419C6.03293 3.07967 6.13066 3.15629 6.10697 3.13691L8.63993 0.0410837ZM4.88245 -1.1H0.430449V2.9H4.88245V-1.1ZM-1.56955 0.899997V3.444H2.43045V0.899997H-1.56955ZM0.430449 5.444H4.19345V1.444H0.430449V5.444ZM4.19345 5.444C4.19335 5.444 4.19091 5.444 4.18647 5.44374C4.18213 5.44348 4.17434 5.44289 4.16338 5.44139C4.14409 5.43876 4.09842 5.43115 4.03494 5.40788C3.89095 5.35508 3.65601 5.21686 3.50513 4.94528L7.00176 3.00271C6.15586 1.48009 4.54429 1.444 4.19345 1.444V5.444ZM3.4646 4.86843C3.41546 4.77015 3.39502 4.70134 3.39187 4.69082C3.38685 4.67399 3.38822 4.67558 3.39342 4.70128C3.40418 4.75444 3.41768 4.84211 3.4303 4.9607C3.45583 5.20071 3.46545 5.44807 3.46545 5.564H7.46545C7.46545 5.30892 7.44857 4.92028 7.40785 4.53755C7.38734 4.34477 7.35778 4.12437 7.31388 3.90756C7.27716 3.72617 7.2029 3.40076 7.0423 3.07957L3.4646 4.86843ZM3.46545 5.564V38H7.46545V5.564H3.46545ZM38.2716 38V40H40.2716V38H38.2716ZM38.2716 35.456H40.2716V33.456H38.2716V35.456ZM18.2906 34.29L19.185 36.0789L19.3706 35.9861L19.5332 35.8572L18.2906 34.29ZM36.2046 20.086L35.0046 18.486L34.9831 18.5021L34.962 18.5188L36.2046 20.086ZM38.8016 17.436L37.1572 16.2976L37.1532 16.3034L37.1492 16.3093L38.8016 17.436ZM38.2716 2.861L36.8371 4.25457L36.8396 4.2572L38.2716 2.861ZM17.4426 0.899997V-1.1H15.4426V0.899997H17.4426ZM17.4426 3.444H15.4426V5.444H17.4426V3.444ZM36.4696 5.14L34.8421 6.30249L34.8483 6.31098L36.4696 5.14ZM34.6146 17.913L35.8552 19.4818L35.864 19.4747L34.6146 17.913ZM16.1176 32.541L17.3503 34.116L17.3582 34.1097L16.1176 32.541ZM17.4426 40H38.2716V36H17.4426V40ZM40.2716 38V35.456H36.2716V38H40.2716ZM38.2716 33.456H18.1316V37.456H38.2716V33.456ZM18.1316 33.456C18.0827 33.456 18.152 33.4539 18.242 33.4653C18.3344 33.477 18.5381 33.5121 18.7747 33.6383C19.0361 33.7777 19.2927 34.0057 19.4654 34.3246C19.6283 34.6253 19.6546 34.8922 19.6546 35.032H15.6546C15.6546 35.3838 15.7207 35.8097 15.9482 36.2297C16.1855 36.6678 16.5315 36.9753 16.8923 37.1677C17.5003 37.4919 18.1266 37.456 18.1316 37.456V33.456ZM19.6546 35.032C19.6546 35.3927 19.5503 35.6512 19.5085 35.7463C19.4581 35.8609 19.4092 35.9349 19.3919 35.9602C19.3577 36.0104 19.3457 36.0178 19.3782 35.9838C19.4038 35.957 19.4323 35.9306 19.4497 35.9156C19.4585 35.9081 19.4535 35.9129 19.435 35.9268C19.4258 35.9337 19.4046 35.9494 19.3739 35.9699C19.3509 35.9852 19.2825 36.0301 19.185 36.0789L17.3962 32.5011C17.1159 32.6413 16.8861 32.8446 16.8433 32.8813C16.7316 32.9774 16.6077 33.0934 16.4876 33.2189C16.3743 33.3373 16.2231 33.507 16.0863 33.708C16.0176 33.8087 15.9265 33.9551 15.8467 34.1365C15.7755 34.2985 15.6546 34.6183 15.6546 35.032H19.6546ZM19.5332 35.8572L37.4472 21.6531L34.962 18.5188L17.048 32.7228L19.5332 35.8572ZM37.4046 21.686C37.8996 21.3148 39.4784 19.9937 40.4541 18.5627L37.1492 16.3093C36.5349 17.2103 35.3577 18.2212 35.0046 18.486L37.4046 21.686ZM40.446 18.5744C42.2608 15.953 42.3916 12.839 42.3916 10.599H38.3916C38.3916 12.811 38.2044 14.785 37.1572 16.2976L40.446 18.5744ZM42.3916 10.599C42.3916 9.68593 42.381 8.12082 42.0723 6.47958C41.7689 4.86634 41.1345 2.93236 39.7036 1.4648L36.8396 4.2572C37.4757 4.90963 37.9014 5.94365 38.1412 7.21891C38.3758 8.46618 38.3916 9.71007 38.3916 10.599H42.3916ZM39.7062 1.46743C37.2545 -1.0564 33.9285 -1.1 31.9116 -1.1V2.9C34.0288 2.9 35.6848 3.0684 36.8371 4.25457L39.7062 1.46743ZM31.9116 -1.1H17.4426V2.9H31.9116V-1.1ZM15.4426 0.899997V3.444H19.4426V0.899997H15.4426ZM17.4426 5.444H32.1766V1.444H17.4426V5.444ZM32.1766 5.444C33.2287 5.444 33.861 5.63635 34.2248 5.81296C34.5799 5.98533 34.7534 6.17816 34.8422 6.30248L38.0971 3.97752C37.1519 2.65426 35.3479 1.444 32.1766 1.444V5.444ZM34.8483 6.31098C34.9489 6.45038 35.1096 6.75783 35.233 7.4875C35.3575 8.22382 35.4236 9.25896 35.4236 10.758H39.4236C39.4236 9.18304 39.3572 7.88617 39.177 6.8205C38.9956 5.74817 38.6793 4.78362 38.091 3.96902L34.8483 6.31098ZM35.4236 10.758C35.4236 12.6703 35.2505 13.7229 34.9603 14.4395C34.6979 15.0876 34.2737 15.6245 33.3652 16.3513L35.864 19.4747C37.0755 18.5055 38.0558 17.4524 38.6679 15.9407C39.2523 14.4976 39.4236 12.8207 39.4236 10.758H35.4236ZM33.374 16.3443L14.877 30.9723L17.3582 34.1097L35.8552 19.4817L33.374 16.3443ZM14.885 30.966C14.0543 31.6161 13.4627 32.3525 13.1041 33.1969C12.7521 34.0257 12.6866 34.816 12.6866 35.456H16.6866C16.6866 35.089 16.7271 34.8988 16.7859 34.7604C16.8381 34.6375 16.962 34.4199 17.3502 34.116L14.885 30.966ZM12.6866 35.456C12.6866 35.8872 12.6913 37.0623 13.4068 38.1355C14.2295 39.3697 15.6384 40 17.4426 40V36C16.9946 36 16.7912 35.9256 16.7314 35.898C16.6898 35.8789 16.7122 35.8826 16.735 35.9167C16.746 35.9332 16.7279 35.9144 16.7108 35.8228C16.6932 35.7284 16.6866 35.6147 16.6866 35.456H12.6866Z" fill="#03255A"/>
</svg>
