<svg width="45" height="56" viewBox="0 0 45 56" fill="none" xmlns="http://www.w3.org/2000/svg">
<path d="M44.4137 6.75862C44.4137 3.03172 41.382 0 37.6551 0C33.9282 0 30.8965 3.03172 30.8965 6.75862C30.8965 10.1379 33.3972 12.9476 36.651 13.4303C36.6413 13.5848 36.6413 13.749 36.6317 13.9034C36.5834 14.4345 36.9696 14.9076 37.5006 14.9559C37.5296 14.9559 37.5586 14.9559 37.5875 14.9559C38.0799 14.9559 38.5048 14.5793 38.5434 14.0772C38.5627 13.8648 38.5627 13.6524 38.5723 13.4303C41.8648 12.9959 44.4137 10.1669 44.4137 6.75862ZM37.6551 11.5862C34.9903 11.5862 32.8275 9.42345 32.8275 6.75862C32.8275 4.09379 34.9903 1.93103 37.6551 1.93103C40.3199 1.93103 42.4827 4.09379 42.4827 6.75862C42.4827 9.42345 40.3199 11.5862 37.6551 11.5862Z" fill="#03255A"/>
<path d="M7.76276 42.5697C7.77241 42.4152 7.77241 42.251 7.78207 42.0965C7.79172 41.9517 7.77241 41.8069 7.72414 41.6717V39.6055C8.04276 39.5283 8.32276 39.3062 8.42897 38.9683C8.5931 38.4662 8.78621 37.9738 8.99862 37.491C9.22069 37.0083 8.99862 36.429 8.51586 36.2165C8.25517 36.1007 7.96552 36.12 7.72414 36.2262V14.8786L11.8662 19.0207C12.0593 19.2138 12.3007 19.3103 12.5517 19.3103C12.8028 19.3103 13.0441 19.2138 13.2372 19.0303C13.6138 18.6538 13.6138 18.0455 13.2372 17.669L8.78621 13.2179C11.5186 12.349 13.5172 9.78069 13.5172 6.75862C13.5172 3.03172 10.4855 0 6.75862 0C3.03172 0 0 3.03172 0 6.75862C0 9.78069 1.99862 12.349 4.74069 13.2083L0.289655 17.6593C-0.0868965 18.0359 -0.0868965 18.6441 0.289655 19.0207C0.473103 19.2138 0.714483 19.3103 0.965517 19.3103C1.21655 19.3103 1.45793 19.2138 1.65103 19.0303L5.7931 14.8786V42.56C2.52 43.0331 0 45.8428 0 49.2414C0 52.9683 3.03172 56 6.75862 56C10.4855 56 13.5172 52.9683 13.5172 49.2414C13.5172 45.8621 11.0166 43.0524 7.76276 42.5697ZM1.93103 6.75862C1.93103 4.09379 4.09379 1.93103 6.75862 1.93103C9.42345 1.93103 11.5862 4.09379 11.5862 6.75862C11.5862 9.42345 9.42345 11.5862 6.75862 11.5862C4.09379 11.5862 1.93103 9.42345 1.93103 6.75862ZM6.75862 54.069C4.09379 54.069 1.93103 51.9062 1.93103 49.2414C1.93103 46.5765 4.09379 44.4138 6.75862 44.4138C9.42345 44.4138 11.5862 46.5765 11.5862 49.2414C11.5862 51.9062 9.42345 54.069 6.75862 54.069Z" fill="#03255A"/>
<path d="M37.2115 16.3848C36.6997 16.2207 36.1591 16.5007 35.9949 17.0124C35.8308 17.5145 35.6377 18.0069 35.4253 18.4897C35.2032 18.9724 35.4253 19.5517 35.908 19.7641C36.0335 19.8221 36.1687 19.851 36.3039 19.851C36.6708 19.851 37.028 19.6386 37.1825 19.2814C37.4239 18.7407 37.6459 18.171 37.8294 17.6014C37.9935 17.0993 37.7135 16.549 37.2115 16.3848Z" fill="#03255A"/>
<path d="M33.8226 21.2124C33.504 21.6372 33.1661 22.0428 32.8088 22.429C32.4419 22.8152 32.4709 23.4331 32.8571 23.7903C33.0405 23.9641 33.2819 24.051 33.5137 24.051C33.7743 24.051 34.0254 23.9448 34.2185 23.7421C34.624 23.3076 35.0102 22.8441 35.3674 22.3614C35.6861 21.9365 35.5992 21.3283 35.1743 21.0097C34.7399 20.7007 34.1412 20.7876 33.8226 21.2124Z" fill="#03255A"/>
<path d="M20.4302 27.1312C19.8412 27.1988 19.2426 27.2954 18.6633 27.4209C18.1419 27.5368 17.8136 28.0485 17.9295 28.5699C18.0261 29.0237 18.4316 29.3326 18.8757 29.3326C18.9433 29.3326 19.0109 29.323 19.0881 29.3133C19.5999 29.1974 20.1309 29.1105 20.6523 29.0623C21.1833 29.0043 21.5695 28.5312 21.5116 28.0002C21.4343 27.4595 20.9516 27.0733 20.4302 27.1312Z" fill="#03255A"/>
<path d="M30.4138 24.4953C29.7573 24.9491 29.0621 25.3449 28.3573 25.6732C27.8745 25.8953 27.6621 26.4746 27.8938 26.9573C28.058 27.3049 28.4056 27.5173 28.7724 27.5173C28.9076 27.5173 29.0524 27.4884 29.178 27.4304C29.989 27.0539 30.7711 26.6001 31.5145 26.0884C31.9587 25.7891 32.0649 25.1808 31.7656 24.7463C31.4566 24.3022 30.8483 24.1863 30.4138 24.4953Z" fill="#03255A"/>
<path d="M10.2053 32.2386C9.79978 32.673 9.41357 33.1365 9.05633 33.6096C8.73771 34.0344 8.82461 34.6427 9.24943 34.9613C9.42323 35.0868 9.62599 35.1544 9.82874 35.1544C10.1184 35.1544 10.4081 35.0193 10.6012 34.7682C10.9198 34.3434 11.2577 33.9379 11.615 33.5517C11.9818 33.1655 11.9625 32.5475 11.5667 32.1903C11.1805 31.833 10.5722 31.8524 10.2053 32.2386Z" fill="#03255A"/>
<path d="M25.3638 26.6869C24.8424 26.8028 24.321 26.8897 23.7996 26.9476C23.2686 27.0056 22.8824 27.4787 22.9403 28.0097C22.9886 28.5021 23.4134 28.869 23.8962 28.869C23.9348 28.869 23.9638 28.869 24.0024 28.8594C24.5914 28.8014 25.19 28.6952 25.7789 28.5697C26.3003 28.4538 26.6286 27.9421 26.5127 27.4207C26.3969 26.909 25.8852 26.5807 25.3638 26.6869Z" fill="#03255A"/>
<path d="M15.2656 28.5695C14.4546 28.9461 13.6629 29.3999 12.9291 29.9019C12.4849 30.2013 12.3787 30.7999 12.678 31.244C12.8615 31.5144 13.1705 31.6592 13.4794 31.6592C13.6629 31.6592 13.856 31.6013 14.0201 31.4854C14.667 31.0413 15.3622 30.6454 16.0767 30.3075C16.5594 30.0854 16.7718 29.5061 16.5401 29.0233C16.318 28.5502 15.7484 28.3475 15.2656 28.5695Z" fill="#03255A"/>
</svg>
