<svg width="48" height="42" viewBox="0 0 48 42" fill="none" xmlns="http://www.w3.org/2000/svg">
<path d="M22.0247 26.047L22.025 26.0473C22.5693 26.5862 23.2877 26.8829 24.0436 26.8829C24.7991 26.8829 25.5153 26.5891 26.0497 26.0521C26.9059 25.1984 27.1176 23.9086 26.6103 22.8295L34.6589 14.786C34.659 14.7859 34.6591 14.7858 34.6592 14.7857C34.8409 14.6068 34.9413 14.362 34.9413 14.1066C34.9413 13.8459 34.8399 13.5944 34.6581 13.4289C34.2906 13.0553 33.6589 13.0653 33.2991 13.4251L25.2234 21.4931C24.1646 21.0142 22.8367 21.2151 22.0298 22.022C21.4905 22.5587 21.1939 23.2748 21.1939 24.0306C21.1939 24.7912 21.4851 25.5074 22.0247 26.047ZM23.3881 24.682L23.3871 24.681C23.2155 24.5117 23.118 24.2796 23.118 24.0358C23.118 23.7924 23.2152 23.5596 23.3907 23.3819L23.3907 23.3819C23.5625 23.2077 23.7945 23.1101 24.0436 23.1101C24.2925 23.1101 24.5197 23.205 24.697 23.3824C25.0542 23.7395 25.053 24.3257 24.6918 24.6893C24.544 24.8371 24.3085 24.9279 24.0436 24.9279H24.0414C23.7736 24.9254 23.5384 24.8345 23.3881 24.682Z" fill="#03255A" stroke="#03255A" stroke-width="0.2"/>
<path d="M2.48433 32.7584L2.48788 32.7253L2.49293 32.6782C1.35799 29.8878 0.786485 26.9812 0.791636 24.0358M2.48433 32.7584L40.7812 16.1348C40.3457 16.3255 40.137 16.8306 40.3174 17.2532L40.2245 17.2904C40.2247 17.2907 40.2248 17.2911 40.225 17.2914C40.3694 17.6513 40.7257 17.8892 41.1111 17.8892C41.1547 17.8892 41.2184 17.8865 41.285 17.8766C41.3482 17.8671 41.4218 17.8502 41.4836 17.818L43.9057 16.816C44.6336 18.8217 45.0507 20.9254 45.1431 23.0829H42.5233C41.9931 23.0829 41.5652 23.515 41.5652 24.0488C41.5652 24.5806 41.9937 25.0095 42.5233 25.0095H42.5234L45.1429 25.0071C45.0475 27.1254 44.6203 29.2241 43.8701 31.2637L41.4805 30.2732C41.4803 30.2731 41.48 30.273 41.4798 30.2729C41.2509 30.1746 40.9782 30.1751 40.7401 30.278C40.5 30.3755 40.3129 30.567 40.2251 30.7852C40.1225 31.0227 40.1193 31.2844 40.2167 31.5204C40.3098 31.7637 40.5007 31.9502 40.7402 32.05L40.7406 32.0501L43.1511 33.0436C41.9258 35.6465 40.233 37.9352 38.1171 39.8408C37.9291 40.0059 37.8157 40.2388 37.7903 40.5038L37.7902 40.5038L37.7899 40.5089C37.7785 40.7627 37.8612 41.0076 38.0264 41.1931C38.2081 41.4004 38.47 41.5179 38.7506 41.5179C38.9943 41.5179 39.2258 41.433 39.3933 41.2721C41.9135 39.0103 43.9444 36.1463 45.2692 32.9925C45.2694 32.9921 45.2696 32.9916 45.2698 32.9911L45.351 32.8136L45.3519 32.814L45.3559 32.8008L45.3777 32.728C46.5151 29.9319 47.0944 27.019 47.0996 24.067V24.0669C47.1022 17.8813 44.7002 12.0654 40.3263 7.68626L40.2555 7.75693L40.3263 7.68624C35.9498 3.30714 30.1312 0.9 23.943 0.9C17.7601 0.9 11.9467 3.30453 7.58048 7.67072C3.20401 12.042 0.791659 17.8554 0.791636 24.0358M2.48433 32.7584L2.50137 32.7871L2.61897 32.9847L2.48433 32.7584ZM0.791636 24.0358C0.791636 24.0358 0.791636 24.0358 0.791636 24.0358L0.891636 24.0359H0.791636C0.791636 24.0359 0.791636 24.0359 0.791636 24.0358ZM39.6108 9.73365L37.7673 11.5772L37.767 11.5775C37.4012 11.9404 36.7821 11.9463 36.4103 11.5832L36.4089 11.5818C36.0363 11.2035 36.0322 10.5944 36.4041 10.2197L36.4043 10.2194L38.2479 8.37589C36.6565 6.92063 34.8758 5.72369 32.9455 4.81984L31.9471 7.23292C31.947 7.23301 31.947 7.2331 31.9469 7.23319C31.7997 7.59374 31.4507 7.82343 31.0582 7.82343C30.9081 7.82343 30.7676 7.79587 30.6417 7.73516C30.449 7.65837 30.2657 7.46975 30.1675 7.24254L30.1663 7.23966L30.1663 7.23964C30.0696 6.995 30.069 6.73653 30.1639 6.50067L30.1644 6.49964L31.1679 4.08366C29.1574 3.35836 27.0539 2.94375 24.9038 2.85381V5.44535C24.9038 5.97635 24.4786 6.40865 23.9482 6.40865C23.4138 6.40865 22.9823 5.97752 22.9823 5.44535V2.85381C20.8346 2.94377 18.7309 3.35841 16.7155 4.08377L17.7114 6.48944L17.712 6.49075C17.8065 6.72851 17.8063 6.98415 17.7121 7.22398L17.7117 7.22493C17.6139 7.4666 17.4267 7.65087 17.1915 7.74857C17.0884 7.79264 16.9541 7.82085 16.8253 7.82085C16.4397 7.82085 16.0919 7.59062 15.9396 7.23445L15.9392 7.23338L14.9407 4.82003C13.01 5.72863 11.227 6.91847 9.6406 8.37325L11.4715 10.2066L11.4722 10.2074C11.8393 10.583 11.8434 11.1914 11.48 11.5635L11.4791 11.5643C11.2973 11.7462 11.0473 11.8462 10.7874 11.8462H10.7874H10.7873H10.7873H10.7873H10.7873H10.7873H10.7873H10.7873H10.7872H10.7872H10.7872H10.7872H10.7872H10.7872H10.7871H10.7871H10.7871H10.7871H10.7871H10.7871H10.7871H10.787H10.787H10.787H10.787H10.787H10.787H10.7869H10.7869H10.7869H10.7869H10.7869H10.7869H10.7869H10.7868H10.7868H10.7868H10.7868H10.7868H10.7868H10.7868H10.7867H10.7867H10.7867H10.7867H10.7867H10.7867H10.7866H10.7866H10.7866H10.7866H10.7866H10.7866H10.7866H10.7865H10.7865H10.7865H10.7865H10.7865H10.7865H10.7864H10.7864H10.7864H10.7864H10.7864H10.7864H10.7864H10.7863H10.7863H10.7863H10.7863H10.7863H10.7863H10.7862H10.7862H10.7862H10.7862H10.7862H10.7862H10.7862H10.7861H10.7861H10.7861H10.7861H10.7861H10.7861H10.786H10.786H10.786H10.786H10.786H10.786H10.786H10.7859H10.7859H10.7859H10.7859H10.7859H10.7859H10.7858H10.7858H10.7858H10.7858H10.7858H10.7858H10.7857H10.7857H10.7857H10.7857H10.7857H10.7857H10.7857H10.7856H10.7856H10.7856H10.7856H10.7856H10.7856H10.7855H10.7855H10.7855H10.7855H10.7855H10.7855H10.7854H10.7854H10.7854H10.7854H10.7854H10.7854H10.7854H10.7853H10.7853H10.7853H10.7853H10.7853H10.7853H10.7852H10.7852H10.7852H10.7852H10.7852H10.7852H10.7851H10.7851H10.7851H10.7851H10.7851H10.7851H10.785H10.785H10.785H10.785H10.785H10.785H10.7849H10.7849H10.7849H10.7849H10.7849H10.7849H10.7848H10.7848H10.7848H10.7848H10.7848H10.7848H10.7847H10.7847H10.7847H10.7847H10.7847H10.7847H10.7846H10.7846H10.7846H10.7846H10.7846H10.7846H10.7845H10.7845H10.7845H10.7845H10.7845H10.7845H10.7844H10.7844H10.7844H10.7844H10.7844H10.7844H10.7843H10.7843H10.7843H10.7843H10.7843H10.7843H10.7842H10.7842H10.7842H10.7842H10.7842H10.7841H10.7841H10.7841H10.7841H10.7841H10.7841H10.784H10.784H10.784H10.784H10.784H10.784H10.7839H10.7839H10.7839H10.7839H10.7839H10.7838H10.7838H10.7838H10.7838H10.7838H10.7838H10.7837H10.7837H10.7837H10.7837H10.7837H10.7836H10.7836H10.7836H10.7836H10.7836H10.7836H10.7835H10.7835H10.7835H10.7835H10.7835H10.7834H10.7834H10.7834H10.7834H10.7834H10.7834H10.7833H10.7833H10.7833H10.7833H10.7833H10.7832H10.7832H10.7832H10.7832H10.7832H10.7831H10.7831H10.7831H10.7831H10.7831H10.7831H10.783H10.783H10.783H10.783H10.783H10.7829H10.7829H10.7829H10.7829H10.7829H10.7828H10.7828H10.7828H10.7828H10.7828H10.7827H10.7827H10.7827H10.7827H10.7827H10.7826H10.7826H10.7826H10.7826H10.7826H10.7825H10.7825H10.7825H10.7825H10.7825H10.7824H10.7824H10.7824H10.7824H10.7824H10.7823H10.7823H10.7823H10.7823H10.7823H10.7822H10.7822H10.7822H10.7822H10.7822H10.7821H10.7821H10.7821H10.7821H10.7821H10.782H10.782H10.782H10.782H10.782H10.7819H10.7819H10.7819H10.7819H10.7818H10.7818H10.7818H10.7818H10.7818H10.7817H10.7817H10.7817H10.7817H10.7817H10.7816H10.7816H10.7816H10.7816H10.7815H10.7815H10.7815H10.7815H10.7815H10.7814H10.7814H10.7814H10.7814H10.7814H10.7813H10.7813H10.7813H10.7813H10.7812H10.7812H10.7812H10.7812H10.7812H10.7811H10.7811H10.7811H10.7811H10.781H10.781H10.781H10.781H10.7809H10.7809H10.7809H10.7809H10.7809H10.7808H10.7808H10.7808H10.7808H10.7807H10.7807H10.7807H10.7807H10.7807H10.7806H10.7806H10.7806H10.7806H10.7805H10.7805H10.7805H10.7805H10.7804H10.7804H10.7804H10.7804H10.7803H10.7803H10.7803H10.7803H10.7802H10.7802H10.7802H10.7802H10.7802H10.7801H10.7801H10.7801H10.7801H10.78H10.78H10.78H10.78H10.7799H10.7799H10.7799H10.7799H10.7798H10.7798H10.7798H10.7798H10.7797H10.7797H10.7797H10.7797H10.7796H10.7796H10.7796H10.7796H10.7795H10.7795H10.7795H10.7795H10.7794H10.7794H10.7794H10.7794H10.7793H10.7793H10.7793H10.7792H10.7792H10.7792H10.7792H10.7791H10.7791H10.7791H10.7791H10.779H10.779H10.779H10.779H10.7789H10.7789H10.7789H10.7789H10.7788H10.7788H10.7788H10.7787H10.7787H10.7787H10.7787H10.7786H10.7786H10.7786H10.7786H10.7785H10.7785H10.7785H10.7784H10.7784H10.7784H10.7784H10.7783H10.7783H10.7783H10.7783H10.7782H10.7782H10.7782H10.7781H10.7781H10.7781H10.7781H10.778H10.778H10.778H10.7779H10.7779H10.7779H10.7779H10.7778H10.7778H10.7778H10.7777H10.7777H10.7777H10.7777H10.7776H10.7776H10.7776H10.7775H10.7775H10.7775H10.7775H10.7774H10.7774H10.7774H10.7773H10.7773H10.7773H10.7772H10.7772H10.7772H10.7772H10.7771H10.7771H10.7771H10.7759C10.5234 11.8433 10.2791 11.7402 10.1056 11.564C10.1055 11.5639 10.1054 11.5638 10.1053 11.5637L8.27763 9.73355C6.82515 11.315 5.63056 13.093 4.71709 15.0306L7.13747 16.019L7.13893 16.0196C7.62942 16.229 7.86031 16.7921 7.65572 17.2791C7.55676 17.5174 7.3547 17.7064 7.10385 17.8004C6.86295 17.8911 6.58844 17.8872 6.3688 17.7855L3.99297 16.8005C3.26035 18.8061 2.84313 20.9097 2.75071 23.0649H5.35245C5.88442 23.0649 6.31317 23.4936 6.31317 24.0256C6.31317 24.5576 5.88442 24.9863 5.35245 24.9863H2.7509C2.84612 27.1096 3.27089 29.2107 4.01606 31.2431L6.40523 30.2528C6.4055 30.2526 6.40577 30.2525 6.40605 30.2524C6.61069 30.1637 6.86656 30.1633 7.10558 30.2505L7.10847 30.2516L7.10846 30.2516C7.34946 30.348 7.55111 30.5333 7.65026 30.7689C7.75374 31.0051 7.75626 31.2699 7.6588 31.5107L7.65706 31.515L7.65696 31.515C7.54441 31.7598 7.36425 31.9394 7.1294 32.0324C7.12916 32.0324 7.12892 32.0325 7.12868 32.0326L4.73711 33.0254C5.9549 35.6331 7.64766 37.9193 9.76855 39.825C9.96161 39.9924 10.0766 40.2315 10.0884 40.4898C10.1053 40.7521 10.0102 41.0023 9.8306 41.1914C9.67975 41.3647 9.44636 41.4718 9.19824 41.4892C8.92684 41.5175 8.67054 41.422 8.48628 41.2552C8.48617 41.2551 8.48606 41.255 8.48595 41.2549L8.5531 41.1808C6.02247 38.9079 4.05621 36.135 2.70843 32.9395L39.6108 9.73365ZM39.6108 9.73365C41.0757 11.3347 42.268 13.1155 43.1719 15.0411L39.6108 9.73365Z" fill="#03255A" stroke="#03255A" stroke-width="0.2"/>
</svg>
