<svg width="52" height="35" viewBox="0 0 52 35" fill="none" xmlns="http://www.w3.org/2000/svg">
<path d="M51.1904 24.1247C51.0628 21.1902 50.5524 17.9367 49.7869 14.8746C49.0214 11.94 48.0645 9.19688 46.9162 7.09168C42.4506 -0.75499 37.6022 0.457098 31.797 1.98816C29.9469 2.43471 27.9693 2.94507 25.9279 3.13645H25.29C23.2486 2.94507 21.271 2.43471 19.4209 1.98816C13.6157 0.520892 8.76731 -0.754989 4.30173 7.15547C3.15344 9.26068 2.13273 12.0038 1.431 14.9383C0.66547 18.0005 0.155117 21.254 0.0275292 24.1885C-0.100059 27.442 0.218911 29.8024 0.920646 31.461C1.62238 32.9921 2.64309 33.949 3.98276 34.3317C5.19485 34.6507 6.59832 34.5231 8.06558 33.8852C10.5535 32.8645 13.4243 30.6955 16.2312 28.0799C18.2088 26.1661 21.9089 25.2092 25.6089 25.2092C29.309 25.2092 33.0091 26.1661 34.9867 28.0799C37.7936 30.6955 40.6643 32.8645 43.1523 33.8852C44.6196 34.4593 46.023 34.6507 47.2351 34.3317C48.511 33.949 49.5955 33.0559 50.2972 31.3972C50.999 29.8024 51.318 27.442 51.1904 24.1247ZM48.1283 30.5041C47.7455 31.3972 47.2351 31.9076 46.5972 32.099C45.8955 32.2903 45.0023 32.1627 43.9816 31.78C41.7488 30.8869 39.1333 28.9093 36.5815 26.4851C34.1574 24.0609 29.8831 22.8488 25.6089 22.8488C21.3347 22.8488 17.0605 24.0609 14.5726 26.3575C11.957 28.7817 9.34146 30.8231 7.17246 31.6524C6.15176 32.0352 5.25864 32.2265 4.55691 31.9714C3.91897 31.78 3.40861 31.2696 3.02585 30.3765C2.5155 29.1644 2.26032 27.1868 2.38791 24.2523C2.5155 21.5091 2.96206 18.3832 3.72758 15.4487C4.42932 12.7056 5.32244 10.1538 6.40694 8.23997C9.91561 1.92436 13.9984 2.94507 18.8468 4.22095C20.8244 4.7313 22.8658 5.24165 25.0986 5.43303C25.1624 5.43303 25.1624 5.43303 25.2262 5.43303H25.9279C25.9917 5.43303 25.9917 5.43303 26.0555 5.43303C28.3521 5.24165 30.3935 4.7313 32.3711 4.22095C37.2195 3.00886 41.3023 1.92436 44.811 8.23997C45.8955 10.1538 46.7886 12.6418 47.4903 15.4487C48.192 18.3832 48.7024 21.4453 48.83 24.2523C48.9576 27.1868 48.7024 29.1644 48.1283 30.5041Z" fill="#03255A"/>
<path d="M19.7422 11.6843C19.1042 11.1102 18.3387 10.6636 17.4456 10.5998C17.3818 9.77051 16.999 8.94119 16.4249 8.36704L16.3611 8.30325C15.6593 7.60151 14.7662 7.21875 13.7455 7.21875C12.7248 7.21875 11.7679 7.66531 11.13 8.30325C10.5558 8.87739 10.1093 9.70672 10.0455 10.5998C9.15235 10.6636 8.38682 11.0464 7.74888 11.6205L7.68508 11.6843C6.98335 12.3861 6.60059 13.2792 6.60059 14.2999C6.60059 15.3206 7.04714 16.2775 7.68508 16.9154C8.32303 17.5534 9.08855 17.9361 10.0455 17.9999C10.1093 18.8931 10.492 19.7224 11.13 20.2965C11.8317 20.9983 12.7248 21.381 13.7455 21.381C14.7662 21.381 15.7231 20.9345 16.3611 20.2965C16.9352 19.6586 17.3818 18.8931 17.4456 17.9999C18.3387 17.9361 19.168 17.5534 19.7422 16.9154C20.4439 16.2137 20.8267 15.3206 20.8267 14.2999C20.8267 13.2792 20.3801 12.3223 19.7422 11.6843ZM18.1473 15.2568C17.8921 15.512 17.5732 15.6396 17.1904 15.6396H16.2973C15.6593 15.6396 15.0852 16.1499 15.0852 16.8517V17.681C15.0852 18.0637 14.9576 18.3827 14.7024 18.6379C14.4473 18.8931 14.1283 19.0206 13.7455 19.0206C13.3628 19.0206 13.0438 18.8931 12.7886 18.6379C12.5334 18.3827 12.4058 18.0637 12.4058 17.681V16.7879C12.4058 16.1499 11.8955 15.5758 11.1938 15.5758H10.3006C9.91788 15.5758 9.59891 15.4482 9.34373 15.193C9.15235 15.0016 8.96097 14.6827 8.96097 14.2999C8.96097 13.9171 9.08855 13.5982 9.34373 13.343C9.34373 13.343 9.34373 13.343 9.40752 13.2792C9.6627 13.0878 9.98167 12.9602 10.3006 12.9602H11.1938C11.8317 12.9602 12.4058 12.4499 12.4058 11.7481V10.855C12.4058 10.4722 12.5334 10.1533 12.7886 9.8981C13.0438 9.64292 13.3628 9.51533 13.7455 9.51533C14.1283 9.51533 14.4473 9.64292 14.7024 9.8981C14.7024 9.8981 14.7024 9.8981 14.7662 9.96189C14.9576 10.2171 15.0852 10.536 15.0852 10.855V11.7481C15.0852 12.3861 15.5955 12.9602 16.2973 12.9602H17.1904C17.5732 12.9602 17.8921 13.0878 18.1473 13.343C18.4025 13.5982 18.5301 13.9171 18.5301 14.2999C18.5301 14.6827 18.4025 15.0016 18.1473 15.2568Z" fill="#03255A"/>
<path d="M36.7094 12.0037C37.9425 12.0037 38.9421 11.004 38.9421 9.77088C38.9421 8.53774 37.9425 7.53809 36.7094 7.53809C35.4762 7.53809 34.4766 8.53774 34.4766 9.77088C34.4766 11.004 35.4762 12.0037 36.7094 12.0037Z" fill="#03255A"/>
<path d="M36.7094 21.0623C37.9425 21.0623 38.9421 20.0626 38.9421 18.8295C38.9421 17.5963 37.9425 16.5967 36.7094 16.5967C35.4762 16.5967 34.4766 17.5963 34.4766 18.8295C34.4766 20.0626 35.4762 21.0623 36.7094 21.0623Z" fill="#03255A"/>
<path d="M32.1788 16.5335C33.412 16.5335 34.4116 15.5338 34.4116 14.3007C34.4116 13.0675 33.412 12.0679 32.1788 12.0679C30.9457 12.0679 29.946 13.0675 29.946 14.3007C29.946 15.5338 30.9457 16.5335 32.1788 16.5335Z" fill="#03255A"/>
<path d="M41.2406 16.5335C42.4737 16.5335 43.4734 15.5338 43.4734 14.3007C43.4734 13.0675 42.4737 12.0679 41.2406 12.0679C40.0075 12.0679 39.0078 13.0675 39.0078 14.3007C39.0078 15.5338 40.0075 16.5335 41.2406 16.5335Z" fill="#03255A"/>
</svg>
