<svg width="55" height="38" viewBox="0 0 55 38" fill="none" xmlns="http://www.w3.org/2000/svg">
<path d="M3.24238 2.808L1.86797 1.35506L1.86395 1.35888L3.24238 2.808ZM2.60638 17.436L4.14282 16.1556L4.13247 16.1432L4.12191 16.131L2.60638 17.436ZM5.52138 19.185H7.52138V17.5807L5.95524 17.2326L5.52138 19.185ZM5.52138 19.291L5.80422 21.2709L7.52138 21.0256V19.291H5.52138ZM2.18238 20.775L0.811641 19.3186L0.807976 19.3221L2.18238 20.775ZM1.65238 35.032L0.0671269 36.2514L0.0756285 36.2625L0.0842834 36.2734L1.65238 35.032ZM24.3364 35.032L25.9045 36.2734L25.9131 36.2625L25.9216 36.2514L24.3364 35.032ZM23.8064 20.775L25.1808 19.3221L25.1771 19.3186L23.8064 20.775ZM20.4674 19.291H18.4674V21.0256L20.1845 21.2709L20.4674 19.291ZM20.4674 19.185L20.0335 17.2326L18.4674 17.5807V19.185H20.4674ZM23.3824 17.436L21.8668 16.131L21.8563 16.1432L21.8459 16.1556L23.3824 17.436ZM22.7464 2.808L24.1248 1.35888L24.1208 1.35506L22.7464 2.808ZM4.77938 15.952L6.45082 14.8536L6.44348 14.8426L4.77938 15.952ZM5.73338 4.557L4.44699 3.02559L4.43155 3.03856L4.41637 3.05184L5.73338 4.557ZM20.2554 4.557L21.5724 3.05184L21.5572 3.03856L21.5418 3.02559L20.2554 4.557ZM21.2094 15.952L19.5452 14.8426L19.538 14.8536L21.2094 15.952ZM4.24938 33.601L5.84938 32.401L5.83885 32.387L5.82808 32.3731L4.24938 33.601ZM5.04438 21.676L3.81649 20.0973L3.81077 20.1017L3.80509 20.1062L5.04438 21.676ZM20.9444 21.676L22.1837 20.1062L22.178 20.1017L22.1723 20.0973L20.9444 21.676ZM21.7394 33.601L20.1607 32.3731L20.1499 32.387L20.1394 32.401L21.7394 33.601ZM10.1854 -1.1C9.32551 -1.1 7.91608 -1.08947 6.43669 -0.805858C4.97298 -0.52525 3.23848 0.0586328 1.86798 1.35506L4.61678 4.26093C5.20727 3.70236 6.09627 3.33224 7.18981 3.1226C8.26767 2.91597 9.34925 2.9 10.1854 2.9V-1.1ZM1.86395 1.35888C0.330968 2.81708 -0.360027 4.88412 -0.69998 6.59112C-1.04997 8.34853 -1.08962 10.054 -1.08962 11.076H2.91038C2.91038 10.137 2.95022 8.74197 3.22298 7.37238C3.50578 5.95238 3.98078 4.86591 4.6208 4.25711L1.86395 1.35888ZM-1.08962 11.076C-1.08962 12.6187 -1.10365 16.1926 1.09084 18.741L4.12191 16.131C3.0304 14.8634 2.91038 12.8193 2.91038 11.076H-1.08962ZM1.06993 18.7164C1.81811 19.6142 3.13525 20.7035 5.08751 21.1374L5.95524 17.2326C5.04551 17.0305 4.45464 16.5298 4.14282 16.1556L1.06993 18.7164ZM3.52138 19.185V19.291H7.52138V19.185H3.52138ZM5.23853 17.3111C3.86852 17.5068 2.10728 18.0992 0.811646 19.3186L3.5531 22.2314C4.05947 21.7548 4.94823 21.3932 5.80422 21.2709L5.23853 17.3111ZM0.807976 19.3221C-0.600102 20.654 -1.26197 22.4824 -1.59631 24.065C-1.93736 25.6793 -1.99062 27.2998 -1.99062 28.46H2.00938C2.00938 27.3942 2.06211 26.0997 2.31731 24.8918C2.57922 23.6521 3.00385 22.751 3.55677 22.2279L0.807976 19.3221ZM-1.99062 28.46C-1.99062 30.6588 -1.98058 33.5894 0.0671269 36.2514L3.23762 33.8126C2.10533 32.3406 2.00938 30.7132 2.00938 28.46H-1.99062ZM0.0842834 36.2734C2.67596 39.5471 6.22491 40 8.91338 40V36C6.61985 36 4.65679 35.6049 3.22047 33.7906L0.0842834 36.2734ZM8.91338 40H17.0754V36H8.91338V40ZM17.0754 40C19.7638 40 23.3128 39.5471 25.9045 36.2734L22.7683 33.7906C21.332 35.6049 19.3689 36 17.0754 36V40ZM25.9216 36.2514C27.9693 33.5894 27.9794 30.6588 27.9794 28.46H23.9794C23.9794 30.7132 23.8834 32.3406 22.7511 33.8126L25.9216 36.2514ZM27.9794 28.46C27.9794 27.2998 27.9261 25.6793 27.5851 24.065C27.2507 22.4824 26.5889 20.654 25.1808 19.3221L22.432 22.2279C22.9849 22.751 23.4095 23.6521 23.6714 24.8918C23.9266 26.0997 23.9794 27.3942 23.9794 28.46H27.9794ZM25.1771 19.3186C23.8815 18.0992 22.1202 17.5068 20.7502 17.3111L20.1845 21.2709C21.0405 21.3932 21.9293 21.7548 22.4356 22.2314L25.1771 19.3186ZM22.4674 19.291V19.185H18.4674V19.291H22.4674ZM20.9012 21.1374C22.8535 20.7035 24.1706 19.6142 24.9188 18.7164L21.8459 16.1556C21.5341 16.5298 20.9432 17.0305 20.0335 17.2326L20.9012 21.1374ZM24.8979 18.741C27.0924 16.1926 27.0784 12.6187 27.0784 11.076H23.0784C23.0784 12.8193 22.9583 14.8634 21.8668 16.131L24.8979 18.741ZM27.0784 11.076C27.0784 10.054 27.0387 8.34853 26.6887 6.59112C26.3488 4.88412 25.6578 2.81708 24.1248 1.35888L21.3679 4.25711C22.008 4.86591 22.483 5.95238 22.7658 7.37238C23.0385 8.74197 23.0784 10.137 23.0784 11.076H27.0784ZM24.1208 1.35506C22.7503 0.0586328 21.0158 -0.52525 19.5521 -0.805858C18.0727 -1.08947 16.6632 -1.1 15.8034 -1.1V2.9C16.6395 2.9 17.7211 2.91597 18.7989 3.1226C19.8925 3.33224 20.7815 3.70236 21.372 4.26093L24.1208 1.35506ZM15.8034 -1.1H10.1854V2.9H15.8034V-1.1ZM9.76138 15.966C9.09971 15.966 8.39211 15.9251 7.76047 15.7374C7.15415 15.5573 6.72891 15.2769 6.45079 14.8536L3.10796 17.0504C4.97184 19.8867 8.39513 19.966 9.76138 19.966V15.966ZM6.44348 14.8426C6.25434 14.5589 5.87838 13.7899 5.87838 10.97H1.87838C1.87838 13.9801 2.24441 15.7551 3.11527 17.0614L6.44348 14.8426ZM5.87838 10.97C5.87838 10.2829 5.91683 9.20431 6.1294 8.16383C6.35694 7.05006 6.70919 6.36069 7.05038 6.06215L4.41637 3.05184C3.06156 4.2373 2.48631 6.01243 2.21035 7.36316C1.91942 8.78718 1.87838 10.1731 1.87838 10.97H5.87838ZM7.01976 6.08841C7.69448 5.52164 8.70746 5.444 10.3444 5.444V1.444C9.01329 1.444 6.42227 1.36636 4.44699 3.02559L7.01976 6.08841ZM10.3444 5.444H15.6444V1.444H10.3444V5.444ZM15.6444 5.444C17.2813 5.444 18.2943 5.52164 18.969 6.08841L21.5418 3.02559C19.5665 1.36636 16.9755 1.444 15.6444 1.444V5.444ZM18.9384 6.06215C19.2796 6.36069 19.6318 7.05006 19.8594 8.16383C20.0719 9.20431 20.1104 10.2829 20.1104 10.97H24.1104C24.1104 10.1731 24.0693 8.78719 23.7784 7.36316C23.5024 6.01243 22.9272 4.2373 21.5724 3.05184L18.9384 6.06215ZM20.1104 10.97C20.1104 13.7899 19.7344 14.5589 19.5453 14.8426L22.8735 17.0614C23.7443 15.7551 24.1104 13.9801 24.1104 10.97H20.1104ZM19.538 14.8536C19.2598 15.2769 18.8346 15.5573 18.2283 15.7374C17.5966 15.9251 16.889 15.966 16.2274 15.966V19.966C17.5936 19.966 21.0169 19.8867 22.8808 17.0504L19.538 14.8536ZM16.2274 15.966H9.76138V19.966H16.2274V15.966ZM8.91338 33.456C6.71205 33.456 5.96776 32.5588 5.84938 32.401L2.64938 34.801C3.48499 35.9152 5.3907 37.456 8.91338 37.456V33.456ZM5.82808 32.3731C5.58905 32.0658 5.3348 31.393 5.16879 30.397C5.01426 29.4698 4.97738 28.5282 4.97738 27.93H0.977375C0.977375 28.6568 1.01999 29.8352 1.22321 31.0545C1.41495 32.205 1.7967 33.7052 2.67067 34.8289L5.82808 32.3731ZM4.97738 27.93C4.97738 27.3749 4.99263 26.3867 5.20998 25.3869C5.43738 24.3408 5.81523 23.6156 6.28366 23.2458L3.80509 20.1062C2.25952 21.3264 1.60387 23.1452 1.30127 24.5371C0.988619 25.9753 0.977375 27.3191 0.977375 27.93H4.97738ZM6.27226 23.2547C6.74987 22.8832 7.94885 22.51 9.12538 22.51V18.51C7.4399 18.51 5.24688 18.9848 3.81649 20.0973L6.27226 23.2547ZM9.12538 22.51H16.8634V18.51H9.12538V22.51ZM16.8634 22.51C18.0399 22.51 19.2389 22.8832 19.7165 23.2547L22.1723 20.0973C20.7419 18.9848 18.5488 18.51 16.8634 18.51V22.51ZM19.7051 23.2458C20.1735 23.6156 20.5514 24.3408 20.7788 25.3869C20.9961 26.3867 21.0114 27.3749 21.0114 27.93H25.0114C25.0114 27.3191 25.0001 25.9753 24.6875 24.5371C24.3849 23.1452 23.7292 21.3264 22.1837 20.1062L19.7051 23.2458ZM21.0114 27.93C21.0114 28.5282 20.9745 29.4698 20.82 30.397C20.654 31.393 20.3997 32.0658 20.1607 32.3731L23.3181 34.8289C24.192 33.7052 24.5738 32.205 24.7655 31.0545C24.9688 29.8352 25.0114 28.6568 25.0114 27.93H21.0114ZM20.1394 32.401C20.021 32.5588 19.2767 33.456 17.0754 33.456V37.456C20.598 37.456 22.5038 35.9152 23.3394 34.801L20.1394 32.401ZM17.0754 33.456H8.91338V37.456H17.0754V33.456ZM45.0511 32.7V34.7H47.0511V32.7H45.0511ZM45.0511 22.842V20.842H43.0511V22.842H45.0511ZM54.9091 22.842V24.842H56.9091V22.842H54.9091ZM54.9091 20.298H56.9091V18.298H54.9091V20.298ZM45.0511 20.298H43.0511V22.298H45.0511V20.298ZM45.0511 10.44H47.0511V8.44H45.0511V10.44ZM42.1891 10.44V8.44H40.1891V10.44H42.1891ZM42.1891 20.298V22.298H44.1891V20.298H42.1891ZM32.3311 20.298V18.298H30.3311V20.298H32.3311ZM32.3311 22.842H30.3311V24.842H32.3311V22.842ZM42.1891 22.842H44.1891V20.842H42.1891V22.842ZM42.1891 32.7H40.1891V34.7H42.1891V32.7ZM47.0511 32.7V22.842H43.0511V32.7H47.0511ZM45.0511 24.842H54.9091V20.842H45.0511V24.842ZM56.9091 22.842V20.298H52.9091V22.842H56.9091ZM54.9091 18.298H45.0511V22.298H54.9091V18.298ZM47.0511 20.298V10.44H43.0511V20.298H47.0511ZM45.0511 8.44H42.1891V12.44H45.0511V8.44ZM40.1891 10.44V20.298H44.1891V10.44H40.1891ZM42.1891 18.298H32.3311V22.298H42.1891V18.298ZM30.3311 20.298V22.842H34.3311V20.298H30.3311ZM32.3311 24.842H42.1891V20.842H32.3311V24.842ZM40.1891 22.842V32.7H44.1891V22.842H40.1891ZM42.1891 34.7H45.0511V30.7H42.1891V34.7Z" fill="#03255A"/>
</svg>
