<svg width="20" height="19" viewBox="0 0 20 19" fill="none" xmlns="http://www.w3.org/2000/svg">
<path d="M15.4294 2.26821H17.7802H17.7805V2.36821L15.4294 2.26821ZM15.4294 2.26821V1V0.9H15.3294H14.5699H14.4699V1V2.26821H5.13402V1V0.9H5.03402H4.27452H4.17452V1V2.26821H1.82371H1.82343V2.36821M15.4294 2.26821L0.503638 3.59717H0.603638M1.82343 2.36821C1.66356 2.36724 1.50509 2.39832 1.35712 2.45965C1.20916 2.52098 1.07462 2.61135 0.961253 2.72557C0.847886 2.83979 0.757927 2.9756 0.696553 3.12518C0.635179 3.27477 0.603602 3.43517 0.603638 3.59717M1.82343 2.36821H4.17452H1.82343ZM0.603638 3.59717L0.503638 3.59719V16.9105M0.603638 3.59717V16.9105M0.603638 16.9105L0.503638 16.9104C0.503638 16.9105 0.503638 16.9105 0.503638 16.9105M0.603638 16.9105C0.603488 17.0728 0.634945 17.2336 0.696206 17.3836C0.757467 17.5335 0.847328 17.6698 0.960641 17.7845C1.07395 17.8992 1.20849 17.9901 1.35654 18.0521C1.5046 18.114 1.66325 18.1457 1.82343 18.1454M0.603638 16.9105H0.503638V16.9105M0.503638 16.9105L1.82343 18.1454M1.82362 18.2454H1.82343V18.1454M1.82362 18.2454L1.82343 18.1454M1.82362 18.2454H17.7803M1.82362 18.2454H17.7803M17.7803 18.2454C17.9538 18.2458 18.1256 18.2114 18.2859 18.1443M17.7803 18.2454L18.2859 18.1443M18.2859 18.1443C18.4463 18.0773 18.5918 17.9788 18.7144 17.8548M18.2859 18.1443L18.7144 17.8548M18.7144 17.8548C18.837 17.7307 18.9341 17.5834 19.0003 17.4214M18.7144 17.8548L19.0003 17.4214M19.0003 17.4214C19.0665 17.2593 19.1004 17.0857 19.1003 16.9104M19.0003 17.4214L19.1003 16.9104M19.1003 16.9104V16.9105H19.0003L19.1003 16.9104ZM1.82163 3.23782L1.82163 3.23783H1.82343H4.17452V4.33502V4.43502H4.27452H5.03402H5.13402V4.33502V3.23783H14.4699V4.33502V4.43502H14.5699H15.3294H15.4294V4.33502V3.23783L17.7805 3.23785L17.7823 3.23782C17.8289 3.23698 17.8753 3.24558 17.9187 3.26315C17.9621 3.28072 18.0018 3.30693 18.0352 3.34031C18.0686 3.37369 18.0953 3.41357 18.1134 3.45765L18.2059 3.41957L18.1134 3.45765C18.1316 3.50173 18.1409 3.54909 18.1408 3.59693V3.59717V5.90253H1.46313L1.46313 3.59717L1.46313 3.59693C1.46302 3.54909 1.47233 3.50173 1.49048 3.45765C1.50863 3.41357 1.53525 3.37369 1.5687 3.34031C1.60214 3.30693 1.64175 3.28072 1.68517 3.26315C1.72858 3.24558 1.77497 3.23698 1.82163 3.23782ZM17.7812 17.2758H17.7805L1.82343 17.2758L1.82273 17.2758C1.77568 17.2761 1.729 17.267 1.68538 17.2489C1.64176 17.2308 1.60203 17.2041 1.56852 17.1702C1.53501 17.1363 1.5084 17.096 1.49028 17.0515C1.47216 17.007 1.46292 16.9592 1.46313 16.911V16.9105V6.87215H18.1408V16.9105L18.1408 16.911C18.141 16.9592 18.1317 17.007 18.1136 17.0515C18.0955 17.096 18.0689 17.1363 18.0354 17.1702C18.0019 17.2041 17.9621 17.2308 17.9185 17.2489C17.8749 17.267 17.8282 17.2761 17.7812 17.2758ZM17.7805 17.3758H1.82343C1.76296 17.3762 1.70301 17.3645 1.64706 17.3413C1.5911 17.318 1.54024 17.2838 1.49743 17.2405L17.7805 17.3758Z" fill="#03255A" stroke="#03255A" stroke-width="0.2"/>
</svg>
