<svg width="41" height="36" viewBox="0 0 41 36" fill="none" xmlns="http://www.w3.org/2000/svg">
<path d="M39.5218 8.45413C39.3355 8.06347 38.8678 7.89776 38.4769 8.084C38.0862 8.27032 37.9204 8.73819 38.1067 9.12893C39.858 12.8012 39.1006 17.2024 36.2221 20.0809L34.9824 21.3206C34.4821 21.099 33.9553 20.9387 33.4156 20.8429C34.0847 20.0839 34.4919 19.0888 34.4919 17.9998V16.4348C34.4919 14.061 32.5605 12.1297 30.1867 12.1297C27.8129 12.1297 25.8816 14.061 25.8816 16.4348V17.9998C25.8816 19.089 26.289 20.0844 26.9584 20.8435C25.867 21.038 24.8508 21.495 23.9911 22.1588C23.6414 20.5822 22.233 19.3992 20.5527 19.3992C18.8737 19.3992 17.4662 20.5804 17.1151 22.1552C16.2564 21.4922 15.2405 21.0366 14.1475 20.8429C14.8166 20.0839 15.2238 19.0887 15.2238 17.9998V16.4347C15.2238 14.0609 13.2925 12.1296 10.9187 12.1296C8.54485 12.1296 6.61356 14.0609 6.61356 16.4347V17.9998C6.61356 19.0887 7.02076 20.0837 7.68976 20.8427C7.14531 20.9393 6.61387 21.1017 6.10979 21.3263L4.86427 20.0808C3.04601 18.2626 2.04466 15.8451 2.04466 13.2738C2.04466 10.7025 3.04593 8.28498 4.86427 6.46679C6.68246 4.64861 9.09988 3.64726 11.6713 3.64726C14.2426 3.64726 16.6601 4.64861 18.4782 6.46679L19.9889 7.97756C20.2951 8.28365 20.7913 8.28365 21.0975 7.97756L22.6082 6.46679C25.4867 3.58824 29.8881 2.8309 33.5604 4.5823C33.9511 4.76854 34.4189 4.60299 34.6053 4.21225C34.7917 3.82151 34.626 3.35371 34.2352 3.16732C29.9648 1.1306 24.8468 2.01116 21.4996 5.35829L20.5432 6.31481L19.5867 5.35829C17.4724 3.24398 14.6614 2.07959 11.6713 2.07959C8.68124 2.07959 5.87009 3.24398 3.75577 5.35829C-0.608858 9.72292 -0.608858 16.8247 3.75577 21.1893L16.6404 34.0739C17.6829 35.1164 19.0689 35.6905 20.5433 35.6905C22.0176 35.6905 23.4036 35.1164 24.4461 34.0739L37.3307 21.1893C40.6777 17.8424 41.5582 12.7245 39.5218 8.45413ZM27.4492 16.4349C27.4492 14.9255 28.6773 13.6974 30.1867 13.6974C31.6962 13.6974 32.9242 14.9255 32.9242 16.4349V17.9999C32.9242 19.5093 31.6962 20.7374 30.1867 20.7374C28.6773 20.7374 27.4492 19.5093 27.4492 17.9999V16.4349ZM28.1469 22.305H32.2266C32.7498 22.305 33.2698 22.3844 33.7663 22.5367L26.4944 29.8087C26.1417 27.9509 24.9394 26.3913 23.3078 25.5495C24.1081 23.599 26.0216 22.305 28.1469 22.305ZM20.5527 20.967C21.6307 20.967 22.5076 21.8439 22.5076 22.9219C22.5076 23.9999 21.6307 24.8769 20.5527 24.8769C19.4747 24.8769 18.5978 23.9999 18.5978 22.9219C18.5978 21.8439 19.4747 20.967 20.5527 20.967ZM8.18123 16.4349C8.18123 14.9255 9.40926 13.6974 10.9187 13.6974C12.4281 13.6974 13.6562 14.9255 13.6562 16.4349V17.9999C13.6562 19.5093 12.4281 20.7374 10.9187 20.7374C9.40926 20.7374 8.18123 19.5093 8.18123 17.9999V16.4349ZM8.87884 22.305H12.9585C15.086 22.305 16.9885 23.591 17.7921 25.5363C16.1505 26.3733 14.9387 27.9352 14.5816 29.7982L7.32442 22.5411C7.82545 22.3857 8.35062 22.305 8.87884 22.305ZM23.3375 32.9655C22.5911 33.7119 21.5987 34.123 20.5432 34.123C19.4877 34.123 18.4952 33.712 17.7489 32.9655L16.0396 31.2562V30.942C16.0396 28.4621 18.0571 26.4446 20.5371 26.4446C23.017 26.4446 25.0345 28.4621 25.0345 30.942V31.2686L23.3375 32.9655Z" fill="#8EC8E1"/>
<path d="M36.7755 2.08085C36.9817 2.08085 37.1839 1.99698 37.3297 1.85119C37.4754 1.7054 37.5594 1.50317 37.5594 1.29702C37.5594 1.09087 37.4755 0.888641 37.3297 0.742847C37.1839 0.597054 36.9817 0.513184 36.7755 0.513184C36.5694 0.513184 36.3672 0.597054 36.2214 0.742847C36.0756 0.888641 35.9917 1.09087 35.9917 1.29702C35.9917 1.50317 36.0756 1.7054 36.2214 1.85119C36.3672 1.99698 36.5695 2.08085 36.7755 2.08085Z" fill="#8EC8E1"/>
</svg>
