<svg width="46" height="36" viewBox="0 0 46 36" fill="none" xmlns="http://www.w3.org/2000/svg">
<path fill-rule="evenodd" clip-rule="evenodd" d="M5.10314 35.4678V9.42969C5.10314 9.30497 5.09996 9.18524 5.09275 9.07483H0.0614014V0.86861H8.8157C10.3856 0.86861 11.839 1.24763 12.9402 2.10022L12.9545 2.1113L12.9686 2.12266C14.7564 3.56451 14.82 5.56542 14.82 6.54643V35.4678H5.10314ZM5.63038 9.0782C5.63037 9.07821 5.62961 9.07815 5.62814 9.07798L5.63038 9.0782ZM12.9866 6.54643C12.9866 5.61491 12.8949 4.37289 11.7949 3.48573C11.1074 2.95343 10.099 2.64293 8.8157 2.64293H1.89476V7.30051H5.42398C5.88232 7.30051 6.29483 7.30051 6.61566 7.78845C6.89067 8.18767 6.9365 8.8974 6.9365 9.42969V33.6935H12.9866V6.54643ZM20.3669 33.867L20.3602 33.8625C18.1325 32.359 16.9972 30.0852 16.4094 28.0074C15.8192 25.9212 15.7255 23.8427 15.7255 22.4709V13.555C15.7255 8.02347 17.7591 4.9523 19.6945 3.30623L19.6975 3.30372C22.8549 0.629978 27.0964 0.558105 30.4841 0.558105C33.8717 0.558105 38.1133 0.629978 41.2707 3.30373L41.2736 3.30623C43.2091 4.9523 45.2426 8.02347 45.2426 13.555V22.4709C45.2426 28.8068 43.1183 32.2027 40.5945 33.8715M20.3669 33.867L20.3737 33.8715L20.3669 33.867ZM40.0634 4.63903C41.5759 5.92542 43.4093 8.49818 43.4093 13.555V22.4709C43.4093 28.4149 41.4384 31.1651 39.5592 32.4071C37.1992 33.9699 33.6423 33.9399 31.2199 33.9195C30.9607 33.9173 30.7145 33.9153 30.4841 33.9153C30.2537 33.9153 30.0075 33.9173 29.7483 33.9195C27.3258 33.9399 23.769 33.9699 21.4089 32.4071C17.9256 30.0561 17.5589 25.088 17.5589 22.4709V13.555C17.5589 8.49818 19.3923 5.92542 20.9048 4.63903C23.4715 2.4655 27.0007 2.33242 30.4841 2.33242C33.9675 2.33242 37.4967 2.4655 40.0634 4.63903ZM40.5945 33.8715C38.9153 34.9831 36.8817 35.403 35.12 35.5753C33.682 35.7159 32.2457 35.7033 31.1635 35.6938C30.9173 35.6916 30.6895 35.6896 30.4841 35.6896C30.2787 35.6896 30.0508 35.6916 29.8046 35.6938C28.7224 35.7033 27.2861 35.7159 25.8481 35.5753C24.0862 35.403 22.053 34.9834 20.3737 33.8715M26.8296 9.6519L26.8251 9.65547C25.6465 10.5788 25.4423 12.3038 25.4423 13.8211V21.8056C25.4423 24.6759 25.8414 25.9353 26.3349 26.5113C26.686 26.9012 27.2229 27.1665 27.9946 27.3202C28.7868 27.4779 29.6358 27.4834 30.4841 27.4834C32.3939 27.4834 33.7664 27.3886 34.5995 26.4975C34.9241 26.1184 35.1866 25.482 35.345 24.5716C35.5014 23.6733 35.5258 22.7006 35.5258 21.8056V13.8211C35.5258 12.3038 35.3217 10.5788 34.1431 9.65547L34.1386 9.65191C33.822 9.40227 33.2752 9.16309 32.5366 8.9938C31.8224 8.83009 31.0722 8.76432 30.4841 8.76432C29.8959 8.76432 29.1458 8.83009 28.4316 8.9938C27.693 9.16309 27.1461 9.40227 26.8296 9.6519ZM35.9842 27.6608C37.2675 26.197 37.3592 23.6242 37.3592 21.8056V13.8211C37.3592 12.3573 37.2217 9.78456 35.2966 8.27639C34.0591 7.30051 31.9049 6.99 30.4841 6.99C29.0632 6.99 26.909 7.30051 25.6715 8.27639C23.7465 9.78456 23.609 12.3573 23.609 13.8211V21.8056C23.609 24.6888 23.9757 26.5519 24.9382 27.6608C26.359 29.2577 28.8341 29.2577 30.4841 29.2577C32.2258 29.2577 34.5175 29.2577 35.9842 27.6608Z" fill="#8EC8E1"/>
</svg>
