<svg width="77" height="38" viewBox="0 0 77 38" fill="none" xmlns="http://www.w3.org/2000/svg">
<path d="M5.87297 38H3.87297V40H5.87297V38ZM12.869 38V40H14.869V38H12.869ZM11.491 1.907L12.7713 0.370556L12.756 0.357752L12.7404 0.345258L11.491 1.907ZM0.0429688 0.899997V-1.1H-1.95703V0.899997H0.0429688ZM0.0429688 6.465H-1.95703V8.465H0.0429688V6.465ZM5.50197 7.048L3.81465 8.12175L3.82607 8.1397L3.83787 8.1574L5.50197 7.048ZM5.87297 40H12.869V36H5.87297V40ZM14.869 38V5.564H10.869V38H14.869ZM14.869 5.564C14.869 4.39521 14.7936 2.0558 12.7713 0.370556L10.2106 3.44344C10.7323 3.87819 10.869 4.50679 10.869 5.564H14.869ZM12.7404 0.345258C11.4941 -0.651775 9.84255 -1.1 8.04597 -1.1V2.9C9.21739 2.9 9.89788 3.19377 10.2416 3.46874L12.7404 0.345258ZM8.04597 -1.1H0.0429688V2.9H8.04597V-1.1ZM-1.95703 0.899997V6.465H2.04297V0.899997H-1.95703ZM0.0429688 8.465H4.12397V4.465H0.0429688V8.465ZM4.12397 8.465C4.27073 8.465 4.32568 8.46593 4.36539 8.46882C4.39558 8.47102 4.35227 8.47079 4.27294 8.44586C4.18338 8.41771 4.07622 8.36717 3.97507 8.28832C3.87695 8.21183 3.82783 8.14246 3.81465 8.12175L7.18929 5.97424C6.7629 5.30421 6.17464 4.85064 5.47225 4.62989C4.89486 4.44842 4.32243 4.465 4.12397 4.465V8.465ZM3.83787 8.1574C3.78473 8.07768 3.77672 8.0363 3.78785 8.07136C3.79764 8.10222 3.81374 8.16548 3.82912 8.26738C3.8607 8.47656 3.87297 8.73493 3.87297 9.009H7.87297C7.87297 8.64707 7.85874 8.16344 7.78432 7.67037C7.71607 7.21823 7.56805 6.54157 7.16607 5.9386L3.83787 8.1574ZM3.87297 9.009V38H7.87297V9.009H3.87297ZM45.5571 38V40H47.5571V38H45.5571ZM45.5571 32.435H47.5571V30.435H45.5571V32.435ZM27.2721 31.481L28.3815 33.1451L28.3977 33.1343L28.4136 33.1233L27.2721 31.481ZM42.2181 21.093L43.3596 22.7353L43.3701 22.7279L43.3806 22.7205L42.2181 21.093ZM45.4511 18.125L47.0955 19.2634L47.0981 19.2596L45.4511 18.125ZM44.9211 3.073L43.4877 4.46771L43.4972 4.47753L43.5069 4.48721L44.9211 3.073ZM20.6471 0.899997V-1.1H18.6471V0.899997H20.6471ZM20.6471 6.465H18.6471V8.465H20.6471V6.465ZM39.1971 7.737L40.7698 6.50135L40.7644 6.49446L40.7589 6.48761L39.1971 7.737ZM37.6071 16.906L36.4792 15.2544L36.4767 15.2561L37.6071 16.906ZM20.4351 28.672L21.5445 30.3361L21.5551 30.329L21.5656 30.3219L20.4351 28.672ZM47.5571 38V32.435H43.5571V38H47.5571ZM45.5571 30.435H27.1131V34.435H45.5571V30.435ZM27.1131 30.435C27.3123 30.435 27.822 30.5039 28.2486 30.9778C28.635 31.4072 28.6891 31.8813 28.6891 32.117H24.6891C24.6891 32.4587 24.7697 33.0918 25.2754 33.6537C25.8212 34.2601 26.543 34.435 27.1131 34.435V30.435ZM28.6891 32.117C28.6891 32.5838 28.5068 32.9021 28.4253 33.0251C28.3384 33.1563 28.2615 33.2237 28.2546 33.2299C28.2496 33.2343 28.2535 33.2305 28.3815 33.1451L26.1627 29.8169C26.1318 29.8375 25.8441 30.0192 25.5874 30.2489C25.4547 30.3677 25.2618 30.5577 25.0904 30.8163C24.9245 31.0669 24.6891 31.5177 24.6891 32.117H28.6891ZM28.4136 33.1233L43.3596 22.7353L41.0767 19.4507L26.1307 29.8387L28.4136 33.1233ZM43.3806 22.7205C44.4482 21.9579 45.9113 20.974 47.0955 19.2634L43.8067 16.9866C43.083 18.032 42.2141 18.6381 41.0557 19.4655L43.3806 22.7205ZM47.0981 19.2596C49.137 16.2999 49.1471 12.7238 49.1471 10.758H45.1471C45.1471 12.8202 45.0512 15.18 43.8041 16.9904L47.0981 19.2596ZM49.1471 10.758C49.1471 8.04682 48.9947 4.31813 46.3353 1.65878L43.5069 4.48721C44.8756 5.85587 45.1471 7.95718 45.1471 10.758H49.1471ZM46.3546 1.67829C43.838 -0.908155 40.4403 -1.1 38.6671 -1.1V2.9C40.2859 2.9 42.1882 3.13215 43.4877 4.46771L46.3546 1.67829ZM38.6671 -1.1H20.6471V2.9H38.6671V-1.1ZM18.6471 0.899997V6.465H22.6471V0.899997H18.6471ZM20.6471 8.465H35.4341V4.465H20.6471V8.465ZM35.4341 8.465C36.1687 8.465 36.7221 8.56342 37.1027 8.69425C37.4898 8.8273 37.6175 8.96407 37.6354 8.98639L40.7589 6.48761C39.554 4.98147 37.4565 4.465 35.4341 4.465V8.465ZM37.6245 8.97264C37.6393 8.99143 37.7373 9.12897 37.818 9.57992C37.8992 10.0336 37.9391 10.662 37.9391 11.553H41.9391C41.9391 10.589 41.8996 9.68041 41.7555 8.87532C41.6109 8.06753 41.338 7.22457 40.7698 6.50135L37.6245 8.97264ZM37.9391 11.553C37.9391 12.6093 37.8886 13.2703 37.7007 13.806C37.5432 14.2551 37.2467 14.7302 36.4792 15.2544L38.7351 18.5576C40.1405 17.5978 41.01 16.4564 41.4753 15.13C41.9101 13.8902 41.9391 12.6167 41.9391 11.553H37.9391ZM36.4767 15.2561L19.3047 27.0221L21.5656 30.3219L38.7376 18.5559L36.4767 15.2561ZM19.3257 27.0079C18.6069 27.4872 17.7714 28.1888 17.1371 29.311C16.5045 30.4303 16.1561 31.8179 16.1561 33.548H20.1561C20.1561 32.3631 20.3908 31.6837 20.6194 31.2792C20.8464 30.8777 21.1504 30.5988 21.5445 30.3361L19.3257 27.0079ZM16.1561 33.548C16.1561 36.2982 17.2292 38.0999 18.7842 39.0906C20.1799 39.9797 21.6462 40 22.0781 40V36C21.8211 36 21.3264 35.9673 20.9333 35.7169C20.7666 35.6107 20.5973 35.4525 20.4571 35.1751C20.3115 34.8869 20.1561 34.3868 20.1561 33.548H16.1561ZM22.0781 40H45.5571V36H22.0781V40ZM67.0196 33.548V35.548H69.0196V33.548H67.0196ZM67.0196 23.796V21.796H65.0196V23.796H67.0196ZM76.7717 23.796V25.796H78.7717V23.796H76.7717ZM76.7717 19.291H78.7717V17.291H76.7717V19.291ZM67.0196 19.291H65.0196V21.291H67.0196V19.291ZM67.0196 9.539H69.0196V7.539H67.0196V9.539ZM62.1966 9.539V7.539H60.1966V9.539H62.1966ZM62.1966 19.291V21.291H64.1966V19.291H62.1966ZM52.4446 19.291V17.291H50.4446V19.291H52.4446ZM52.4446 23.796H50.4446V25.796H52.4446V23.796ZM62.1966 23.796H64.1966V21.796H62.1966V23.796ZM62.1966 33.548H60.1966V35.548H62.1966V33.548ZM69.0196 33.548V23.796H65.0196V33.548H69.0196ZM67.0196 25.796H76.7717V21.796H67.0196V25.796ZM78.7717 23.796V19.291H74.7717V23.796H78.7717ZM76.7717 17.291H67.0196V21.291H76.7717V17.291ZM69.0196 19.291V9.539H65.0196V19.291H69.0196ZM67.0196 7.539H62.1966V11.539H67.0196V7.539ZM60.1966 9.539V19.291H64.1966V9.539H60.1966ZM62.1966 17.291H52.4446V21.291H62.1966V17.291ZM50.4446 19.291V23.796H54.4446V19.291H50.4446ZM52.4446 25.796H62.1966V21.796H52.4446V25.796ZM60.1966 23.796V33.548H64.1966V23.796H60.1966ZM62.1966 35.548H67.0196V31.548H62.1966V35.548Z" fill="#03255A"/>
</svg>
