<svg width="50" height="50" viewBox="0 0 50 50" fill="none" xmlns="http://www.w3.org/2000/svg">
<path d="M32.6902 18.7146L32.6899 18.7134C32.0781 15.6541 29.6317 13.2076 26.5723 12.5958L26.5723 12.5958L26.5702 12.5954C21.6876 11.691 17.1357 15.3531 17.1357 20.2857C17.1357 20.6133 17.2594 20.8702 17.4536 21.0438C17.6451 21.2151 17.8963 21.2977 18.1428 21.2978C18.3893 21.2979 18.6406 21.2156 18.8321 21.0443C19.0264 20.8707 19.15 20.6137 19.15 20.2857C19.15 16.3683 22.8681 13.9583 26.2576 14.6045L26.2584 14.6046C28.5116 15.0219 30.3495 16.8598 30.7668 19.113L30.7669 19.1136C31.3515 22.208 29.5139 25.1321 26.5907 25.9691C25.0627 26.3313 23.9929 27.7654 23.9929 29.3714V30.5714C23.9929 30.8994 24.1165 31.1565 24.3107 31.3302C24.5023 31.5014 24.7535 31.5839 25 31.5838C25.2465 31.5838 25.4978 31.5012 25.6893 31.3299C25.8835 31.1562 26.0071 30.8992 26.0071 30.5714V29.3714C26.0071 28.6623 26.4807 28.0416 27.0943 27.8884L27.0944 27.8885L27.0988 27.8872C31.1177 26.7512 33.4758 22.8176 32.6902 18.7146ZM25 0.85C11.7172 0.85 0.85 11.7172 0.85 25C0.85 38.2828 11.7172 49.15 25 49.15C38.2828 49.15 49.15 38.2828 49.15 25C49.15 11.7172 38.2828 0.85 25 0.85ZM25 47.1357C12.8257 47.1357 2.86429 37.1743 2.86429 25C2.86429 12.8257 12.8257 2.86429 25 2.86429C37.1743 2.86429 47.1357 12.8257 47.1357 25C47.1357 37.1743 37.1743 47.1357 25 47.1357ZM25 38.4357C26.0257 38.4357 26.8643 37.5971 26.8643 36.5714C26.8643 35.5457 26.0257 34.7071 25 34.7071C23.9743 34.7071 23.1357 35.5457 23.1357 36.5714C23.1357 37.5971 23.9743 38.4357 25 38.4357Z" fill="#03255A" stroke="#03255A" stroke-width="0.3"/>
</svg>
