<svg width="72" height="39" viewBox="0 0 72 39" fill="none" xmlns="http://www.w3.org/2000/svg">
<path d="M5.73107 38H3.73107V40H5.73107V38ZM8.59307 38V40H10.5931V38H8.59307ZM7.63907 1.589L8.9105 0.0451295L8.90555 0.0410837L7.63907 1.589ZM0.696074 0.899997V-1.1H-1.30393V0.899997H0.696074ZM0.696074 3.444H-1.30393V5.444H0.696074V3.444ZM5.51907 3.974L7.30793 3.07957L7.28849 3.0407L7.26739 3.00271L5.51907 3.974ZM5.73107 40H8.59307V36H5.73107V40ZM10.5931 38V4.451H6.59307V38H10.5931ZM10.5931 4.451C10.5931 3.65867 10.6276 1.45925 8.91049 0.0451374L6.36766 3.13286C6.39138 3.15239 6.45556 3.21001 6.51219 3.43951C6.57551 3.69612 6.59307 4.01621 6.59307 4.451H10.5931ZM8.90555 0.0410837C8.29887 -0.455293 7.5751 -0.723178 6.98483 -0.872948C6.36787 -1.02949 5.72476 -1.1 5.14807 -1.1V2.9C5.41939 2.9 5.73027 2.93548 6.00107 3.00419C6.29855 3.07967 6.39628 3.15629 6.3726 3.13691L8.90555 0.0410837ZM5.14807 -1.1H0.696074V2.9H5.14807V-1.1ZM-1.30393 0.899997V3.444H2.69607V0.899997H-1.30393ZM0.696074 5.444H4.45907V1.444H0.696074V5.444ZM4.45907 5.444C4.45898 5.444 4.45654 5.444 4.45209 5.44374C4.44776 5.44348 4.43996 5.44289 4.42901 5.44139C4.40971 5.43876 4.36404 5.43115 4.30057 5.40788C4.15657 5.35508 3.92163 5.21686 3.77076 4.94528L7.26739 3.00271C6.42149 1.48009 4.80991 1.444 4.45907 1.444V5.444ZM3.73022 4.86843C3.68108 4.77015 3.66064 4.70134 3.6575 4.69082C3.65247 4.67399 3.65384 4.67558 3.65905 4.70128C3.66981 4.75444 3.68331 4.84211 3.69592 4.9607C3.72146 5.20071 3.73107 5.44807 3.73107 5.564H7.73107C7.73107 5.30892 7.71419 4.92028 7.67348 4.53755C7.65297 4.34477 7.6234 4.12437 7.57951 3.90756C7.54278 3.72617 7.46852 3.40076 7.30793 3.07957L3.73022 4.86843ZM3.73107 5.564V38H7.73107V5.564H3.73107ZM19.5102 36.251L20.6647 34.6178L20.6601 34.6146L19.5102 36.251ZM37.5302 36.251L36.3804 34.6146L36.3758 34.6178L37.5302 36.251ZM38.3782 3.444L37.0446 4.93451L37.0531 4.94199L38.3782 3.444ZM18.6622 3.444L19.9874 4.94202L19.9958 4.93448L18.6622 3.444ZM21.2592 5.034L22.4341 6.65263L22.4434 6.64576L21.2592 5.034ZM35.7812 5.034L34.5971 6.64579L34.6065 6.6526L35.7812 5.034ZM37.0532 32.912L35.5584 31.5832L35.55 31.5928L37.0532 32.912ZM19.9872 32.912L18.4924 34.2407L18.4991 34.2483L19.9872 32.912ZM12.9522 25.598C12.9522 29.0169 13.5892 34.5347 18.3604 37.8874L20.6601 34.6146C17.5873 32.4553 16.9522 28.7511 16.9522 25.598H12.9522ZM18.3558 37.8842C22.0505 40.4959 25.6337 40.159 28.5202 40.159V36.159C25.2588 36.159 23.118 36.3521 20.6647 34.6178L18.3558 37.8842ZM28.5202 40.159C31.4068 40.159 34.99 40.4959 38.6847 37.8842L36.3758 34.6178C33.9225 36.3521 31.7817 36.159 28.5202 36.159V40.159ZM38.6801 37.8874C43.4513 34.5347 44.0882 29.0169 44.0882 25.598H40.0882C40.0882 28.7511 39.4532 32.4553 36.3804 34.6146L38.6801 37.8874ZM44.0882 25.598V12.454H40.0882V25.598H44.0882ZM44.0882 12.454C44.0882 6.70507 41.3922 3.43997 39.7034 1.94601L37.0531 4.94199C38.1203 5.88603 40.0882 8.13293 40.0882 12.454H44.0882ZM39.7118 1.95352C36.0784 -1.29743 31.8702 -1.418 28.5202 -1.418V2.582C31.8483 2.582 34.6361 2.77943 37.0447 4.93448L39.7118 1.95352ZM28.5202 -1.418C25.1703 -1.418 20.9621 -1.29743 17.3287 1.95352L19.9958 4.93448C22.4044 2.77943 25.1922 2.582 28.5202 2.582V-1.418ZM17.3371 1.94601C15.6483 3.43997 12.9522 6.70507 12.9522 12.454H16.9522C16.9522 8.13293 18.9202 5.88603 19.9874 4.94199L17.3371 1.94601ZM12.9522 12.454V25.598H16.9522V12.454H12.9522ZM19.8142 13.249C19.8142 11.5326 20.0347 8.39403 22.434 6.6526L20.0845 3.4154C15.9118 6.44397 15.8142 11.5734 15.8142 13.249H19.8142ZM22.4434 6.64576C23.3597 5.9726 24.7338 5.55971 26.0872 5.33825C27.3909 5.12491 28.4346 5.126 28.5202 5.126V1.126C28.3409 1.126 27.0526 1.12708 25.4413 1.39075C23.8797 1.64628 21.7558 2.1874 20.0751 3.42223L22.4434 6.64576ZM28.5202 5.126C28.6059 5.126 29.6496 5.12491 30.9533 5.33825C32.3067 5.55971 33.6808 5.9726 34.5971 6.64576L36.9654 3.42223C35.2847 2.1874 33.1608 1.64628 31.5992 1.39075C29.9879 1.12708 28.6996 1.126 28.5202 1.126V5.126ZM34.6065 6.6526C37.0058 8.39403 37.2262 11.5326 37.2262 13.249H41.2262C41.2262 11.5734 41.1287 6.44397 36.956 3.4154L34.6065 6.6526ZM37.2262 13.249V24.591H41.2262V13.249H37.2262ZM37.2262 24.591C37.2262 27.5062 37.1029 29.8457 35.5584 31.5833L38.5481 34.2407C41.2436 31.2083 41.2262 27.2938 41.2262 24.591H37.2262ZM35.55 31.5928C33.9419 33.4254 31.5937 33.615 28.4672 33.615V37.615C31.3828 37.615 35.6066 37.5926 38.5565 34.2312L35.55 31.5928ZM28.4672 33.615C25.4745 33.615 23.1447 33.4348 21.4753 31.5757L18.4991 34.2483C21.4938 37.5832 25.63 37.615 28.4672 37.615V33.615ZM21.4821 31.5833C19.9376 29.8457 19.8142 27.5062 19.8142 24.591H15.8142C15.8142 27.2938 15.7969 31.2083 18.4924 34.2407L21.4821 31.5833ZM19.8142 24.591V13.249H15.8142V24.591H19.8142ZM61.1844 32.7V34.7H63.1844V32.7H61.1844ZM61.1844 22.842V20.842H59.1844V22.842H61.1844ZM71.0424 22.842V24.842H73.0424V22.842H71.0424ZM71.0424 20.298H73.0424V18.298H71.0424V20.298ZM61.1844 20.298H59.1844V22.298H61.1844V20.298ZM61.1844 10.44H63.1844V8.44H61.1844V10.44ZM58.3224 10.44V8.44H56.3224V10.44H58.3224ZM58.3224 20.298V22.298H60.3224V20.298H58.3224ZM48.4644 20.298V18.298H46.4644V20.298H48.4644ZM48.4644 22.842H46.4644V24.842H48.4644V22.842ZM58.3224 22.842H60.3224V20.842H58.3224V22.842ZM58.3224 32.7H56.3224V34.7H58.3224V32.7ZM63.1844 32.7V22.842H59.1844V32.7H63.1844ZM61.1844 24.842H71.0424V20.842H61.1844V24.842ZM73.0424 22.842V20.298H69.0424V22.842H73.0424ZM71.0424 18.298H61.1844V22.298H71.0424V18.298ZM63.1844 20.298V10.44H59.1844V20.298H63.1844ZM61.1844 8.44H58.3224V12.44H61.1844V8.44ZM56.3224 10.44V20.298H60.3224V10.44H56.3224ZM58.3224 18.298H48.4644V22.298H58.3224V18.298ZM46.4644 20.298V22.842H50.4644V20.298H46.4644ZM48.4644 24.842H58.3224V20.842H48.4644V24.842ZM56.3224 22.842V32.7H60.3224V22.842H56.3224ZM58.3224 34.7H61.1844V30.7H58.3224V34.7Z" fill="#03255A"/>
</svg>
