<svg width="41" height="41" viewBox="0 0 41 41" fill="none" xmlns="http://www.w3.org/2000/svg">
<path d="M1 3.42285e-08C0.447715 -7.91831e-09 -7.91831e-09 0.447715 3.42285e-08 1L-5.00652e-08 10C-5.00652e-08 10.5523 0.447715 11 1 11C1.55228 11 2 10.5523 2 10L2 2L10 2C10.5523 2 11 1.55228 11 1C11 0.447715 10.5523 -5.00652e-08 10 -5.00652e-08L1 3.42285e-08ZM40 41C40.5523 41 41 40.5523 41 40L41 31C41 30.4477 40.5523 30 40 30C39.4477 30 39 30.4477 39 31L39 39L31 39C30.4477 39 30 39.4477 30 40C30 40.5523 30.4477 41 31 41L40 41ZM0.292893 1.70711L39.2929 40.7071L40.7071 39.2929L1.70711 0.292893L0.292893 1.70711Z" fill="#03255A"/>
<path d="M40 3.42285e-08C40.5523 -7.91831e-09 41 0.447715 41 1L41 10C41 10.5523 40.5523 11 40 11C39.4477 11 39 10.5523 39 10L39 2L31 2C30.4477 2 30 1.55228 30 1C30 0.447715 30.4477 -5.00652e-08 31 -5.00652e-08L40 3.42285e-08ZM0.999999 41C0.447715 41 1.46883e-07 40.5523 -1.4547e-06 40L-2.00261e-06 31C-9.91082e-07 30.4477 0.447713 30 0.999999 30C1.55228 30 2 30.4477 2 31L2 39L10 39C10.5523 39 11 39.4477 11 40C11 40.5523 10.5523 41 10 41L0.999999 41ZM40.7071 1.70711L1.70711 40.7071L0.292892 39.2929L39.2929 0.292893L40.7071 1.70711Z" fill="#03255A"/>
</svg>
