<svg width="52" height="52" viewBox="0 0 52 52" fill="none" xmlns="http://www.w3.org/2000/svg">
<path d="M8.54061 34.5416C3.97561 34.5416 0.261328 38.2559 0.261328 42.8209C0.261328 47.3859 3.97561 51.1002 8.54061 51.1002C13.1056 51.1002 16.8199 47.3859 16.8199 42.8209C16.8199 38.2559 13.1056 34.5416 8.54061 34.5416ZM8.54061 49.4129C4.9055 49.4129 1.94849 46.4559 1.94849 42.8208C1.94849 39.1857 4.9055 36.2287 8.54061 36.2287C12.1757 36.2287 15.1327 39.1857 15.1327 42.8208C15.1327 46.4559 12.1757 49.4129 8.54061 49.4129Z" fill="#03255A" stroke="#0095D9" stroke-width="0.2"/>
<path d="M8.54358 37.5157C6.848 37.5157 5.46934 38.8945 5.46934 40.59C5.46934 42.2855 6.84809 43.6642 8.54358 43.6642C10.2392 43.6642 11.6178 42.2855 11.6178 40.59C11.6178 38.8945 10.2392 37.5157 8.54358 37.5157ZM8.54358 41.9771C7.77867 41.9771 7.15641 41.355 7.15641 40.59C7.15641 39.8251 7.77859 39.2028 8.54358 39.2028C9.30849 39.2028 9.93074 39.825 9.93074 40.59C9.93074 41.355 9.30849 41.9771 8.54358 41.9771Z" fill="#03255A" stroke="#0095D9" stroke-width="0.2"/>
<path d="M4.40097 49.9836L4.40102 49.9837C5.66235 50.7136 7.09384 51.0998 8.54149 51.0998C9.98914 51.0998 11.4206 50.7136 12.682 49.9837C12.9428 49.8333 13.1029 49.5541 13.1029 49.254V47.2939C13.1029 45.9996 12.022 44.9513 10.6986 44.9513H6.38441C5.06106 44.9513 3.98008 45.9996 3.98008 47.2931V49.2532C3.98008 49.5542 4.1403 49.8326 4.40097 49.9836ZM11.4156 48.7478C9.62222 49.6194 7.46065 49.6194 5.66716 48.7478V47.2939C5.66716 46.9399 5.98145 46.6384 6.38433 46.6384H10.6985C11.1014 46.6384 11.4156 46.9399 11.4156 47.2939V48.7478Z" fill="#03255A" stroke="#0095D9" stroke-width="0.2"/>
<path d="M8.54061 0.261816C3.97561 0.261816 0.261328 3.9761 0.261328 8.54109C0.261328 13.1061 3.97561 16.8204 8.54061 16.8204C13.1056 16.8204 16.8199 13.1061 16.8199 8.54109C16.8199 3.9761 13.1056 0.261816 8.54061 0.261816ZM8.54061 15.1331C4.9055 15.1331 1.94849 12.1761 1.94849 8.54101C1.94849 4.9059 4.9055 1.94889 8.54061 1.94889C12.1757 1.94889 15.1327 4.9059 15.1327 8.54101C15.1327 12.1761 12.1757 15.1331 8.54061 15.1331Z" fill="#03255A" stroke="#0095D9" stroke-width="0.2"/>
<path d="M8.54358 3.23594C6.848 3.23594 5.46934 4.61469 5.46934 6.31018C5.46934 8.00576 6.84809 9.38442 8.54358 9.38442C10.2392 9.38442 11.6178 8.00567 11.6178 6.31018C11.6178 4.61469 10.2392 3.23594 8.54358 3.23594ZM8.54358 7.69735C7.77867 7.69735 7.15641 7.07517 7.15641 6.31018C7.15641 5.54527 7.77859 4.92302 8.54358 4.92302C9.30849 4.92302 9.93074 5.54519 9.93074 6.31018C9.93074 7.07517 9.30849 7.69735 8.54358 7.69735Z" fill="#03255A" stroke="#0095D9" stroke-width="0.2"/>
<path d="M4.40097 15.7039L4.40102 15.7039C5.66235 16.4339 7.09384 16.8201 8.54149 16.8201C9.98914 16.8201 11.4206 16.4339 12.682 15.7039C12.9428 15.5535 13.1029 15.2743 13.1029 14.9742V13.0141C13.1029 11.7198 12.022 10.6715 10.6986 10.6715H6.38441C5.06106 10.6715 3.98008 11.7198 3.98008 13.0133V14.9734C3.98008 15.2745 4.1403 15.5528 4.40097 15.7039ZM11.4156 14.468C9.62222 15.3396 7.46065 15.3396 5.66716 14.468V13.0141C5.66716 12.6602 5.98145 12.3586 6.38433 12.3586H10.6985C11.1014 12.3586 11.4156 12.6602 11.4156 13.0141V14.468Z" fill="#03255A" stroke="#0095D9" stroke-width="0.2"/>
<path d="M42.8201 0.261816C38.2551 0.261816 34.5409 3.9761 34.5409 8.54109C34.5409 13.1061 38.2551 16.8204 42.8201 16.8204C47.3851 16.8204 51.0994 13.1061 51.0994 8.54109C51.0994 3.9761 47.3851 0.261816 42.8201 0.261816ZM42.8201 15.1331C39.185 15.1331 36.228 12.1761 36.228 8.54101C36.228 4.9059 39.185 1.94889 42.8201 1.94889C46.4553 1.94889 49.4123 4.9059 49.4123 8.54101C49.4123 12.1761 46.4553 15.1331 42.8201 15.1331Z" fill="#03255A" stroke="#0095D9" stroke-width="0.2"/>
<path d="M42.8231 3.23594C41.1275 3.23594 39.7489 4.61469 39.7489 6.31018C39.7489 8.00576 41.1276 9.38442 42.8231 9.38442C44.5187 9.38442 45.8974 8.00567 45.8974 6.31018C45.8974 4.61469 44.5187 3.23594 42.8231 3.23594ZM42.8231 7.69735C42.0582 7.69735 41.436 7.07517 41.436 6.31018C41.436 5.54527 42.0581 4.92302 42.8231 4.92302C43.588 4.92302 44.2103 5.54519 44.2103 6.31018C44.2103 7.07517 43.588 7.69735 42.8231 7.69735Z" fill="#03255A" stroke="#0095D9" stroke-width="0.2"/>
<path d="M38.6808 15.7039L38.6808 15.7039C39.9421 16.4339 41.3736 16.8201 42.8213 16.8201C44.2689 16.8201 45.7004 16.4339 46.9617 15.7039C47.2226 15.5535 47.3827 15.2743 47.3827 14.9742V13.0141C47.3827 11.7198 46.3018 10.6715 44.9783 10.6715H40.6642C39.3408 10.6715 38.2599 11.7198 38.2599 13.0133V14.9734C38.2599 15.2745 38.4201 15.5528 38.6808 15.7039ZM45.6954 14.468C43.902 15.3396 41.7404 15.3396 39.9469 14.468V13.0141C39.9469 12.6602 40.2612 12.3586 40.6641 12.3586H44.9783C45.3811 12.3586 45.6954 12.6602 45.6954 13.0141V14.468Z" fill="#03255A" stroke="#0095D9" stroke-width="0.2"/>
<path d="M42.8201 34.5416C38.2551 34.5416 34.5409 38.2559 34.5409 42.8209C34.5409 47.3859 38.2551 51.1002 42.8201 51.1002C47.3851 51.1002 51.0994 47.3859 51.0994 42.8209C51.0994 38.2559 47.3851 34.5416 42.8201 34.5416ZM42.8201 49.4129C39.185 49.4129 36.228 46.4559 36.228 42.8208C36.228 39.1857 39.185 36.2287 42.8201 36.2287C46.4553 36.2287 49.4123 39.1857 49.4123 42.8208C49.4123 46.4559 46.4553 49.4129 42.8201 49.4129Z" fill="#03255A" stroke="#0095D9" stroke-width="0.2"/>
<path d="M42.8231 37.5157C41.1275 37.5157 39.7489 38.8945 39.7489 40.59C39.7489 42.2855 41.1276 43.6642 42.8231 43.6642C44.5187 43.6642 45.8974 42.2855 45.8974 40.59C45.8974 38.8945 44.5187 37.5157 42.8231 37.5157ZM42.8231 41.9771C42.0582 41.9771 41.436 41.355 41.436 40.59C41.436 39.8251 42.0581 39.2028 42.8231 39.2028C43.588 39.2028 44.2103 39.825 44.2103 40.59C44.2103 41.355 43.588 41.9771 42.8231 41.9771Z" fill="#03255A" stroke="#0095D9" stroke-width="0.2"/>
<path d="M38.6808 49.9836L38.6808 49.9837C39.9421 50.7136 41.3736 51.0998 42.8213 51.0998C44.2689 51.0998 45.7004 50.7136 46.9617 49.9837C47.2226 49.8333 47.3827 49.5541 47.3827 49.254V47.2939C47.3827 45.9996 46.3018 44.9513 44.9783 44.9513H40.6642C39.3408 44.9513 38.2599 45.9996 38.2599 47.2931V49.2532C38.2599 49.5542 38.4201 49.8326 38.6808 49.9836ZM45.6954 48.7478C43.902 49.6194 41.7404 49.6194 39.9469 48.7478V47.2939C39.9469 46.9399 40.2612 46.6384 40.6641 46.6384H44.9783C45.3811 46.6384 45.6954 46.9399 45.6954 47.2939V48.7478Z" fill="#03255A" stroke="#0095D9" stroke-width="0.2"/>
<path d="M19.9497 30.9686L30.9681 19.9502" stroke="#03255A" stroke-width="2" stroke-linecap="round" stroke-linejoin="round"/>
<path d="M30.9697 30.9686L19.9513 19.9502" stroke="#03255A" stroke-width="2" stroke-linecap="round" stroke-linejoin="round"/>
</svg>
