<svg width="31" height="47" viewBox="0 0 31 47" fill="none" xmlns="http://www.w3.org/2000/svg">
<path d="M28.3962 41.2924V41.4015C28.3386 42.9992 27.0198 44.2822 25.4083 44.2822H5.80008C4.15209 44.2822 2.81025 42.9404 2.81025 41.2924V20.7627H28.3962V41.2924ZM29.3331 18.8928H5.97363V11.9271C5.97363 6.61539 10.2944 2.29658 15.6042 2.29658C20.914 2.29658 25.2328 6.61729 25.2328 11.9271V13.7796C25.2328 14.2964 25.6534 14.7146 26.1678 14.7146C26.6821 14.7146 27.1027 14.2964 27.1027 13.7796V11.9271C27.1027 5.58623 21.9432 0.42666 15.6022 0.42666C9.26129 0.42666 4.10371 5.58626 4.10371 11.9271V18.8908H1.87529C1.35876 18.8908 0.940332 19.3093 0.940332 19.8258V41.2905C0.940332 43.9695 3.12099 46.1502 5.80008 46.1502H25.4083C28.0874 46.1502 30.2681 43.9695 30.2681 41.2905V19.8277C30.2681 19.3112 29.8496 18.8928 29.3331 18.8928Z" fill="#03255A" stroke="#03255A" stroke-width="0.3"/>
<path d="M20.6124 35.1039L20.6123 35.1039C20.4442 35.3934 20.1358 35.571 19.8017 35.571H11.4046C11.0701 35.571 10.7617 35.3911 10.5958 35.1036C10.5957 35.1036 10.5957 35.1036 10.5957 35.1035L10.7256 35.0285C10.655 34.9069 10.6196 34.7715 10.6196 34.6361C10.6196 34.5007 10.655 34.3672 10.7256 34.2436L20.6124 35.1039ZM20.6124 35.1039L20.6137 35.1014C20.6935 34.9578 20.7386 34.7995 20.7386 34.6361C20.7386 34.4732 20.6938 34.3125 20.6132 34.1698L20.6133 34.1698L20.6125 34.1686L16.413 26.898L20.6124 35.1039ZM13.0244 33.6991L15.6041 29.2333L18.1819 33.6991H13.0244Z" fill="#03255A" stroke="#03255A" stroke-width="0.3"/>
</svg>
