<svg width="58" height="41" viewBox="0 0 58 41" fill="none" xmlns="http://www.w3.org/2000/svg">
<path d="M57.0786 15.4779L57.0788 15.4778L57.0741 15.4705C50.9959 6.12935 41.0784 0.950098 29.0626 0.950098C17.0485 0.950098 7.06757 6.12793 1.0526 15.4682C0.691176 15.9778 0.827899 16.7116 1.35047 17.0157C1.86102 17.3751 2.59433 17.2366 2.8967 16.7126C8.46921 8.03951 17.7771 3.22375 28.9989 3.22375C40.2219 3.22375 49.5299 7.97684 55.1019 16.6501C55.326 17.0219 55.699 17.1666 56.057 17.1666H56.0596C56.2542 17.1666 56.4744 17.1666 56.7608 17.0235L56.7763 17.0157L56.7897 17.0045C57.2238 16.6428 57.3718 15.9909 57.0786 15.4779Z" fill="#03255A" stroke="#03255A" stroke-width="0.3"/>
<path d="M9.88832 23.768L9.88821 23.7682L9.89566 23.7719C10.037 23.8426 10.2512 23.9151 10.4721 23.9151C10.8299 23.9151 11.2028 23.7704 11.4269 23.3991C15.2168 17.5895 21.406 14.3652 28.9989 14.3652C36.5926 14.3652 42.7822 17.5901 46.5721 23.4644L46.577 23.4721L46.5829 23.4791C46.9446 23.9131 47.5965 24.0612 48.1095 23.768L48.121 23.7614L48.1311 23.753C48.5651 23.3913 48.7132 22.7394 48.42 22.2263L48.4202 22.2262L48.4159 22.2196C44.2474 15.7424 37.3216 12.1552 28.9989 12.1552C20.6775 12.1552 13.7525 15.7413 9.58384 22.2166C9.22091 22.7284 9.36031 23.4663 9.88832 23.768Z" fill="#03255A" stroke="#03255A" stroke-width="0.3"/>
<path d="M40.5254 29.0387L40.5257 29.0386L40.5203 29.0304C38.0077 25.2293 33.9482 23.1059 29.0626 23.1059C24.1154 23.1059 20.0555 25.2277 17.6058 29.029C17.2444 29.5387 17.3811 30.2725 17.9037 30.5766C18.4143 30.936 19.1476 30.7974 19.45 30.2733C21.4569 27.1397 24.8435 25.3795 28.999 25.3795C33.0918 25.3795 36.4787 27.077 38.549 30.2749C38.773 30.6464 39.146 30.7911 39.5039 30.7911C39.7299 30.7911 39.9461 30.7151 40.2076 30.5843L40.2232 30.5765L40.2366 30.5654C40.6706 30.2037 40.8186 29.5518 40.5254 29.0387Z" fill="#03255A" stroke="#03255A" stroke-width="0.3"/>
<path d="M24.0106 35.4165C24.0106 38.046 26.1151 40.1504 28.7446 40.1504C31.3091 40.1504 33.4786 38.0473 33.4786 35.4165C33.4786 32.787 31.3741 30.6825 28.7446 30.6825C26.1151 30.6825 24.0106 32.787 24.0106 35.4165ZM26.2206 35.4165C26.2206 34.035 27.3631 32.8925 28.7446 32.8925C30.1261 32.8925 31.2686 34.035 31.2686 35.4165C31.2686 36.798 30.1261 37.9405 28.7446 37.9405C27.3631 37.9405 26.2206 36.798 26.2206 35.4165Z" fill="#03255A" stroke="#03255A" stroke-width="0.3"/>
</svg>
