<svg width="46" height="50" viewBox="0 0 46 50" fill="none" xmlns="http://www.w3.org/2000/svg">
<path d="M16.4863 0.481138C16.3479 0.487597 16.2121 0.521252 16.0868 0.58018C15.9614 0.639109 15.8489 0.722157 15.7556 0.824582C15.6623 0.927007 15.5901 1.0468 15.5432 1.17713C15.4962 1.30745 15.4754 1.44575 15.4819 1.58413C15.4883 1.7225 15.522 1.85825 15.581 1.98361C15.6399 2.10896 15.723 2.22148 15.8254 2.31473C15.9279 2.40798 16.0477 2.48014 16.178 2.52708C16.3084 2.57403 16.4467 2.59483 16.585 2.58832H20.7994V6.83561C9.36785 7.38192 0.254395 16.8357 0.254395 28.4013C0.254395 40.3174 9.9369 49.9999 21.853 49.9999C33.7691 49.9999 43.4516 40.3174 43.4516 28.4013C43.4516 22.8156 41.3246 17.7173 37.8379 13.8815L40.8176 10.9183L43.7644 13.865C43.8621 13.9655 43.9788 14.0454 44.1077 14.1002C44.2367 14.155 44.3753 14.1836 44.5154 14.1842C44.6555 14.1848 44.7943 14.1574 44.9237 14.1037C45.0531 14.05 45.1705 13.971 45.269 13.8714C45.3675 13.7718 45.4452 13.6536 45.4975 13.5236C45.5497 13.3936 45.5756 13.2544 45.5734 13.1144C45.5713 12.9743 45.5412 12.836 45.485 12.7077C45.4288 12.5793 45.3475 12.4635 45.246 12.367L37.8709 4.99182C37.7607 4.87893 37.6266 4.79222 37.4784 4.73809C37.3302 4.68395 37.1718 4.66377 37.0148 4.67904C36.814 4.69858 36.623 4.77538 36.4645 4.9003C36.3061 5.02522 36.1868 5.19301 36.1209 5.38373C36.0551 5.57444 36.0453 5.78007 36.0929 5.97616C36.1404 6.17225 36.2433 6.35056 36.3893 6.4899L39.336 9.43666L36.3563 12.3999C32.7671 9.14425 28.0668 7.08589 22.9066 6.83561V2.58832H27.121C27.2606 2.59029 27.3992 2.5645 27.5287 2.51243C27.6583 2.46037 27.7762 2.38308 27.8756 2.28505C27.9751 2.18702 28.054 2.0702 28.1079 1.9414C28.1618 1.81259 28.1895 1.67435 28.1895 1.53473C28.1895 1.3951 28.1618 1.25687 28.1079 1.12806C28.054 0.999254 27.9751 0.882441 27.8756 0.784411C27.7762 0.68638 27.6583 0.609088 27.5287 0.557025C27.3992 0.504962 27.2606 0.479167 27.121 0.481138H16.585C16.5521 0.479594 16.5192 0.479594 16.4863 0.481138ZM21.853 8.90986C32.6303 8.90986 41.3444 17.624 41.3444 28.4013C41.3444 39.1786 32.6303 47.8927 21.853 47.8927C11.0757 47.8927 2.36158 39.1786 2.36158 28.4013C2.36158 17.624 11.0757 8.90986 21.853 8.90986ZM21.7378 14.1614C21.4759 14.1901 21.2343 14.3159 21.0606 14.514C20.8869 14.7121 20.7937 14.968 20.7994 15.2314V24.3351C18.991 24.8088 17.6386 26.4514 17.6386 28.4013C17.6386 30.7163 19.538 32.6156 21.853 32.6156C24.168 32.6156 26.0674 30.7163 26.0674 28.4013C26.0674 26.4514 24.715 24.8088 22.9066 24.3351V15.2314C22.9098 15.0814 22.881 14.9325 22.822 14.7945C22.763 14.6566 22.6753 14.5328 22.5646 14.4315C22.454 14.3302 22.323 14.2537 22.1804 14.2071C22.0378 14.1605 21.8869 14.1449 21.7378 14.1614ZM21.853 26.2941C23.0292 26.2941 23.9602 27.2251 23.9602 28.4013C23.9602 29.5776 23.0292 30.5085 21.853 30.5085C20.6768 30.5085 19.7458 29.5776 19.7458 28.4013C19.7458 27.2251 20.6768 26.2941 21.853 26.2941Z" fill="#03255A"/>
</svg>
