<svg width="191" height="197" viewBox="0 0 191 197" fill="none" xmlns="http://www.w3.org/2000/svg">
<path fill-rule="evenodd" clip-rule="evenodd" d="M191 189.227H1V197H1.00002L6.4414 191.559L14.9922 191.559L9.55079 197H13.4376L18.879 191.559L27.4298 191.559L21.9884 197H25.8752L31.3166 191.559L39.8674 191.559L34.426 197H37.5351L42.9765 191.559L51.5273 191.559L46.0859 197H50.7505L56.1918 191.559L64.7426 191.559L59.3012 197H183.226L191 189.227Z" fill="#0095D9"/>
<path d="M1.77851 190.004L1.77851 136.367L13.8272 113.436L13.8272 98.2773L13.8272 82.3418L1.77851 59.4102L1.77851 1.88673L156.858 1.88673L189.895 34.9238L189.895 189.226" stroke="#0095D9" stroke-width="2"/>
<path d="M6.44214 68.3496V127.039L13.4382 114.519V81.5644L6.44214 68.3496Z" fill="#0095D9"/>
<path fill-rule="evenodd" clip-rule="evenodd" d="M6.44214 126.262L13.4382 114.519V82.0303L6.44214 69.5156V126.262ZM7.99682 120.615L11.8835 114.091V82.4354L7.99682 75.4828V120.615Z" fill="#0095D9"/>
</svg>
